<?xml version="1.0" encoding="utf-8" standalone="no"?>
<!DOCTYPE svg PUBLIC "-//W3C//DTD SVG 1.1//EN"
  "http://www.w3.org/Graphics/SVG/1.1/DTD/svg11.dtd">
<svg xmlns:xlink="http://www.w3.org/1999/xlink" width="504pt" height="262.8pt" viewBox="0 0 504 262.8" xmlns="http://www.w3.org/2000/svg" version="1.1">
 <metadata>
  <rdf:RDF xmlns:dc="http://purl.org/dc/elements/1.1/" xmlns:cc="http://creativecommons.org/ns#" xmlns:rdf="http://www.w3.org/1999/02/22-rdf-syntax-ns#">
   <cc:Work>
    <dc:type rdf:resource="http://purl.org/dc/dcmitype/StillImage"/>
    <dc:date>2023-09-28T16:44:25.428972</dc:date>
    <dc:format>image/svg+xml</dc:format>
    <dc:creator>
     <cc:Agent>
      <dc:title>Matplotlib v3.6.2, https://matplotlib.org/</dc:title>
     </cc:Agent>
    </dc:creator>
   </cc:Work>
  </rdf:RDF>
 </metadata>
 <defs>
  <style type="text/css">*{stroke-linejoin: round; stroke-linecap: butt}</style>
 </defs>
 <g id="figure_1">
  <g id="patch_1">
   <path d="M 0 262.8 
L 504 262.8 
L 504 0 
L 0 0 
z
" style="fill: #ffffff"/>
  </g>
  <g id="axes_1">
   <g id="patch_2">
    <path d="M 63 233.892 
L 453.6 233.892 
L 453.6 31.536 
L 63 31.536 
z
" style="fill: #ffffff"/>
   </g>
   <g id="matplotlib.axis_1">
    <g id="xtick_1">
     <g id="line2d_1">
      <defs>
       <path id="ma8c7302599" d="M 0 0 
L 0 3.5 
" style="stroke: #000000; stroke-width: 0.8"/>
      </defs>
      <g>
       <use xlink:href="#ma8c7302599" x="63" y="233.892" style="stroke: #000000; stroke-width: 0.8"/>
      </g>
     </g>
     <g id="text_1">
      <text style="font: 9px 'DejaVu Sans', 'Bitstream Vera Sans', 'Computer Modern Sans Serif', 'Lucida Grande', 'Verdana', 'Geneva', 'Lucid', 'Arial', 'Helvetica', 'Avant Garde', sans-serif; text-anchor: middle" x="63" y="247.730594" transform="rotate(-0 63 247.730594)">2025</text>
     </g>
    </g>
    <g id="xtick_2">
     <g id="line2d_2">
      <g>
       <use xlink:href="#ma8c7302599" x="110.628423" y="233.892" style="stroke: #000000; stroke-width: 0.8"/>
      </g>
     </g>
     <g id="text_2">
      <text style="font: 9px 'DejaVu Sans', 'Bitstream Vera Sans', 'Computer Modern Sans Serif', 'Lucida Grande', 'Verdana', 'Geneva', 'Lucid', 'Arial', 'Helvetica', 'Avant Garde', sans-serif; text-anchor: middle" x="110.628423" y="247.730594" transform="rotate(-0 110.628423 247.730594)">2030</text>
     </g>
    </g>
    <g id="xtick_3">
     <g id="line2d_3">
      <g>
       <use xlink:href="#ma8c7302599" x="158.256846" y="233.892" style="stroke: #000000; stroke-width: 0.8"/>
      </g>
     </g>
     <g id="text_3">
      <text style="font: 9px 'DejaVu Sans', 'Bitstream Vera Sans', 'Computer Modern Sans Serif', 'Lucida Grande', 'Verdana', 'Geneva', 'Lucid', 'Arial', 'Helvetica', 'Avant Garde', sans-serif; text-anchor: middle" x="158.256846" y="247.730594" transform="rotate(-0 158.256846 247.730594)">2035</text>
     </g>
    </g>
    <g id="xtick_4">
     <g id="line2d_4">
      <g>
       <use xlink:href="#ma8c7302599" x="205.885269" y="233.892" style="stroke: #000000; stroke-width: 0.8"/>
      </g>
     </g>
     <g id="text_4">
      <text style="font: 9px 'DejaVu Sans', 'Bitstream Vera Sans', 'Computer Modern Sans Serif', 'Lucida Grande', 'Verdana', 'Geneva', 'Lucid', 'Arial', 'Helvetica', 'Avant Garde', sans-serif; text-anchor: middle" x="205.885269" y="247.730594" transform="rotate(-0 205.885269 247.730594)">2040</text>
     </g>
    </g>
    <g id="xtick_5">
     <g id="line2d_5">
      <g>
       <use xlink:href="#ma8c7302599" x="253.539775" y="233.892" style="stroke: #000000; stroke-width: 0.8"/>
      </g>
     </g>
     <g id="text_5">
      <text style="font: 9px 'DejaVu Sans', 'Bitstream Vera Sans', 'Computer Modern Sans Serif', 'Lucida Grande', 'Verdana', 'Geneva', 'Lucid', 'Arial', 'Helvetica', 'Avant Garde', sans-serif; text-anchor: middle" x="253.539775" y="247.730594" transform="rotate(-0 253.539775 247.730594)">2045</text>
     </g>
    </g>
    <g id="xtick_6">
     <g id="line2d_6">
      <g>
       <use xlink:href="#ma8c7302599" x="301.168198" y="233.892" style="stroke: #000000; stroke-width: 0.8"/>
      </g>
     </g>
     <g id="text_6">
      <text style="font: 9px 'DejaVu Sans', 'Bitstream Vera Sans', 'Computer Modern Sans Serif', 'Lucida Grande', 'Verdana', 'Geneva', 'Lucid', 'Arial', 'Helvetica', 'Avant Garde', sans-serif; text-anchor: middle" x="301.168198" y="247.730594" transform="rotate(-0 301.168198 247.730594)">2050</text>
     </g>
    </g>
    <g id="xtick_7">
     <g id="line2d_7">
      <g>
       <use xlink:href="#ma8c7302599" x="348.796621" y="233.892" style="stroke: #000000; stroke-width: 0.8"/>
      </g>
     </g>
     <g id="text_7">
      <text style="font: 9px 'DejaVu Sans', 'Bitstream Vera Sans', 'Computer Modern Sans Serif', 'Lucida Grande', 'Verdana', 'Geneva', 'Lucid', 'Arial', 'Helvetica', 'Avant Garde', sans-serif; text-anchor: middle" x="348.796621" y="247.730594" transform="rotate(-0 348.796621 247.730594)">2055</text>
     </g>
    </g>
    <g id="xtick_8">
     <g id="line2d_8">
      <g>
       <use xlink:href="#ma8c7302599" x="396.425044" y="233.892" style="stroke: #000000; stroke-width: 0.8"/>
      </g>
     </g>
     <g id="text_8">
      <text style="font: 9px 'DejaVu Sans', 'Bitstream Vera Sans', 'Computer Modern Sans Serif', 'Lucida Grande', 'Verdana', 'Geneva', 'Lucid', 'Arial', 'Helvetica', 'Avant Garde', sans-serif; text-anchor: middle" x="396.425044" y="247.730594" transform="rotate(-0 396.425044 247.730594)">2060</text>
     </g>
    </g>
    <g id="xtick_9">
     <g id="line2d_9">
      <g>
       <use xlink:href="#ma8c7302599" x="444.07955" y="233.892" style="stroke: #000000; stroke-width: 0.8"/>
      </g>
     </g>
     <g id="text_9">
      <text style="font: 9px 'DejaVu Sans', 'Bitstream Vera Sans', 'Computer Modern Sans Serif', 'Lucida Grande', 'Verdana', 'Geneva', 'Lucid', 'Arial', 'Helvetica', 'Avant Garde', sans-serif; text-anchor: middle" x="444.07955" y="247.730594" transform="rotate(-0 444.07955 247.730594)">2065</text>
     </g>
    </g>
   </g>
   <g id="matplotlib.axis_2">
    <g id="ytick_1">
     <g id="line2d_10">
      <path d="M 63 233.892 
L 453.6 233.892 
" clip-path="url(#pd21335dd2a)" style="fill: none; stroke: #b0b0b0; stroke-width: 0.8; stroke-linecap: square"/>
     </g>
     <g id="line2d_11">
      <defs>
       <path id="m4302dc9da4" d="M 0 0 
L -3.5 0 
" style="stroke: #000000; stroke-width: 0.8"/>
      </defs>
      <g>
       <use xlink:href="#m4302dc9da4" x="63" y="233.892" style="stroke: #000000; stroke-width: 0.8"/>
      </g>
     </g>
     <g id="text_10">
      <text style="font: 9px 'DejaVu Sans', 'Bitstream Vera Sans', 'Computer Modern Sans Serif', 'Lucida Grande', 'Verdana', 'Geneva', 'Lucid', 'Arial', 'Helvetica', 'Avant Garde', sans-serif; text-anchor: end" x="56" y="237.311297" transform="rotate(-0 56 237.311297)">0</text>
     </g>
    </g>
    <g id="ytick_2">
     <g id="line2d_12">
      <path d="M 63 208.5975 
L 453.6 208.5975 
" clip-path="url(#pd21335dd2a)" style="fill: none; stroke: #b0b0b0; stroke-width: 0.8; stroke-linecap: square"/>
     </g>
     <g id="line2d_13">
      <g>
       <use xlink:href="#m4302dc9da4" x="63" y="208.5975" style="stroke: #000000; stroke-width: 0.8"/>
      </g>
     </g>
     <g id="text_11">
      <text style="font: 9px 'DejaVu Sans', 'Bitstream Vera Sans', 'Computer Modern Sans Serif', 'Lucida Grande', 'Verdana', 'Geneva', 'Lucid', 'Arial', 'Helvetica', 'Avant Garde', sans-serif; text-anchor: end" x="56" y="212.016797" transform="rotate(-0 56 212.016797)">250</text>
     </g>
    </g>
    <g id="ytick_3">
     <g id="line2d_14">
      <path d="M 63 183.303 
L 453.6 183.303 
" clip-path="url(#pd21335dd2a)" style="fill: none; stroke: #b0b0b0; stroke-width: 0.8; stroke-linecap: square"/>
     </g>
     <g id="line2d_15">
      <g>
       <use xlink:href="#m4302dc9da4" x="63" y="183.303" style="stroke: #000000; stroke-width: 0.8"/>
      </g>
     </g>
     <g id="text_12">
      <text style="font: 9px 'DejaVu Sans', 'Bitstream Vera Sans', 'Computer Modern Sans Serif', 'Lucida Grande', 'Verdana', 'Geneva', 'Lucid', 'Arial', 'Helvetica', 'Avant Garde', sans-serif; text-anchor: end" x="56" y="186.722297" transform="rotate(-0 56 186.722297)">500</text>
     </g>
    </g>
    <g id="ytick_4">
     <g id="line2d_16">
      <path d="M 63 158.0085 
L 453.6 158.0085 
" clip-path="url(#pd21335dd2a)" style="fill: none; stroke: #b0b0b0; stroke-width: 0.8; stroke-linecap: square"/>
     </g>
     <g id="line2d_17">
      <g>
       <use xlink:href="#m4302dc9da4" x="63" y="158.0085" style="stroke: #000000; stroke-width: 0.8"/>
      </g>
     </g>
     <g id="text_13">
      <text style="font: 9px 'DejaVu Sans', 'Bitstream Vera Sans', 'Computer Modern Sans Serif', 'Lucida Grande', 'Verdana', 'Geneva', 'Lucid', 'Arial', 'Helvetica', 'Avant Garde', sans-serif; text-anchor: end" x="56" y="161.427797" transform="rotate(-0 56 161.427797)">750</text>
     </g>
    </g>
    <g id="ytick_5">
     <g id="line2d_18">
      <path d="M 63 132.714 
L 453.6 132.714 
" clip-path="url(#pd21335dd2a)" style="fill: none; stroke: #b0b0b0; stroke-width: 0.8; stroke-linecap: square"/>
     </g>
     <g id="line2d_19">
      <g>
       <use xlink:href="#m4302dc9da4" x="63" y="132.714" style="stroke: #000000; stroke-width: 0.8"/>
      </g>
     </g>
     <g id="text_14">
      <text style="font: 9px 'DejaVu Sans', 'Bitstream Vera Sans', 'Computer Modern Sans Serif', 'Lucida Grande', 'Verdana', 'Geneva', 'Lucid', 'Arial', 'Helvetica', 'Avant Garde', sans-serif; text-anchor: end" x="56" y="136.133297" transform="rotate(-0 56 136.133297)">1,000</text>
     </g>
    </g>
    <g id="ytick_6">
     <g id="line2d_20">
      <path d="M 63 107.4195 
L 453.6 107.4195 
" clip-path="url(#pd21335dd2a)" style="fill: none; stroke: #b0b0b0; stroke-width: 0.8; stroke-linecap: square"/>
     </g>
     <g id="line2d_21">
      <g>
       <use xlink:href="#m4302dc9da4" x="63" y="107.4195" style="stroke: #000000; stroke-width: 0.8"/>
      </g>
     </g>
     <g id="text_15">
      <text style="font: 9px 'DejaVu Sans', 'Bitstream Vera Sans', 'Computer Modern Sans Serif', 'Lucida Grande', 'Verdana', 'Geneva', 'Lucid', 'Arial', 'Helvetica', 'Avant Garde', sans-serif; text-anchor: end" x="56" y="110.838797" transform="rotate(-0 56 110.838797)">1,250</text>
     </g>
    </g>
    <g id="ytick_7">
     <g id="line2d_22">
      <path d="M 63 82.125 
L 453.6 82.125 
" clip-path="url(#pd21335dd2a)" style="fill: none; stroke: #b0b0b0; stroke-width: 0.8; stroke-linecap: square"/>
     </g>
     <g id="line2d_23">
      <g>
       <use xlink:href="#m4302dc9da4" x="63" y="82.125" style="stroke: #000000; stroke-width: 0.8"/>
      </g>
     </g>
     <g id="text_16">
      <text style="font: 9px 'DejaVu Sans', 'Bitstream Vera Sans', 'Computer Modern Sans Serif', 'Lucida Grande', 'Verdana', 'Geneva', 'Lucid', 'Arial', 'Helvetica', 'Avant Garde', sans-serif; text-anchor: end" x="56" y="85.544297" transform="rotate(-0 56 85.544297)">1,500</text>
     </g>
    </g>
    <g id="ytick_8">
     <g id="line2d_24">
      <path d="M 63 56.8305 
L 453.6 56.8305 
" clip-path="url(#pd21335dd2a)" style="fill: none; stroke: #b0b0b0; stroke-width: 0.8; stroke-linecap: square"/>
     </g>
     <g id="line2d_25">
      <g>
       <use xlink:href="#m4302dc9da4" x="63" y="56.8305" style="stroke: #000000; stroke-width: 0.8"/>
      </g>
     </g>
     <g id="text_17">
      <text style="font: 9px 'DejaVu Sans', 'Bitstream Vera Sans', 'Computer Modern Sans Serif', 'Lucida Grande', 'Verdana', 'Geneva', 'Lucid', 'Arial', 'Helvetica', 'Avant Garde', sans-serif; text-anchor: end" x="56" y="60.249797" transform="rotate(-0 56 60.249797)">1,750</text>
     </g>
    </g>
    <g id="ytick_9">
     <g id="line2d_26">
      <path d="M 63 31.536 
L 453.6 31.536 
" clip-path="url(#pd21335dd2a)" style="fill: none; stroke: #b0b0b0; stroke-width: 0.8; stroke-linecap: square"/>
     </g>
     <g id="line2d_27">
      <g>
       <use xlink:href="#m4302dc9da4" x="63" y="31.536" style="stroke: #000000; stroke-width: 0.8"/>
      </g>
     </g>
     <g id="text_18">
      <text style="font: 9px 'DejaVu Sans', 'Bitstream Vera Sans', 'Computer Modern Sans Serif', 'Lucida Grande', 'Verdana', 'Geneva', 'Lucid', 'Arial', 'Helvetica', 'Avant Garde', sans-serif; text-anchor: end" x="56" y="34.955297" transform="rotate(-0 56 34.955297)">2,000</text>
     </g>
    </g>
    <g id="text_19">
     <!-- Annual Total Precipitation ($mm$) -->
     <g transform="translate(24.134687 212.514) rotate(-90)">
      <text>
       <tspan style="font: 10px 'DejaVu Sans'" x="0 6.84082 13.178711 19.516602 25.854492 31.982422 34.760742 37.939453 44.047852 50.166016 54.086914 60.214844 62.993164 66.171875 72.202148 76.313477 82.46582 87.963867 90.742188 97.089844 99.868164 103.789062 109.916992 113.837891 116.616211 122.734375 129.072266 132.250977 155.634766" y="-0.40625">Annual Total Precipitation ()</tspan>
       <tspan style="font: oblique 10px 'DejaVu Sans'" x="136.152344 145.893555" y="-0.40625">mm</tspan>
      </text>
     </g>
    </g>
   </g>
   <g id="patch_3">
    <path d="M 63 233.892 
L 63 31.536 
" style="fill: none; stroke: #000000; stroke-width: 0.8; stroke-linejoin: miter; stroke-linecap: square"/>
   </g>
   <g id="patch_4">
    <path d="M 453.6 233.892 
L 453.6 31.536 
" style="fill: none; stroke: #000000; stroke-width: 0.8; stroke-linejoin: miter; stroke-linecap: square"/>
   </g>
   <g id="patch_5">
    <path d="M 63 233.892 
L 453.6 233.892 
" style="fill: none; stroke: #000000; stroke-width: 0.8; stroke-linejoin: miter; stroke-linecap: square"/>
   </g>
   <g id="patch_6">
    <path d="M 63 31.536 
L 453.6 31.536 
" style="fill: none; stroke: #000000; stroke-width: 0.8; stroke-linejoin: miter; stroke-linecap: square"/>
   </g>
   <g id="patch_7">
    <path d="M 63 182.232529 
L 77.241577 185.134035 
L 86.762045 179.412927 
L 96.308596 180.531029 
L 105.829064 181.027094 
L 115.349532 179.33235 
L 124.87 180.034915 
L 134.416551 179.153418 
L 143.937019 175.742989 
L 153.457487 178.446567 
L 162.977955 178.252746 
L 172.524506 178.192467 
L 182.044974 179.234482 
L 191.565442 179.923442 
L 201.08591 180.430858 
L 210.632461 178.830449 
L 220.152929 179.222767 
L 229.673397 180.385808 
L 239.193865 176.931454 
L 248.740416 178.857387 
L 258.260884 177.894862 
L 267.781352 177.542604 
L 277.30182 181.583141 
L 286.848371 179.395444 
L 296.368839 177.008832 
L 305.889307 177.313193 
L 315.409775 178.262527 
L 324.956326 179.121515 
L 334.476794 180.421786 
L 343.997262 177.478324 
L 353.51773 180.357395 
L 363.064281 180.422879 
L 372.584749 179.403324 
L 382.105217 179.146674 
L 391.625685 180.370901 
L 401.172236 182.549819 
L 410.692704 180.689336 
L 420.213172 180.146585 
L 429.73364 179.607119 
L 439.280191 180.224475 
L 453.6 177.225805 
L 453.6 86.991289 
L 439.280191 90.558023 
L 429.73364 88.353289 
L 420.213172 89.864635 
L 410.692704 90.626805 
L 401.172236 88.010899 
L 391.625685 88.408127 
L 382.105217 92.147328 
L 372.584749 92.154788 
L 363.064281 89.779464 
L 353.51773 90.421806 
L 343.997262 87.916774 
L 334.476794 87.511802 
L 324.956326 86.524045 
L 315.409775 91.632879 
L 305.889307 87.033862 
L 296.368839 88.614311 
L 286.848371 86.818982 
L 277.30182 86.656964 
L 267.781352 88.269489 
L 258.260884 88.077236 
L 248.740416 88.493928 
L 239.193865 91.398349 
L 229.673397 93.860289 
L 220.152929 90.733356 
L 210.632461 89.499088 
L 201.08591 89.783762 
L 191.565442 90.234209 
L 182.044974 89.103009 
L 172.524506 87.664891 
L 162.977955 94.439198 
L 153.457487 90.012475 
L 143.937019 89.763618 
L 134.416551 93.655908 
L 124.87 91.024625 
L 115.349532 96.13609 
L 105.829064 93.159861 
L 96.308596 91.815437 
L 86.762045 96.451901 
L 77.241577 102.281468 
L 63 97.741414 
z
" clip-path="url(#pd21335dd2a)" style="fill: #9dbcd4; opacity: 0.5; stroke: #9dbcd4; stroke-linejoin: miter"/>
   </g>
   <g id="legend_1">
    <g id="patch_8">
     <path d="M 158.186953 68.076 
L 358.413047 68.076 
Q 360.213047 68.076 360.213047 66.276 
L 360.213047 37.836 
Q 360.213047 36.036 358.413047 36.036 
L 158.186953 36.036 
Q 156.386953 36.036 156.386953 37.836 
L 156.386953 66.276 
Q 156.386953 68.076 158.186953 68.076 
z
" style="fill: #ffffff; stroke: #cccccc; stroke-linejoin: miter"/>
    </g>
    <g id="patch_9">
     <path d="M 159.986953 47.916 
L 177.986953 47.916 
L 177.986953 41.616 
L 159.986953 41.616 
z
" style="fill: #9dbcd4; opacity: 0.5; stroke: #9dbcd4; stroke-linejoin: miter"/>
    </g>
    <g id="text_20">
     <!-- $5^{th}$ to $95^{th}$ envelope -->
     <g transform="translate(185.186953 47.916)">
      <text>
       <tspan style="font: 9px 'DejaVu Sans'" x="0 12.521338 15.382178 18.910986 24.417334 27.278174 33.004248 45.525586 48.386426 53.923535 59.627637 64.953809 70.490918 72.991406 78.497754 84.210645" y="-0.7640625000000014">5 to 95 envelope</tspan>
       <tspan style="font: oblique 6.3px 'DejaVu Sans'" x="5.812207 8.282373 38.816455 41.286621" y="-4.209375000000001">thth</tspan>
      </text>
     </g>
    </g>
    <g id="patch_10">
     <path d="M 159.986953 62.586 
L 177.986953 62.586 
L 177.986953 56.286 
L 159.986953 56.286 
z
" style="fill: #5a7d9a; opacity: 0.5; stroke: #5a7d9a; stroke-linejoin: miter"/>
    </g>
    <g id="text_21">
     <!-- $25^{th}$ to $75^{th}$ envelope -->
     <g transform="translate(185.186953 62.586)">
      <text>
       <tspan style="font: 9px 'DejaVu Sans'" x="0 5.726074 18.247412 21.108252 24.637061 30.143408 33.004248 38.730322 51.25166 54.1125 59.649609 65.353711 70.679883 76.216992 78.71748 84.223828 89.936719" y="-0.7640625000000014">25 to 75 envelope</tspan>
       <tspan style="font: oblique 6.3px 'DejaVu Sans'" x="11.538281 14.008447 44.542529 47.012695" y="-4.209375000000001">thth</tspan>
      </text>
     </g>
    </g>
    <g id="line2d_28">
     <path d="M 298.676953 44.766 
L 307.676953 44.766 
L 316.676953 44.766 
" style="fill: none; stroke: #0165fc; stroke-width: 2; stroke-linecap: square"/>
    </g>
    <g id="text_22">
     <text style="font: 9px 'DejaVu Sans', 'Bitstream Vera Sans', 'Computer Modern Sans Serif', 'Lucida Grande', 'Verdana', 'Geneva', 'Lucid', 'Arial', 'Helvetica', 'Avant Garde', sans-serif; text-anchor: start" x="323.876953" y="47.916" transform="rotate(-0 323.876953 47.916)">Median</text>
    </g>
    <g id="line2d_29">
     <path d="M 298.676953 57.976313 
L 307.676953 57.976313 
L 316.676953 57.976313 
" style="fill: none; stroke-dasharray: 7.4,3.2; stroke-dashoffset: 0; stroke: #00ffff; stroke-width: 2"/>
    </g>
    <g id="text_23">
     <text style="font: 9px 'DejaVu Sans', 'Bitstream Vera Sans', 'Computer Modern Sans Serif', 'Lucida Grande', 'Verdana', 'Geneva', 'Lucid', 'Arial', 'Helvetica', 'Avant Garde', sans-serif; text-anchor: start" x="323.876953" y="61.126313" transform="rotate(-0 323.876953 61.126313)">Mean</text>
    </g>
   </g>
   <g id="patch_11">
    <path d="M 63 160.946126 
L 77.241577 161.928629 
L 86.762045 159.435076 
L 96.308596 157.000506 
L 105.829064 158.466685 
L 115.349532 158.090392 
L 124.87 159.371445 
L 134.416551 158.239121 
L 143.937019 154.753846 
L 153.457487 155.187039 
L 162.977955 156.837277 
L 172.524506 158.740855 
L 182.044974 156.921522 
L 191.565442 157.862822 
L 201.08591 158.792012 
L 210.632461 156.749388 
L 220.152929 158.821036 
L 229.673397 160.44861 
L 239.193865 157.090253 
L 248.740416 156.991205 
L 258.260884 155.190164 
L 267.781352 155.615916 
L 277.30182 157.542102 
L 286.848371 155.845357 
L 296.368839 154.76616 
L 305.889307 156.165633 
L 315.409775 157.109718 
L 324.956326 153.298956 
L 334.476794 155.909686 
L 343.997262 153.851495 
L 353.51773 158.460392 
L 363.064281 157.475383 
L 372.584749 157.285445 
L 382.105217 159.377052 
L 391.625685 158.314652 
L 401.172236 157.12084 
L 410.692704 158.225597 
L 420.213172 158.143803 
L 429.73364 155.903764 
L 439.280191 156.036245 
L 453.6 157.169101 
L 453.6 119.942698 
L 439.280191 118.344266 
L 429.73364 118.608623 
L 420.213172 119.285943 
L 410.692704 121.20189 
L 401.172236 118.618133 
L 391.625685 119.714739 
L 382.105217 122.131092 
L 372.584749 123.482965 
L 363.064281 119.458558 
L 353.51773 121.731469 
L 343.997262 119.907992 
L 334.476794 120.417884 
L 324.956326 116.375581 
L 315.409775 119.261068 
L 305.889307 119.885946 
L 296.368839 118.243953 
L 286.848371 118.430759 
L 277.30182 119.005134 
L 267.781352 119.097284 
L 258.260884 119.787745 
L 248.740416 117.902267 
L 239.193865 119.773764 
L 229.673397 122.499394 
L 220.152929 121.216625 
L 210.632461 119.476146 
L 201.08591 119.683306 
L 191.565442 121.65188 
L 182.044974 118.465835 
L 172.524506 119.809173 
L 162.977955 121.017764 
L 153.457487 120.754259 
L 143.937019 119.015966 
L 134.416551 119.691001 
L 124.87 120.37021 
L 115.349532 121.464123 
L 105.829064 120.715675 
L 96.308596 123.543472 
L 86.762045 125.313728 
L 77.241577 127.664289 
L 63 128.024847 
z
" clip-path="url(#pd21335dd2a)" style="fill: #5a7d9a; opacity: 0.5; stroke: #5a7d9a; stroke-linejoin: miter"/>
   </g>
   <g id="line2d_30">
    <path d="M 67.721109 143.3938 
L 77.241577 144.826533 
L 86.762045 141.116795 
L 96.308596 138.885796 
L 105.829064 139.458992 
L 115.349532 139.497774 
L 124.87 138.76892 
L 134.416551 138.168503 
L 143.937019 136.466732 
L 153.457487 137.284622 
L 162.977955 138.600165 
L 172.524506 137.602909 
L 182.044974 137.004295 
L 191.565442 138.684002 
L 201.08591 138.457346 
L 210.632461 137.065827 
L 220.152929 138.850745 
L 229.673397 140.292679 
L 239.193865 137.588403 
L 248.740416 136.928276 
L 258.260884 136.900073 
L 267.781352 136.183416 
L 277.30182 136.906187 
L 286.848371 136.391565 
L 296.368839 135.139962 
L 305.889307 136.146036 
L 315.409775 137.639412 
L 324.956326 134.794312 
L 334.476794 136.898764 
L 343.997262 135.965331 
L 353.51773 138.861477 
L 363.064281 136.921551 
L 372.584749 138.994249 
L 382.105217 139.289557 
L 391.625685 137.691465 
L 401.172236 137.759956 
L 410.692704 138.011407 
L 420.213172 138.257028 
L 429.73364 136.629306 
L 439.280191 136.940411 
L 448.800659 137.028651 
" clip-path="url(#pd21335dd2a)" style="fill: none; stroke-dasharray: 7.4,3.2; stroke-dashoffset: 0; stroke: #00ffff; stroke-width: 2"/>
   </g>
   <g id="line2d_31">
    <path d="M 67.721109 145.800983 
L 77.241577 145.8777 
L 86.762045 142.685529 
L 96.308596 140.290938 
L 105.829064 141.086047 
L 115.349532 141.419458 
L 124.87 141.159831 
L 134.416551 139.18938 
L 143.937019 138.777591 
L 153.457487 139.331352 
L 162.977955 140.274567 
L 172.524506 139.412164 
L 182.044974 139.161837 
L 191.565442 140.693711 
L 201.08591 139.688316 
L 210.632461 138.934421 
L 220.152929 139.981241 
L 229.673397 142.041804 
L 239.193865 138.999726 
L 248.740416 139.718983 
L 258.260884 139.035538 
L 267.781352 138.335622 
L 277.30182 138.250612 
L 286.848371 137.962559 
L 296.368839 136.177204 
L 305.889307 138.215776 
L 315.409775 139.260298 
L 324.956326 136.370797 
L 334.476794 138.605914 
L 343.997262 137.469434 
L 353.51773 140.202123 
L 363.064281 138.604531 
L 372.584749 141.115955 
L 382.105217 140.674419 
L 391.625685 138.908775 
L 401.172236 138.972561 
L 410.692704 139.95468 
L 420.213172 140.327323 
L 429.73364 137.619466 
L 439.280191 137.215198 
L 448.800659 139.207449 
" clip-path="url(#pd21335dd2a)" style="fill: none; stroke: #0165fc; stroke-width: 2; stroke-linecap: square"/>
   </g>
  </g>
 </g>
 <defs>
  <clipPath id="pd21335dd2a">
   <rect x="63" y="31.536" width="390.6" height="202.356"/>
  </clipPath>
 </defs>
</svg>
