<?xml version="1.0" encoding="utf-8" standalone="no"?>
<!DOCTYPE svg PUBLIC "-//W3C//DTD SVG 1.1//EN"
  "http://www.w3.org/Graphics/SVG/1.1/DTD/svg11.dtd">
<svg xmlns:xlink="http://www.w3.org/1999/xlink" width="504pt" height="324pt" viewBox="0 0 504 324" xmlns="http://www.w3.org/2000/svg" version="1.1">
 <metadata>
  <rdf:RDF xmlns:dc="http://purl.org/dc/elements/1.1/" xmlns:cc="http://creativecommons.org/ns#" xmlns:rdf="http://www.w3.org/1999/02/22-rdf-syntax-ns#">
   <cc:Work>
    <dc:type rdf:resource="http://purl.org/dc/dcmitype/StillImage"/>
    <dc:date>2023-09-28T16:44:23.530167</dc:date>
    <dc:format>image/svg+xml</dc:format>
    <dc:creator>
     <cc:Agent>
      <dc:title>Matplotlib v3.6.2, https://matplotlib.org/</dc:title>
     </cc:Agent>
    </dc:creator>
   </cc:Work>
  </rdf:RDF>
 </metadata>
 <defs>
  <style type="text/css">*{stroke-linejoin: round; stroke-linecap: butt}</style>
 </defs>
 <g id="figure_1">
  <g id="patch_1">
   <path d="M 0 324 
L 504 324 
L 504 0 
L 0 0 
z
" style="fill: #ffffff"/>
  </g>
  <g id="axes_1">
   <g id="patch_2">
    <path d="M 63 288.36 
L 453.6 288.36 
L 453.6 38.88 
L 63 38.88 
z
" style="fill: #ffffff"/>
   </g>
   <g id="patch_3">
    <path d="M 96.050769 288.36 
L 102.06 288.36 
L 102.06 186.168057 
L 96.050769 186.168057 
z
" clip-path="url(#p5436fb0e3a)" style="fill: #03719c; stroke: #03719c; stroke-linejoin: miter"/>
   </g>
   <g id="patch_4">
    <path d="M 126.096923 288.36 
L 132.106154 288.36 
L 132.106154 222.313147 
L 126.096923 222.313147 
z
" clip-path="url(#p5436fb0e3a)" style="fill: #03719c; stroke: #03719c; stroke-linejoin: miter"/>
   </g>
   <g id="patch_5">
    <path d="M 156.143077 288.36 
L 162.152308 288.36 
L 162.152308 186.746373 
L 156.143077 186.746373 
z
" clip-path="url(#p5436fb0e3a)" style="fill: #03719c; stroke: #03719c; stroke-linejoin: miter"/>
   </g>
   <g id="patch_6">
    <path d="M 186.189231 288.36 
L 192.198462 288.36 
L 192.198462 233.31294 
L 186.189231 233.31294 
z
" clip-path="url(#p5436fb0e3a)" style="fill: #03719c; stroke: #03719c; stroke-linejoin: miter"/>
   </g>
   <g id="patch_7">
    <path d="M 216.235385 288.36 
L 222.244615 288.36 
L 222.244615 191.754946 
L 216.235385 191.754946 
z
" clip-path="url(#p5436fb0e3a)" style="fill: #03719c; stroke: #03719c; stroke-linejoin: miter"/>
   </g>
   <g id="patch_8">
    <path d="M 246.281538 288.36 
L 252.290769 288.36 
L 252.290769 223.130794 
L 246.281538 223.130794 
z
" clip-path="url(#p5436fb0e3a)" style="fill: #03719c; stroke: #03719c; stroke-linejoin: miter"/>
   </g>
   <g id="patch_9">
    <path d="M 276.327692 288.36 
L 282.336923 288.36 
L 282.336923 211.425859 
L 276.327692 211.425859 
z
" clip-path="url(#p5436fb0e3a)" style="fill: #03719c; stroke: #03719c; stroke-linejoin: miter"/>
   </g>
   <g id="patch_10">
    <path d="M 306.373846 288.36 
L 312.383077 288.36 
L 312.383077 154.899498 
L 306.373846 154.899498 
z
" clip-path="url(#p5436fb0e3a)" style="fill: #03719c; stroke: #03719c; stroke-linejoin: miter"/>
   </g>
   <g id="patch_11">
    <path d="M 336.42 288.36 
L 342.429231 288.36 
L 342.429231 225.886506 
L 336.42 225.886506 
z
" clip-path="url(#p5436fb0e3a)" style="fill: #03719c; stroke: #03719c; stroke-linejoin: miter"/>
   </g>
   <g id="patch_12">
    <path d="M 366.466154 288.36 
L 372.475385 288.36 
L 372.475385 168.39416 
L 366.466154 168.39416 
z
" clip-path="url(#p5436fb0e3a)" style="fill: #03719c; stroke: #03719c; stroke-linejoin: miter"/>
   </g>
   <g id="patch_13">
    <path d="M 396.512308 288.36 
L 402.521538 288.36 
L 402.521538 222.736124 
L 396.512308 222.736124 
z
" clip-path="url(#p5436fb0e3a)" style="fill: #03719c; stroke: #03719c; stroke-linejoin: miter"/>
   </g>
   <g id="patch_14">
    <path d="M 426.558462 288.36 
L 432.567692 288.36 
L 432.567692 282.588261 
L 426.558462 282.588261 
z
" clip-path="url(#p5436fb0e3a)" style="fill: #03719c; stroke: #03719c; stroke-linejoin: miter"/>
   </g>
   <g id="patch_15">
    <path d="M 90.041538 288.36 
L 96.050769 288.36 
L 96.050769 243.319678 
L 90.041538 243.319678 
z
" clip-path="url(#p5436fb0e3a)" style="fill: #5a7d9a; stroke: #5a7d9a; stroke-linejoin: miter"/>
   </g>
   <g id="patch_16">
    <path d="M 120.087692 288.36 
L 126.096923 288.36 
L 126.096923 237.844921 
L 120.087692 237.844921 
z
" clip-path="url(#p5436fb0e3a)" style="fill: #5a7d9a; stroke: #5a7d9a; stroke-linejoin: miter"/>
   </g>
   <g id="patch_17">
    <path d="M 150.133846 288.36 
L 156.143077 288.36 
L 156.143077 234.164067 
L 150.133846 234.164067 
z
" clip-path="url(#p5436fb0e3a)" style="fill: #5a7d9a; stroke: #5a7d9a; stroke-linejoin: miter"/>
   </g>
   <g id="patch_18">
    <path d="M 180.18 288.36 
L 186.189231 288.36 
L 186.189231 221.938363 
L 180.18 221.938363 
z
" clip-path="url(#p5436fb0e3a)" style="fill: #5a7d9a; stroke: #5a7d9a; stroke-linejoin: miter"/>
   </g>
   <g id="patch_19">
    <path d="M 210.226154 288.36 
L 216.235385 288.36 
L 216.235385 186.456343 
L 210.226154 186.456343 
z
" clip-path="url(#p5436fb0e3a)" style="fill: #5a7d9a; stroke: #5a7d9a; stroke-linejoin: miter"/>
   </g>
   <g id="patch_20">
    <path d="M 240.272308 288.36 
L 246.281538 288.36 
L 246.281538 204.106307 
L 240.272308 204.106307 
z
" clip-path="url(#p5436fb0e3a)" style="fill: #5a7d9a; stroke: #5a7d9a; stroke-linejoin: miter"/>
   </g>
   <g id="patch_21">
    <path d="M 270.318462 288.36 
L 276.327692 288.36 
L 276.327692 228.360197 
L 270.318462 228.360197 
z
" clip-path="url(#p5436fb0e3a)" style="fill: #5a7d9a; stroke: #5a7d9a; stroke-linejoin: miter"/>
   </g>
   <g id="patch_22">
    <path d="M 300.364615 288.36 
L 306.373846 288.36 
L 306.373846 250.874469 
L 300.364615 250.874469 
z
" clip-path="url(#p5436fb0e3a)" style="fill: #5a7d9a; stroke: #5a7d9a; stroke-linejoin: miter"/>
   </g>
   <g id="patch_23">
    <path d="M 330.410769 288.36 
L 336.42 288.36 
L 336.42 180.451525 
L 330.410769 180.451525 
z
" clip-path="url(#p5436fb0e3a)" style="fill: #5a7d9a; stroke: #5a7d9a; stroke-linejoin: miter"/>
   </g>
   <g id="patch_24">
    <path d="M 360.456923 288.36 
L 366.466154 288.36 
L 366.466154 205.988926 
L 360.456923 205.988926 
z
" clip-path="url(#p5436fb0e3a)" style="fill: #5a7d9a; stroke: #5a7d9a; stroke-linejoin: miter"/>
   </g>
   <g id="patch_25">
    <path d="M 390.503077 288.36 
L 396.512308 288.36 
L 396.512308 227.025527 
L 390.503077 227.025527 
z
" clip-path="url(#p5436fb0e3a)" style="fill: #5a7d9a; stroke: #5a7d9a; stroke-linejoin: miter"/>
   </g>
   <g id="patch_26">
    <path d="M 420.549231 288.36 
L 426.558462 288.36 
L 426.558462 241.005448 
L 420.549231 241.005448 
z
" clip-path="url(#p5436fb0e3a)" style="fill: #5a7d9a; stroke: #5a7d9a; stroke-linejoin: miter"/>
   </g>
   <g id="patch_27">
    <path d="M 84.032308 288.36 
L 90.041538 288.36 
L 90.041538 222.063591 
L 84.032308 222.063591 
z
" clip-path="url(#p5436fb0e3a)" style="fill: #030aa7; stroke: #030aa7; stroke-linejoin: miter"/>
   </g>
   <g id="patch_28">
    <path d="M 114.078462 288.36 
L 120.087692 288.36 
L 120.087692 234.37717 
L 114.078462 234.37717 
z
" clip-path="url(#p5436fb0e3a)" style="fill: #030aa7; stroke: #030aa7; stroke-linejoin: miter"/>
   </g>
   <g id="patch_29">
    <path d="M 144.124615 288.36 
L 150.133846 288.36 
L 150.133846 215.743093 
L 144.124615 215.743093 
z
" clip-path="url(#p5436fb0e3a)" style="fill: #030aa7; stroke: #030aa7; stroke-linejoin: miter"/>
   </g>
   <g id="patch_30">
    <path d="M 174.170769 288.36 
L 180.18 288.36 
L 180.18 215.6488 
L 174.170769 215.6488 
z
" clip-path="url(#p5436fb0e3a)" style="fill: #030aa7; stroke: #030aa7; stroke-linejoin: miter"/>
   </g>
   <g id="patch_31">
    <path d="M 204.216923 288.36 
L 210.226154 288.36 
L 210.226154 161.679092 
L 204.216923 161.679092 
z
" clip-path="url(#p5436fb0e3a)" style="fill: #030aa7; stroke: #030aa7; stroke-linejoin: miter"/>
   </g>
   <g id="patch_32">
    <path d="M 234.263077 288.36 
L 240.272308 288.36 
L 240.272308 197.762999 
L 234.263077 197.762999 
z
" clip-path="url(#p5436fb0e3a)" style="fill: #030aa7; stroke: #030aa7; stroke-linejoin: miter"/>
   </g>
   <g id="patch_33">
    <path d="M 264.309231 288.36 
L 270.318462 288.36 
L 270.318462 230.537247 
L 264.309231 230.537247 
z
" clip-path="url(#p5436fb0e3a)" style="fill: #030aa7; stroke: #030aa7; stroke-linejoin: miter"/>
   </g>
   <g id="patch_34">
    <path d="M 294.355385 288.36 
L 300.364615 288.36 
L 300.364615 226.492542 
L 294.355385 226.492542 
z
" clip-path="url(#p5436fb0e3a)" style="fill: #030aa7; stroke: #030aa7; stroke-linejoin: miter"/>
   </g>
   <g id="patch_35">
    <path d="M 324.401538 288.36 
L 330.410769 288.36 
L 330.410769 191.453343 
L 324.401538 191.453343 
z
" clip-path="url(#p5436fb0e3a)" style="fill: #030aa7; stroke: #030aa7; stroke-linejoin: miter"/>
   </g>
   <g id="patch_36">
    <path d="M 354.447692 288.36 
L 360.456923 288.36 
L 360.456923 172.209145 
L 354.447692 172.209145 
z
" clip-path="url(#p5436fb0e3a)" style="fill: #030aa7; stroke: #030aa7; stroke-linejoin: miter"/>
   </g>
   <g id="patch_37">
    <path d="M 384.493846 288.36 
L 390.503077 288.36 
L 390.503077 218.672823 
L 384.493846 218.672823 
z
" clip-path="url(#p5436fb0e3a)" style="fill: #030aa7; stroke: #030aa7; stroke-linejoin: miter"/>
   </g>
   <g id="patch_38">
    <path d="M 414.54 288.36 
L 420.549231 288.36 
L 420.549231 221.793501 
L 414.54 221.793501 
z
" clip-path="url(#p5436fb0e3a)" style="fill: #030aa7; stroke: #030aa7; stroke-linejoin: miter"/>
   </g>
   <g id="matplotlib.axis_1">
    <g id="xtick_1">
     <g id="line2d_1">
      <defs>
       <path id="m50c7294176" d="M 0 0 
L 0 3.5 
" style="stroke: #000000; stroke-width: 0.8"/>
      </defs>
      <g>
       <use xlink:href="#m50c7294176" x="93.046154" y="288.36" style="stroke: #000000; stroke-width: 0.8"/>
      </g>
     </g>
     <g id="text_1">
      <text style="font: 10px 'DejaVu Sans', 'Bitstream Vera Sans', 'Computer Modern Sans Serif', 'Lucida Grande', 'Verdana', 'Geneva', 'Lucid', 'Arial', 'Helvetica', 'Avant Garde', sans-serif; text-anchor: middle" x="93.046154" y="302.958438" transform="rotate(-0 93.046154 302.958438)">Jan</text>
     </g>
    </g>
    <g id="xtick_2">
     <g id="line2d_2">
      <g>
       <use xlink:href="#m50c7294176" x="123.092308" y="288.36" style="stroke: #000000; stroke-width: 0.8"/>
      </g>
     </g>
     <g id="text_2">
      <text style="font: 10px 'DejaVu Sans', 'Bitstream Vera Sans', 'Computer Modern Sans Serif', 'Lucida Grande', 'Verdana', 'Geneva', 'Lucid', 'Arial', 'Helvetica', 'Avant Garde', sans-serif; text-anchor: middle" x="123.092308" y="302.958438" transform="rotate(-0 123.092308 302.958438)">Feb</text>
     </g>
    </g>
    <g id="xtick_3">
     <g id="line2d_3">
      <g>
       <use xlink:href="#m50c7294176" x="153.138462" y="288.36" style="stroke: #000000; stroke-width: 0.8"/>
      </g>
     </g>
     <g id="text_3">
      <text style="font: 10px 'DejaVu Sans', 'Bitstream Vera Sans', 'Computer Modern Sans Serif', 'Lucida Grande', 'Verdana', 'Geneva', 'Lucid', 'Arial', 'Helvetica', 'Avant Garde', sans-serif; text-anchor: middle" x="153.138462" y="302.958438" transform="rotate(-0 153.138462 302.958438)">Mar</text>
     </g>
    </g>
    <g id="xtick_4">
     <g id="line2d_4">
      <g>
       <use xlink:href="#m50c7294176" x="183.184615" y="288.36" style="stroke: #000000; stroke-width: 0.8"/>
      </g>
     </g>
     <g id="text_4">
      <text style="font: 10px 'DejaVu Sans', 'Bitstream Vera Sans', 'Computer Modern Sans Serif', 'Lucida Grande', 'Verdana', 'Geneva', 'Lucid', 'Arial', 'Helvetica', 'Avant Garde', sans-serif; text-anchor: middle" x="183.184615" y="302.958438" transform="rotate(-0 183.184615 302.958438)">Apr</text>
     </g>
    </g>
    <g id="xtick_5">
     <g id="line2d_5">
      <g>
       <use xlink:href="#m50c7294176" x="213.230769" y="288.36" style="stroke: #000000; stroke-width: 0.8"/>
      </g>
     </g>
     <g id="text_5">
      <text style="font: 10px 'DejaVu Sans', 'Bitstream Vera Sans', 'Computer Modern Sans Serif', 'Lucida Grande', 'Verdana', 'Geneva', 'Lucid', 'Arial', 'Helvetica', 'Avant Garde', sans-serif; text-anchor: middle" x="213.230769" y="302.958438" transform="rotate(-0 213.230769 302.958438)">May</text>
     </g>
    </g>
    <g id="xtick_6">
     <g id="line2d_6">
      <g>
       <use xlink:href="#m50c7294176" x="243.276923" y="288.36" style="stroke: #000000; stroke-width: 0.8"/>
      </g>
     </g>
     <g id="text_6">
      <text style="font: 10px 'DejaVu Sans', 'Bitstream Vera Sans', 'Computer Modern Sans Serif', 'Lucida Grande', 'Verdana', 'Geneva', 'Lucid', 'Arial', 'Helvetica', 'Avant Garde', sans-serif; text-anchor: middle" x="243.276923" y="302.958438" transform="rotate(-0 243.276923 302.958438)">Jun</text>
     </g>
    </g>
    <g id="xtick_7">
     <g id="line2d_7">
      <g>
       <use xlink:href="#m50c7294176" x="273.323077" y="288.36" style="stroke: #000000; stroke-width: 0.8"/>
      </g>
     </g>
     <g id="text_7">
      <text style="font: 10px 'DejaVu Sans', 'Bitstream Vera Sans', 'Computer Modern Sans Serif', 'Lucida Grande', 'Verdana', 'Geneva', 'Lucid', 'Arial', 'Helvetica', 'Avant Garde', sans-serif; text-anchor: middle" x="273.323077" y="302.958438" transform="rotate(-0 273.323077 302.958438)">Jul</text>
     </g>
    </g>
    <g id="xtick_8">
     <g id="line2d_8">
      <g>
       <use xlink:href="#m50c7294176" x="303.369231" y="288.36" style="stroke: #000000; stroke-width: 0.8"/>
      </g>
     </g>
     <g id="text_8">
      <text style="font: 10px 'DejaVu Sans', 'Bitstream Vera Sans', 'Computer Modern Sans Serif', 'Lucida Grande', 'Verdana', 'Geneva', 'Lucid', 'Arial', 'Helvetica', 'Avant Garde', sans-serif; text-anchor: middle" x="303.369231" y="302.958438" transform="rotate(-0 303.369231 302.958438)">Aug</text>
     </g>
    </g>
    <g id="xtick_9">
     <g id="line2d_9">
      <g>
       <use xlink:href="#m50c7294176" x="333.415385" y="288.36" style="stroke: #000000; stroke-width: 0.8"/>
      </g>
     </g>
     <g id="text_9">
      <text style="font: 10px 'DejaVu Sans', 'Bitstream Vera Sans', 'Computer Modern Sans Serif', 'Lucida Grande', 'Verdana', 'Geneva', 'Lucid', 'Arial', 'Helvetica', 'Avant Garde', sans-serif; text-anchor: middle" x="333.415385" y="302.958438" transform="rotate(-0 333.415385 302.958438)">Sep</text>
     </g>
    </g>
    <g id="xtick_10">
     <g id="line2d_10">
      <g>
       <use xlink:href="#m50c7294176" x="363.461538" y="288.36" style="stroke: #000000; stroke-width: 0.8"/>
      </g>
     </g>
     <g id="text_10">
      <text style="font: 10px 'DejaVu Sans', 'Bitstream Vera Sans', 'Computer Modern Sans Serif', 'Lucida Grande', 'Verdana', 'Geneva', 'Lucid', 'Arial', 'Helvetica', 'Avant Garde', sans-serif; text-anchor: middle" x="363.461538" y="302.958438" transform="rotate(-0 363.461538 302.958438)">Oct</text>
     </g>
    </g>
    <g id="xtick_11">
     <g id="line2d_11">
      <g>
       <use xlink:href="#m50c7294176" x="393.507692" y="288.36" style="stroke: #000000; stroke-width: 0.8"/>
      </g>
     </g>
     <g id="text_11">
      <text style="font: 10px 'DejaVu Sans', 'Bitstream Vera Sans', 'Computer Modern Sans Serif', 'Lucida Grande', 'Verdana', 'Geneva', 'Lucid', 'Arial', 'Helvetica', 'Avant Garde', sans-serif; text-anchor: middle" x="393.507692" y="302.958438" transform="rotate(-0 393.507692 302.958438)">Nov</text>
     </g>
    </g>
    <g id="xtick_12">
     <g id="line2d_12">
      <g>
       <use xlink:href="#m50c7294176" x="423.553846" y="288.36" style="stroke: #000000; stroke-width: 0.8"/>
      </g>
     </g>
     <g id="text_12">
      <text style="font: 10px 'DejaVu Sans', 'Bitstream Vera Sans', 'Computer Modern Sans Serif', 'Lucida Grande', 'Verdana', 'Geneva', 'Lucid', 'Arial', 'Helvetica', 'Avant Garde', sans-serif; text-anchor: middle" x="423.553846" y="302.958438" transform="rotate(-0 423.553846 302.958438)">Dec</text>
     </g>
    </g>
   </g>
   <g id="matplotlib.axis_2">
    <g id="ytick_1">
     <g id="line2d_13">
      <path d="M 63 288.36 
L 453.6 288.36 
" clip-path="url(#p5436fb0e3a)" style="fill: none; stroke: #b0b0b0; stroke-width: 0.8; stroke-linecap: square"/>
     </g>
     <g id="line2d_14">
      <defs>
       <path id="m45b28af642" d="M 0 0 
L -3.5 0 
" style="stroke: #03719c; stroke-width: 0.8"/>
      </defs>
      <g>
       <use xlink:href="#m45b28af642" x="63" y="288.36" style="fill: #03719c; stroke: #03719c; stroke-width: 0.8"/>
      </g>
     </g>
     <g id="text_13">
      <text style="fill: #03719c; font: 10px 'DejaVu Sans', 'Bitstream Vera Sans', 'Computer Modern Sans Serif', 'Lucida Grande', 'Verdana', 'Geneva', 'Lucid', 'Arial', 'Helvetica', 'Avant Garde', sans-serif; text-anchor: end" x="56" y="292.159219" transform="rotate(-0 56 292.159219)">0</text>
     </g>
    </g>
    <g id="ytick_2">
     <g id="line2d_15">
      <path d="M 63 238.464 
L 453.6 238.464 
" clip-path="url(#p5436fb0e3a)" style="fill: none; stroke: #b0b0b0; stroke-width: 0.8; stroke-linecap: square"/>
     </g>
     <g id="line2d_16">
      <g>
       <use xlink:href="#m45b28af642" x="63" y="238.464" style="fill: #03719c; stroke: #03719c; stroke-width: 0.8"/>
      </g>
     </g>
     <g id="text_14">
      <text style="fill: #03719c; font: 10px 'DejaVu Sans', 'Bitstream Vera Sans', 'Computer Modern Sans Serif', 'Lucida Grande', 'Verdana', 'Geneva', 'Lucid', 'Arial', 'Helvetica', 'Avant Garde', sans-serif; text-anchor: end" x="56" y="242.263219" transform="rotate(-0 56 242.263219)">50</text>
     </g>
    </g>
    <g id="ytick_3">
     <g id="line2d_17">
      <path d="M 63 188.568 
L 453.6 188.568 
" clip-path="url(#p5436fb0e3a)" style="fill: none; stroke: #b0b0b0; stroke-width: 0.8; stroke-linecap: square"/>
     </g>
     <g id="line2d_18">
      <g>
       <use xlink:href="#m45b28af642" x="63" y="188.568" style="fill: #03719c; stroke: #03719c; stroke-width: 0.8"/>
      </g>
     </g>
     <g id="text_15">
      <text style="fill: #03719c; font: 10px 'DejaVu Sans', 'Bitstream Vera Sans', 'Computer Modern Sans Serif', 'Lucida Grande', 'Verdana', 'Geneva', 'Lucid', 'Arial', 'Helvetica', 'Avant Garde', sans-serif; text-anchor: end" x="56" y="192.367219" transform="rotate(-0 56 192.367219)">100</text>
     </g>
    </g>
    <g id="ytick_4">
     <g id="line2d_19">
      <path d="M 63 138.672 
L 453.6 138.672 
" clip-path="url(#p5436fb0e3a)" style="fill: none; stroke: #b0b0b0; stroke-width: 0.8; stroke-linecap: square"/>
     </g>
     <g id="line2d_20">
      <g>
       <use xlink:href="#m45b28af642" x="63" y="138.672" style="fill: #03719c; stroke: #03719c; stroke-width: 0.8"/>
      </g>
     </g>
     <g id="text_16">
      <text style="fill: #03719c; font: 10px 'DejaVu Sans', 'Bitstream Vera Sans', 'Computer Modern Sans Serif', 'Lucida Grande', 'Verdana', 'Geneva', 'Lucid', 'Arial', 'Helvetica', 'Avant Garde', sans-serif; text-anchor: end" x="56" y="142.471219" transform="rotate(-0 56 142.471219)">150</text>
     </g>
    </g>
    <g id="ytick_5">
     <g id="line2d_21">
      <path d="M 63 88.776 
L 453.6 88.776 
" clip-path="url(#p5436fb0e3a)" style="fill: none; stroke: #b0b0b0; stroke-width: 0.8; stroke-linecap: square"/>
     </g>
     <g id="line2d_22">
      <g>
       <use xlink:href="#m45b28af642" x="63" y="88.776" style="fill: #03719c; stroke: #03719c; stroke-width: 0.8"/>
      </g>
     </g>
     <g id="text_17">
      <text style="fill: #03719c; font: 10px 'DejaVu Sans', 'Bitstream Vera Sans', 'Computer Modern Sans Serif', 'Lucida Grande', 'Verdana', 'Geneva', 'Lucid', 'Arial', 'Helvetica', 'Avant Garde', sans-serif; text-anchor: end" x="56" y="92.575219" transform="rotate(-0 56 92.575219)">200</text>
     </g>
    </g>
    <g id="ytick_6">
     <g id="line2d_23">
      <path d="M 63 38.88 
L 453.6 38.88 
" clip-path="url(#p5436fb0e3a)" style="fill: none; stroke: #b0b0b0; stroke-width: 0.8; stroke-linecap: square"/>
     </g>
     <g id="line2d_24">
      <g>
       <use xlink:href="#m45b28af642" x="63" y="38.88" style="fill: #03719c; stroke: #03719c; stroke-width: 0.8"/>
      </g>
     </g>
     <g id="text_18">
      <text style="fill: #03719c; font: 10px 'DejaVu Sans', 'Bitstream Vera Sans', 'Computer Modern Sans Serif', 'Lucida Grande', 'Verdana', 'Geneva', 'Lucid', 'Arial', 'Helvetica', 'Avant Garde', sans-serif; text-anchor: end" x="56" y="42.679219" transform="rotate(-0 56 42.679219)">250</text>
     </g>
    </g>
    <g id="text_19">
     <!-- Monthly Mean Precipitation Depth ($mm$) -->
     <g style="fill: #03719c" transform="translate(30.8125 263.97) rotate(-90)">
      <text>
       <tspan style="font: 10px 'DejaVu Sans'" x="0 8.62793 14.746094 21.083984 25.004883 31.342773 34.121094 40.039062 43.217773 51.845703 57.998047 64.125977 70.463867 73.642578 79.672852 83.78418 89.936523 95.43457 98.212891 104.560547 107.338867 111.259766 117.387695 121.308594 124.086914 130.205078 136.542969 139.72168 147.421875 153.574219 159.921875 163.842773 170.180664 173.359375 196.743164" y="-0.40625">Monthly Mean Precipitation Depth ()</tspan>
       <tspan style="font: oblique 10px 'DejaVu Sans'" x="177.260742 187.001953" y="-0.40625">mm</tspan>
      </text>
     </g>
    </g>
   </g>
   <g id="patch_39">
    <path d="M 63 288.36 
L 63 38.88 
" style="fill: none; stroke: #000000; stroke-width: 0.8; stroke-linejoin: miter; stroke-linecap: square"/>
   </g>
   <g id="patch_40">
    <path d="M 453.6 288.36 
L 453.6 38.88 
" style="fill: none; stroke: #03719c; stroke-width: 0.8; stroke-linejoin: miter; stroke-linecap: square"/>
   </g>
   <g id="patch_41">
    <path d="M 63 288.36 
L 453.6 288.36 
" style="fill: none; stroke: #000000; stroke-width: 0.8; stroke-linejoin: miter; stroke-linecap: square"/>
   </g>
   <g id="patch_42">
    <path d="M 63 38.88 
L 453.6 38.88 
" style="fill: none; stroke: #000000; stroke-width: 0.8; stroke-linejoin: miter; stroke-linecap: square"/>
   </g>
   <g id="legend_1">
    <g id="patch_43">
     <path d="M 91.836563 70.100625 
L 424.763438 70.100625 
Q 425.963437 70.100625 425.963437 68.900625 
L 425.963437 43.08 
Q 425.963437 41.88 424.763438 41.88 
L 91.836563 41.88 
Q 90.636563 41.88 90.636563 43.08 
L 90.636563 68.900625 
Q 90.636563 70.100625 91.836563 70.100625 
z
" style="fill: #ffffff; opacity: 0.8; stroke: #cccccc; stroke-linejoin: miter"/>
    </g>
    <g id="patch_44">
     <path d="M 93.036563 48.839063 
L 105.036563 48.839063 
L 105.036563 44.639063 
L 93.036563 44.639063 
z
" style="fill: #03719c; stroke: #03719c; stroke-linejoin: miter"/>
    </g>
    <g id="text_20">
     <text style="font: 6px 'DejaVu Sans', 'Bitstream Vera Sans', 'Computer Modern Sans Serif', 'Lucida Grande', 'Verdana', 'Geneva', 'Lucid', 'Arial', 'Helvetica', 'Avant Garde', sans-serif; text-anchor: start" x="109.836563" y="48.839063" transform="rotate(-0 109.836563 48.839063)">WG Precip. 2031-2060</text>
    </g>
    <g id="patch_45">
     <path d="M 93.036563 57.645938 
L 105.036563 57.645938 
L 105.036563 53.445937 
L 93.036563 53.445937 
z
" style="fill: #5a7d9a; stroke: #5a7d9a; stroke-linejoin: miter"/>
    </g>
    <g id="text_21">
     <text style="font: 6px 'DejaVu Sans', 'Bitstream Vera Sans', 'Computer Modern Sans Serif', 'Lucida Grande', 'Verdana', 'Geneva', 'Lucid', 'Arial', 'Helvetica', 'Avant Garde', sans-serif; text-anchor: start" x="109.836563" y="57.645938" transform="rotate(-0 109.836563 57.645938)">LOCA2 Precip. 2031-2060</text>
    </g>
    <g id="patch_46">
     <path d="M 93.036563 66.452812 
L 105.036563 66.452812 
L 105.036563 62.252812 
L 93.036563 62.252812 
z
" style="fill: #030aa7; stroke: #030aa7; stroke-linejoin: miter"/>
    </g>
    <g id="text_22">
     <text style="font: 6px 'DejaVu Sans', 'Bitstream Vera Sans', 'Computer Modern Sans Serif', 'Lucida Grande', 'Verdana', 'Geneva', 'Lucid', 'Arial', 'Helvetica', 'Avant Garde', sans-serif; text-anchor: start" x="109.836563" y="66.452812" transform="rotate(-0 109.836563 66.452812)">Obs. Precip. 1991-2020</text>
    </g>
    <g id="line2d_25">
     <path d="M 198.533438 46.739063 
L 204.533438 46.739063 
L 210.533438 46.739063 
" style="fill: none; stroke: #9a0200; stroke-width: 2; stroke-linecap: square"/>
    </g>
    <g id="text_23">
     <text style="font: 6px 'DejaVu Sans', 'Bitstream Vera Sans', 'Computer Modern Sans Serif', 'Lucida Grande', 'Verdana', 'Geneva', 'Lucid', 'Arial', 'Helvetica', 'Avant Garde', sans-serif; text-anchor: start" x="215.333438" y="48.839063" transform="rotate(-0 215.333438 48.839063)">WG Max. Temp. 2031-2060</text>
    </g>
    <g id="line2d_26">
     <path d="M 198.533438 55.545938 
L 204.533438 55.545938 
L 210.533438 55.545938 
" style="fill: none; stroke-dasharray: 7.4,3.2; stroke-dashoffset: 0; stroke: #d9544d; stroke-width: 2"/>
    </g>
    <g id="text_24">
     <text style="font: 6px 'DejaVu Sans', 'Bitstream Vera Sans', 'Computer Modern Sans Serif', 'Lucida Grande', 'Verdana', 'Geneva', 'Lucid', 'Arial', 'Helvetica', 'Avant Garde', sans-serif; text-anchor: start" x="215.333438" y="57.645938" transform="rotate(-0 215.333438 57.645938)">LOCA2 Max. Temp. 2031-2060</text>
    </g>
    <g id="line2d_27">
     <path d="M 198.533438 64.352812 
L 204.533438 64.352812 
L 210.533438 64.352812 
" style="fill: none; stroke-dasharray: 2,3.3; stroke-dashoffset: 0; stroke: #be0119; stroke-width: 2"/>
    </g>
    <g id="text_25">
     <text style="font: 6px 'DejaVu Sans', 'Bitstream Vera Sans', 'Computer Modern Sans Serif', 'Lucida Grande', 'Verdana', 'Geneva', 'Lucid', 'Arial', 'Helvetica', 'Avant Garde', sans-serif; text-anchor: start" x="215.333438" y="66.452812" transform="rotate(-0 215.333438 66.452812)">Obs. Max. Temp. 1991-2020</text>
    </g>
    <g id="line2d_28">
     <path d="M 317.927813 46.739063 
L 323.927813 46.739063 
L 329.927813 46.739063 
" style="fill: none; stroke: #ff9408; stroke-width: 2; stroke-linecap: square"/>
    </g>
    <g id="text_26">
     <text style="font: 6px 'DejaVu Sans', 'Bitstream Vera Sans', 'Computer Modern Sans Serif', 'Lucida Grande', 'Verdana', 'Geneva', 'Lucid', 'Arial', 'Helvetica', 'Avant Garde', sans-serif; text-anchor: start" x="334.727813" y="48.839063" transform="rotate(-0 334.727813 48.839063)">WG Min. Temp. 2031-2060</text>
    </g>
    <g id="line2d_29">
     <path d="M 317.927813 55.545938 
L 323.927813 55.545938 
L 329.927813 55.545938 
" style="fill: none; stroke-dasharray: 7.4,3.2; stroke-dashoffset: 0; stroke: #ffa756; stroke-width: 2"/>
    </g>
    <g id="text_27">
     <text style="font: 6px 'DejaVu Sans', 'Bitstream Vera Sans', 'Computer Modern Sans Serif', 'Lucida Grande', 'Verdana', 'Geneva', 'Lucid', 'Arial', 'Helvetica', 'Avant Garde', sans-serif; text-anchor: start" x="334.727813" y="57.645938" transform="rotate(-0 334.727813 57.645938)">LOCA2 Min. Temp. 2031-2060</text>
    </g>
    <g id="line2d_30">
     <path d="M 317.927813 64.352812 
L 323.927813 64.352812 
L 329.927813 64.352812 
" style="fill: none; stroke-dasharray: 2,3.3; stroke-dashoffset: 0; stroke: #e17701; stroke-width: 2"/>
    </g>
    <g id="text_28">
     <text style="font: 6px 'DejaVu Sans', 'Bitstream Vera Sans', 'Computer Modern Sans Serif', 'Lucida Grande', 'Verdana', 'Geneva', 'Lucid', 'Arial', 'Helvetica', 'Avant Garde', sans-serif; text-anchor: start" x="334.727813" y="66.452812" transform="rotate(-0 334.727813 66.452812)">Obs. Min. Temp. 1991-2020</text>
    </g>
   </g>
  </g>
  <g id="axes_2">
   <g id="matplotlib.axis_3">
    <g id="ytick_7">
     <g id="line2d_31">
      <defs>
       <path id="mf222db3fa5" d="M 0 0 
L 3.5 0 
" style="stroke: #c04e01; stroke-width: 0.8"/>
      </defs>
      <g>
       <use xlink:href="#mf222db3fa5" x="453.6" y="288.36" style="fill: #c04e01; stroke: #c04e01; stroke-width: 0.8"/>
      </g>
     </g>
     <g id="text_29">
      <text style="fill: #c04e01; font: 10px 'DejaVu Sans', 'Bitstream Vera Sans', 'Computer Modern Sans Serif', 'Lucida Grande', 'Verdana', 'Geneva', 'Lucid', 'Arial', 'Helvetica', 'Avant Garde', sans-serif; text-anchor: start" x="460.6" y="292.159219" transform="rotate(-0 460.6 292.159219)">0</text>
     </g>
    </g>
    <g id="ytick_8">
     <g id="line2d_32">
      <g>
       <use xlink:href="#mf222db3fa5" x="453.6" y="238.464" style="fill: #c04e01; stroke: #c04e01; stroke-width: 0.8"/>
      </g>
     </g>
     <g id="text_30">
      <text style="fill: #c04e01; font: 10px 'DejaVu Sans', 'Bitstream Vera Sans', 'Computer Modern Sans Serif', 'Lucida Grande', 'Verdana', 'Geneva', 'Lucid', 'Arial', 'Helvetica', 'Avant Garde', sans-serif; text-anchor: start" x="460.6" y="242.263219" transform="rotate(-0 460.6 242.263219)">10</text>
     </g>
    </g>
    <g id="ytick_9">
     <g id="line2d_33">
      <g>
       <use xlink:href="#mf222db3fa5" x="453.6" y="188.568" style="fill: #c04e01; stroke: #c04e01; stroke-width: 0.8"/>
      </g>
     </g>
     <g id="text_31">
      <text style="fill: #c04e01; font: 10px 'DejaVu Sans', 'Bitstream Vera Sans', 'Computer Modern Sans Serif', 'Lucida Grande', 'Verdana', 'Geneva', 'Lucid', 'Arial', 'Helvetica', 'Avant Garde', sans-serif; text-anchor: start" x="460.6" y="192.367219" transform="rotate(-0 460.6 192.367219)">20</text>
     </g>
    </g>
    <g id="ytick_10">
     <g id="line2d_34">
      <g>
       <use xlink:href="#mf222db3fa5" x="453.6" y="138.672" style="fill: #c04e01; stroke: #c04e01; stroke-width: 0.8"/>
      </g>
     </g>
     <g id="text_32">
      <text style="fill: #c04e01; font: 10px 'DejaVu Sans', 'Bitstream Vera Sans', 'Computer Modern Sans Serif', 'Lucida Grande', 'Verdana', 'Geneva', 'Lucid', 'Arial', 'Helvetica', 'Avant Garde', sans-serif; text-anchor: start" x="460.6" y="142.471219" transform="rotate(-0 460.6 142.471219)">30</text>
     </g>
    </g>
    <g id="ytick_11">
     <g id="line2d_35">
      <g>
       <use xlink:href="#mf222db3fa5" x="453.6" y="88.776" style="fill: #c04e01; stroke: #c04e01; stroke-width: 0.8"/>
      </g>
     </g>
     <g id="text_33">
      <text style="fill: #c04e01; font: 10px 'DejaVu Sans', 'Bitstream Vera Sans', 'Computer Modern Sans Serif', 'Lucida Grande', 'Verdana', 'Geneva', 'Lucid', 'Arial', 'Helvetica', 'Avant Garde', sans-serif; text-anchor: start" x="460.6" y="92.575219" transform="rotate(-0 460.6 92.575219)">40</text>
     </g>
    </g>
    <g id="ytick_12">
     <g id="line2d_36">
      <g>
       <use xlink:href="#mf222db3fa5" x="453.6" y="38.88" style="fill: #c04e01; stroke: #c04e01; stroke-width: 0.8"/>
      </g>
     </g>
     <g id="text_34">
      <text style="fill: #c04e01; font: 10px 'DejaVu Sans', 'Bitstream Vera Sans', 'Computer Modern Sans Serif', 'Lucida Grande', 'Verdana', 'Geneva', 'Lucid', 'Arial', 'Helvetica', 'Avant Garde', sans-serif; text-anchor: start" x="460.6" y="42.679219" transform="rotate(-0 460.6 42.679219)">50</text>
     </g>
    </g>
    <g id="text_35">
     <!-- Monthly Mean Temperature ($ ^{\circ} C$) -->
     <g style="fill: #c04e01" transform="translate(484.925 244.47) rotate(-90)">
      <text>
       <tspan style="font: 10px 'DejaVu Sans'" x="0 8.62793 14.746094 21.083984 25.004883 31.342773 34.121094 40.039062 43.217773 51.845703 57.998047 64.125977 70.463867 73.642578 79.750977 85.90332 95.644531 101.992188 108.144531 112.255859 118.383789 122.304688 128.642578 132.753906 138.90625 142.084961 157.719727" y="-0.40625">Monthly Mean Temperature ()</tspan>
       <tspan style="font: 7px 'DejaVu Sans'" x="146.082031" y="-4.234375">∘</tspan>
       <tspan style="font: oblique 10px 'DejaVu Sans'" x="150.737305" y="-0.40625">C</tspan>
      </text>
     </g>
    </g>
   </g>
   <g id="line2d_37">
    <path d="M 93.046154 177.923026 
L 123.092308 163.933477 
L 153.138462 148.920538 
L 183.184615 128.62129 
L 213.230769 111.161344 
L 243.276923 97.902866 
L 273.323077 87.251068 
L 303.369231 85.264509 
L 333.415385 97.816852 
L 363.461538 126.833691 
L 393.507692 153.191592 
L 423.553846 172.147586 
" clip-path="url(#p5436fb0e3a)" style="fill: none; stroke: #9a0200; stroke-width: 2; stroke-linecap: square"/>
   </g>
   <g id="line2d_38">
    <path d="M 93.046154 196.422217 
L 123.092308 186.855832 
L 153.138462 166.685986 
L 183.184615 146.788132 
L 213.230769 130.41182 
L 243.276923 114.123729 
L 273.323077 105.498747 
L 303.369231 101.640364 
L 333.415385 118.945432 
L 363.461538 140.998579 
L 393.507692 169.700885 
L 423.553846 191.320575 
" clip-path="url(#p5436fb0e3a)" style="fill: none; stroke-dasharray: 7.4,3.2; stroke-dashoffset: 0; stroke: #d9544d; stroke-width: 2"/>
   </g>
   <g id="line2d_39">
    <path d="M 93.046154 207.886997 
L 123.092308 196.530853 
L 153.138462 177.880666 
L 183.184615 158.711884 
L 213.230769 141.792422 
L 243.276923 125.005379 
L 273.323077 116.469133 
L 303.369231 113.053058 
L 333.415385 130.811035 
L 363.461538 154.717286 
L 393.507692 184.427146 
L 423.553846 204.462576 
" clip-path="url(#p5436fb0e3a)" style="fill: none; stroke-dasharray: 2,3.3; stroke-dashoffset: 0; stroke: #be0119; stroke-width: 2"/>
   </g>
   <g id="line2d_40">
    <path d="M 93.046154 263.916798 
L 123.092308 253.215788 
L 153.138462 232.812889 
L 183.184615 214.904878 
L 213.230769 191.447768 
L 243.276923 174.244284 
L 273.323077 168.253991 
L 303.369231 169.65154 
L 333.415385 185.134348 
L 363.461538 209.91948 
L 393.507692 239.211206 
L 423.553846 260.452097 
" clip-path="url(#p5436fb0e3a)" style="fill: none; stroke: #ff9408; stroke-width: 2; stroke-linecap: square"/>
   </g>
   <g id="line2d_41">
    <path d="M 93.046154 265.240383 
L 123.092308 257.278827 
L 153.138462 238.222047 
L 183.184615 215.610015 
L 213.230769 193.068393 
L 243.276923 176.456547 
L 273.323077 170.60658 
L 303.369231 171.378344 
L 333.415385 183.147037 
L 363.461538 211.279475 
L 393.507692 237.77331 
L 423.553846 260.360087 
" clip-path="url(#p5436fb0e3a)" style="fill: none; stroke-dasharray: 7.4,3.2; stroke-dashoffset: 0; stroke: #ffa756; stroke-width: 2"/>
   </g>
   <g id="line2d_42">
    <path d="M 93.046154 273.583428 
L 123.092308 263.242413 
L 153.138462 244.105732 
L 183.184615 225.480769 
L 213.230769 201.650711 
L 243.276923 184.616847 
L 273.323077 179.030384 
L 303.369231 179.932806 
L 333.415385 194.867735 
L 363.461538 220.82833 
L 393.507692 248.379618 
L 423.553846 268.799053 
" clip-path="url(#p5436fb0e3a)" style="fill: none; stroke-dasharray: 2,3.3; stroke-dashoffset: 0; stroke: #e17701; stroke-width: 2"/>
   </g>
   <g id="patch_47">
    <path d="M 63 288.36 
L 63 38.88 
" style="fill: none; stroke: #000000; stroke-width: 0.8; stroke-linejoin: miter; stroke-linecap: square"/>
   </g>
   <g id="patch_48">
    <path d="M 453.6 288.36 
L 453.6 38.88 
" style="fill: none; stroke: #c04e01; stroke-width: 0.8; stroke-linejoin: miter; stroke-linecap: square"/>
   </g>
   <g id="patch_49">
    <path d="M 63 288.36 
L 453.6 288.36 
" style="fill: none; stroke: #000000; stroke-width: 0.8; stroke-linejoin: miter; stroke-linecap: square"/>
   </g>
   <g id="patch_50">
    <path d="M 63 38.88 
L 453.6 38.88 
" style="fill: none; stroke: #000000; stroke-width: 0.8; stroke-linejoin: miter; stroke-linecap: square"/>
   </g>
  </g>
 </g>
 <defs>
  <clipPath id="p5436fb0e3a">
   <rect x="63" y="38.88" width="390.6" height="249.48"/>
  </clipPath>
 </defs>
</svg>
