<?xml version="1.0" encoding="utf-8" standalone="no"?>
<!DOCTYPE svg PUBLIC "-//W3C//DTD SVG 1.1//EN"
  "http://www.w3.org/Graphics/SVG/1.1/DTD/svg11.dtd">
<svg xmlns:xlink="http://www.w3.org/1999/xlink" width="504pt" height="262.8pt" viewBox="0 0 504 262.8" xmlns="http://www.w3.org/2000/svg" version="1.1">
 <metadata>
  <rdf:RDF xmlns:dc="http://purl.org/dc/elements/1.1/" xmlns:cc="http://creativecommons.org/ns#" xmlns:rdf="http://www.w3.org/1999/02/22-rdf-syntax-ns#">
   <cc:Work>
    <dc:type rdf:resource="http://purl.org/dc/dcmitype/StillImage"/>
    <dc:date>2023-10-03T18:31:56.299709</dc:date>
    <dc:format>image/svg+xml</dc:format>
    <dc:creator>
     <cc:Agent>
      <dc:title>Matplotlib v3.6.2, https://matplotlib.org/</dc:title>
     </cc:Agent>
    </dc:creator>
   </cc:Work>
  </rdf:RDF>
 </metadata>
 <defs>
  <style type="text/css">*{stroke-linejoin: round; stroke-linecap: butt}</style>
 </defs>
 <g id="figure_1">
  <g id="patch_1">
   <path d="M 0 262.8 
L 504 262.8 
L 504 0 
L 0 0 
z
" style="fill: #ffffff"/>
  </g>
  <g id="axes_1">
   <g id="patch_2">
    <path d="M 63 233.892 
L 453.6 233.892 
L 453.6 31.536 
L 63 31.536 
z
" style="fill: #ffffff"/>
   </g>
   <g id="matplotlib.axis_1">
    <g id="xtick_1">
     <g id="line2d_1">
      <defs>
       <path id="m849aa2eeb3" d="M 0 0 
L 0 3.5 
" style="stroke: #000000; stroke-width: 0.8"/>
      </defs>
      <g>
       <use xlink:href="#m849aa2eeb3" x="63" y="233.892" style="stroke: #000000; stroke-width: 0.8"/>
      </g>
     </g>
     <g id="text_1">
      <text style="font: 9px 'DejaVu Sans', 'Bitstream Vera Sans', 'Computer Modern Sans Serif', 'Lucida Grande', 'Verdana', 'Geneva', 'Lucid', 'Arial', 'Helvetica', 'Avant Garde', sans-serif; text-anchor: middle" x="63" y="247.730594" transform="rotate(-0 63 247.730594)">2025</text>
     </g>
    </g>
    <g id="xtick_2">
     <g id="line2d_2">
      <g>
       <use xlink:href="#m849aa2eeb3" x="110.628423" y="233.892" style="stroke: #000000; stroke-width: 0.8"/>
      </g>
     </g>
     <g id="text_2">
      <text style="font: 9px 'DejaVu Sans', 'Bitstream Vera Sans', 'Computer Modern Sans Serif', 'Lucida Grande', 'Verdana', 'Geneva', 'Lucid', 'Arial', 'Helvetica', 'Avant Garde', sans-serif; text-anchor: middle" x="110.628423" y="247.730594" transform="rotate(-0 110.628423 247.730594)">2030</text>
     </g>
    </g>
    <g id="xtick_3">
     <g id="line2d_3">
      <g>
       <use xlink:href="#m849aa2eeb3" x="158.256846" y="233.892" style="stroke: #000000; stroke-width: 0.8"/>
      </g>
     </g>
     <g id="text_3">
      <text style="font: 9px 'DejaVu Sans', 'Bitstream Vera Sans', 'Computer Modern Sans Serif', 'Lucida Grande', 'Verdana', 'Geneva', 'Lucid', 'Arial', 'Helvetica', 'Avant Garde', sans-serif; text-anchor: middle" x="158.256846" y="247.730594" transform="rotate(-0 158.256846 247.730594)">2035</text>
     </g>
    </g>
    <g id="xtick_4">
     <g id="line2d_4">
      <g>
       <use xlink:href="#m849aa2eeb3" x="205.885269" y="233.892" style="stroke: #000000; stroke-width: 0.8"/>
      </g>
     </g>
     <g id="text_4">
      <text style="font: 9px 'DejaVu Sans', 'Bitstream Vera Sans', 'Computer Modern Sans Serif', 'Lucida Grande', 'Verdana', 'Geneva', 'Lucid', 'Arial', 'Helvetica', 'Avant Garde', sans-serif; text-anchor: middle" x="205.885269" y="247.730594" transform="rotate(-0 205.885269 247.730594)">2040</text>
     </g>
    </g>
    <g id="xtick_5">
     <g id="line2d_5">
      <g>
       <use xlink:href="#m849aa2eeb3" x="253.539775" y="233.892" style="stroke: #000000; stroke-width: 0.8"/>
      </g>
     </g>
     <g id="text_5">
      <text style="font: 9px 'DejaVu Sans', 'Bitstream Vera Sans', 'Computer Modern Sans Serif', 'Lucida Grande', 'Verdana', 'Geneva', 'Lucid', 'Arial', 'Helvetica', 'Avant Garde', sans-serif; text-anchor: middle" x="253.539775" y="247.730594" transform="rotate(-0 253.539775 247.730594)">2045</text>
     </g>
    </g>
    <g id="xtick_6">
     <g id="line2d_6">
      <g>
       <use xlink:href="#m849aa2eeb3" x="301.168198" y="233.892" style="stroke: #000000; stroke-width: 0.8"/>
      </g>
     </g>
     <g id="text_6">
      <text style="font: 9px 'DejaVu Sans', 'Bitstream Vera Sans', 'Computer Modern Sans Serif', 'Lucida Grande', 'Verdana', 'Geneva', 'Lucid', 'Arial', 'Helvetica', 'Avant Garde', sans-serif; text-anchor: middle" x="301.168198" y="247.730594" transform="rotate(-0 301.168198 247.730594)">2050</text>
     </g>
    </g>
    <g id="xtick_7">
     <g id="line2d_7">
      <g>
       <use xlink:href="#m849aa2eeb3" x="348.796621" y="233.892" style="stroke: #000000; stroke-width: 0.8"/>
      </g>
     </g>
     <g id="text_7">
      <text style="font: 9px 'DejaVu Sans', 'Bitstream Vera Sans', 'Computer Modern Sans Serif', 'Lucida Grande', 'Verdana', 'Geneva', 'Lucid', 'Arial', 'Helvetica', 'Avant Garde', sans-serif; text-anchor: middle" x="348.796621" y="247.730594" transform="rotate(-0 348.796621 247.730594)">2055</text>
     </g>
    </g>
    <g id="xtick_8">
     <g id="line2d_8">
      <g>
       <use xlink:href="#m849aa2eeb3" x="396.425044" y="233.892" style="stroke: #000000; stroke-width: 0.8"/>
      </g>
     </g>
     <g id="text_8">
      <text style="font: 9px 'DejaVu Sans', 'Bitstream Vera Sans', 'Computer Modern Sans Serif', 'Lucida Grande', 'Verdana', 'Geneva', 'Lucid', 'Arial', 'Helvetica', 'Avant Garde', sans-serif; text-anchor: middle" x="396.425044" y="247.730594" transform="rotate(-0 396.425044 247.730594)">2060</text>
     </g>
    </g>
    <g id="xtick_9">
     <g id="line2d_9">
      <g>
       <use xlink:href="#m849aa2eeb3" x="444.07955" y="233.892" style="stroke: #000000; stroke-width: 0.8"/>
      </g>
     </g>
     <g id="text_9">
      <text style="font: 9px 'DejaVu Sans', 'Bitstream Vera Sans', 'Computer Modern Sans Serif', 'Lucida Grande', 'Verdana', 'Geneva', 'Lucid', 'Arial', 'Helvetica', 'Avant Garde', sans-serif; text-anchor: middle" x="444.07955" y="247.730594" transform="rotate(-0 444.07955 247.730594)">2065</text>
     </g>
    </g>
   </g>
   <g id="matplotlib.axis_2">
    <g id="ytick_1">
     <g id="line2d_10">
      <path d="M 63 214.62 
L 453.6 214.62 
" clip-path="url(#p4f6c681219)" style="fill: none; stroke: #b0b0b0; stroke-width: 0.8; stroke-linecap: square"/>
     </g>
     <g id="line2d_11">
      <defs>
       <path id="m6a17ac2ccf" d="M 0 0 
L -3.5 0 
" style="stroke: #000000; stroke-width: 0.8"/>
      </defs>
      <g>
       <use xlink:href="#m6a17ac2ccf" x="63" y="214.62" style="stroke: #000000; stroke-width: 0.8"/>
      </g>
     </g>
     <g id="text_10">
      <text style="font: 9px 'DejaVu Sans', 'Bitstream Vera Sans', 'Computer Modern Sans Serif', 'Lucida Grande', 'Verdana', 'Geneva', 'Lucid', 'Arial', 'Helvetica', 'Avant Garde', sans-serif; text-anchor: end" x="56" y="218.039297" transform="rotate(-0 56 218.039297)">18</text>
     </g>
    </g>
    <g id="ytick_2">
     <g id="line2d_12">
      <path d="M 63 195.348 
L 453.6 195.348 
" clip-path="url(#p4f6c681219)" style="fill: none; stroke: #b0b0b0; stroke-width: 0.8; stroke-linecap: square"/>
     </g>
     <g id="line2d_13">
      <g>
       <use xlink:href="#m6a17ac2ccf" x="63" y="195.348" style="stroke: #000000; stroke-width: 0.8"/>
      </g>
     </g>
     <g id="text_11">
      <text style="font: 9px 'DejaVu Sans', 'Bitstream Vera Sans', 'Computer Modern Sans Serif', 'Lucida Grande', 'Verdana', 'Geneva', 'Lucid', 'Arial', 'Helvetica', 'Avant Garde', sans-serif; text-anchor: end" x="56" y="198.767297" transform="rotate(-0 56 198.767297)">19</text>
     </g>
    </g>
    <g id="ytick_3">
     <g id="line2d_14">
      <path d="M 63 176.076 
L 453.6 176.076 
" clip-path="url(#p4f6c681219)" style="fill: none; stroke: #b0b0b0; stroke-width: 0.8; stroke-linecap: square"/>
     </g>
     <g id="line2d_15">
      <g>
       <use xlink:href="#m6a17ac2ccf" x="63" y="176.076" style="stroke: #000000; stroke-width: 0.8"/>
      </g>
     </g>
     <g id="text_12">
      <text style="font: 9px 'DejaVu Sans', 'Bitstream Vera Sans', 'Computer Modern Sans Serif', 'Lucida Grande', 'Verdana', 'Geneva', 'Lucid', 'Arial', 'Helvetica', 'Avant Garde', sans-serif; text-anchor: end" x="56" y="179.495297" transform="rotate(-0 56 179.495297)">20</text>
     </g>
    </g>
    <g id="ytick_4">
     <g id="line2d_16">
      <path d="M 63 156.804 
L 453.6 156.804 
" clip-path="url(#p4f6c681219)" style="fill: none; stroke: #b0b0b0; stroke-width: 0.8; stroke-linecap: square"/>
     </g>
     <g id="line2d_17">
      <g>
       <use xlink:href="#m6a17ac2ccf" x="63" y="156.804" style="stroke: #000000; stroke-width: 0.8"/>
      </g>
     </g>
     <g id="text_13">
      <text style="font: 9px 'DejaVu Sans', 'Bitstream Vera Sans', 'Computer Modern Sans Serif', 'Lucida Grande', 'Verdana', 'Geneva', 'Lucid', 'Arial', 'Helvetica', 'Avant Garde', sans-serif; text-anchor: end" x="56" y="160.223297" transform="rotate(-0 56 160.223297)">21</text>
     </g>
    </g>
    <g id="ytick_5">
     <g id="line2d_18">
      <path d="M 63 137.532 
L 453.6 137.532 
" clip-path="url(#p4f6c681219)" style="fill: none; stroke: #b0b0b0; stroke-width: 0.8; stroke-linecap: square"/>
     </g>
     <g id="line2d_19">
      <g>
       <use xlink:href="#m6a17ac2ccf" x="63" y="137.532" style="stroke: #000000; stroke-width: 0.8"/>
      </g>
     </g>
     <g id="text_14">
      <text style="font: 9px 'DejaVu Sans', 'Bitstream Vera Sans', 'Computer Modern Sans Serif', 'Lucida Grande', 'Verdana', 'Geneva', 'Lucid', 'Arial', 'Helvetica', 'Avant Garde', sans-serif; text-anchor: end" x="56" y="140.951297" transform="rotate(-0 56 140.951297)">22</text>
     </g>
    </g>
    <g id="ytick_6">
     <g id="line2d_20">
      <path d="M 63 118.26 
L 453.6 118.26 
" clip-path="url(#p4f6c681219)" style="fill: none; stroke: #b0b0b0; stroke-width: 0.8; stroke-linecap: square"/>
     </g>
     <g id="line2d_21">
      <g>
       <use xlink:href="#m6a17ac2ccf" x="63" y="118.26" style="stroke: #000000; stroke-width: 0.8"/>
      </g>
     </g>
     <g id="text_15">
      <text style="font: 9px 'DejaVu Sans', 'Bitstream Vera Sans', 'Computer Modern Sans Serif', 'Lucida Grande', 'Verdana', 'Geneva', 'Lucid', 'Arial', 'Helvetica', 'Avant Garde', sans-serif; text-anchor: end" x="56" y="121.679297" transform="rotate(-0 56 121.679297)">23</text>
     </g>
    </g>
    <g id="ytick_7">
     <g id="line2d_22">
      <path d="M 63 98.988 
L 453.6 98.988 
" clip-path="url(#p4f6c681219)" style="fill: none; stroke: #b0b0b0; stroke-width: 0.8; stroke-linecap: square"/>
     </g>
     <g id="line2d_23">
      <g>
       <use xlink:href="#m6a17ac2ccf" x="63" y="98.988" style="stroke: #000000; stroke-width: 0.8"/>
      </g>
     </g>
     <g id="text_16">
      <text style="font: 9px 'DejaVu Sans', 'Bitstream Vera Sans', 'Computer Modern Sans Serif', 'Lucida Grande', 'Verdana', 'Geneva', 'Lucid', 'Arial', 'Helvetica', 'Avant Garde', sans-serif; text-anchor: end" x="56" y="102.407297" transform="rotate(-0 56 102.407297)">24</text>
     </g>
    </g>
    <g id="ytick_8">
     <g id="line2d_24">
      <path d="M 63 79.716 
L 453.6 79.716 
" clip-path="url(#p4f6c681219)" style="fill: none; stroke: #b0b0b0; stroke-width: 0.8; stroke-linecap: square"/>
     </g>
     <g id="line2d_25">
      <g>
       <use xlink:href="#m6a17ac2ccf" x="63" y="79.716" style="stroke: #000000; stroke-width: 0.8"/>
      </g>
     </g>
     <g id="text_17">
      <text style="font: 9px 'DejaVu Sans', 'Bitstream Vera Sans', 'Computer Modern Sans Serif', 'Lucida Grande', 'Verdana', 'Geneva', 'Lucid', 'Arial', 'Helvetica', 'Avant Garde', sans-serif; text-anchor: end" x="56" y="83.135297" transform="rotate(-0 56 83.135297)">25</text>
     </g>
    </g>
    <g id="ytick_9">
     <g id="line2d_26">
      <path d="M 63 60.444 
L 453.6 60.444 
" clip-path="url(#p4f6c681219)" style="fill: none; stroke: #b0b0b0; stroke-width: 0.8; stroke-linecap: square"/>
     </g>
     <g id="line2d_27">
      <g>
       <use xlink:href="#m6a17ac2ccf" x="63" y="60.444" style="stroke: #000000; stroke-width: 0.8"/>
      </g>
     </g>
     <g id="text_18">
      <text style="font: 9px 'DejaVu Sans', 'Bitstream Vera Sans', 'Computer Modern Sans Serif', 'Lucida Grande', 'Verdana', 'Geneva', 'Lucid', 'Arial', 'Helvetica', 'Avant Garde', sans-serif; text-anchor: end" x="56" y="63.863297" transform="rotate(-0 56 63.863297)">26</text>
     </g>
    </g>
    <g id="text_19">
     <!-- Annual Average Temperature ($^{\circ}C$) -->
     <g transform="translate(38.4475 218.114) rotate(-90)">
      <text>
       <tspan style="font: 10px 'DejaVu Sans'" x="0 6.84082 13.178711 19.516602 25.854492 31.982422 34.760742 37.939453 44.780273 50.698242 56.850586 60.961914 67.089844 73.4375 79.589844 82.768555 88.876953 95.029297 104.770508 111.118164 117.270508 121.381836 127.509766 131.430664 137.768555 141.879883 148.032227 151.210938 166.845703" y="-0.40625">Annual Average Temperature ()</tspan>
       <tspan style="font: 7px 'DejaVu Sans'" x="155.208008" y="-4.234375">∘</tspan>
       <tspan style="font: oblique 10px 'DejaVu Sans'" x="159.863281" y="-0.40625">C</tspan>
      </text>
     </g>
    </g>
   </g>
   <g id="patch_3">
    <path d="M 63 233.892 
L 63 31.536 
" style="fill: none; stroke: #000000; stroke-width: 0.8; stroke-linejoin: miter; stroke-linecap: square"/>
   </g>
   <g id="patch_4">
    <path d="M 453.6 233.892 
L 453.6 31.536 
" style="fill: none; stroke: #000000; stroke-width: 0.8; stroke-linejoin: miter; stroke-linecap: square"/>
   </g>
   <g id="patch_5">
    <path d="M 63 233.892 
L 453.6 233.892 
" style="fill: none; stroke: #000000; stroke-width: 0.8; stroke-linejoin: miter; stroke-linecap: square"/>
   </g>
   <g id="patch_6">
    <path d="M 63 31.536 
L 453.6 31.536 
" style="fill: none; stroke: #000000; stroke-width: 0.8; stroke-linejoin: miter; stroke-linecap: square"/>
   </g>
   <g id="patch_7">
    <path d="M 63 131.965856 
L 77.241577 129.973402 
L 86.762045 131.01668 
L 96.308596 130.973672 
L 105.829064 131.665209 
L 115.349532 131.883296 
L 124.87 131.264799 
L 134.416551 131.667194 
L 143.937019 130.68295 
L 153.457487 131.975156 
L 162.977955 130.156496 
L 172.524506 131.451385 
L 182.044974 130.075811 
L 191.565442 131.744938 
L 201.08591 131.073729 
L 210.632461 131.761626 
L 220.152929 131.120963 
L 229.673397 131.006976 
L 239.193865 130.810318 
L 248.740416 131.677596 
L 258.260884 131.018922 
L 267.781352 132.165307 
L 277.30182 131.568902 
L 286.848371 130.542276 
L 296.368839 131.898331 
L 305.889307 132.165381 
L 315.409775 130.684531 
L 324.956326 130.883872 
L 334.476794 131.222196 
L 343.997262 130.833954 
L 353.51773 132.197177 
L 363.064281 130.825573 
L 372.584749 130.603736 
L 382.105217 130.863066 
L 391.625685 131.466529 
L 401.172236 130.893098 
L 410.692704 131.437858 
L 420.213172 129.690215 
L 429.73364 130.723127 
L 439.280191 131.843965 
L 453.6 131.145555 
L 453.6 97.016388 
L 439.280191 98.757341 
L 429.73364 97.432089 
L 420.213172 98.084221 
L 410.692704 97.956632 
L 401.172236 99.14437 
L 391.625685 98.75304 
L 382.105217 97.540453 
L 372.584749 97.807466 
L 363.064281 96.668838 
L 353.51773 98.737418 
L 343.997262 97.8436 
L 334.476794 97.045023 
L 324.956326 98.393984 
L 315.409775 97.910684 
L 305.889307 96.381093 
L 296.368839 97.458445 
L 286.848371 98.438756 
L 277.30182 98.496393 
L 267.781352 97.186102 
L 258.260884 98.77958 
L 248.740416 99.355143 
L 239.193865 98.514552 
L 229.673397 97.887196 
L 220.152929 98.478859 
L 210.632461 98.879048 
L 201.08591 96.751544 
L 191.565442 98.463862 
L 182.044974 97.751557 
L 172.524506 97.392574 
L 162.977955 96.741583 
L 153.457487 97.8529 
L 143.937019 98.611079 
L 134.416551 98.958189 
L 124.87 98.368143 
L 115.349532 97.128906 
L 105.829064 98.757231 
L 96.308596 97.633636 
L 86.762045 98.035883 
L 77.241577 96.667772 
L 63 96.673175 
z
" clip-path="url(#p4f6c681219)" style="fill: #ffa756; opacity: 0.5; stroke: #ffa756; stroke-linejoin: miter"/>
   </g>
   <g id="legend_1">
    <g id="patch_8">
     <path d="M 69.3 68.076 
L 269.526094 68.076 
Q 271.326094 68.076 271.326094 66.276 
L 271.326094 37.836 
Q 271.326094 36.036 269.526094 36.036 
L 69.3 36.036 
Q 67.5 36.036 67.5 37.836 
L 67.5 66.276 
Q 67.5 68.076 69.3 68.076 
z
" style="fill: #ffffff; stroke: #cccccc; stroke-linejoin: miter"/>
    </g>
    <g id="patch_9">
     <path d="M 71.1 47.916 
L 89.1 47.916 
L 89.1 41.616 
L 71.1 41.616 
z
" style="fill: #ffa756; opacity: 0.5; stroke: #ffa756; stroke-linejoin: miter"/>
    </g>
    <g id="text_20">
     <!-- $5^{th}$ to $95^{th}$ envelope -->
     <g transform="translate(96.3 47.916)">
      <text>
       <tspan style="font: 9px 'DejaVu Sans'" x="0 12.521338 15.382178 18.910986 24.417334 27.278174 33.004248 45.525586 48.386426 53.923535 59.627637 64.953809 70.490918 72.991406 78.497754 84.210645" y="-0.7640625000000014">5 to 95 envelope</tspan>
       <tspan style="font: oblique 6.3px 'DejaVu Sans'" x="5.812207 8.282373 38.816455 41.286621" y="-4.209375000000001">thth</tspan>
      </text>
     </g>
    </g>
    <g id="patch_10">
     <path d="M 71.1 62.586 
L 89.1 62.586 
L 89.1 56.286 
L 71.1 56.286 
z
" style="fill: #e17701; opacity: 0.5; stroke: #e17701; stroke-linejoin: miter"/>
    </g>
    <g id="text_21">
     <!-- $25^{th}$ to $75^{th}$ envelope -->
     <g transform="translate(96.3 62.586)">
      <text>
       <tspan style="font: 9px 'DejaVu Sans'" x="0 5.726074 18.247412 21.108252 24.637061 30.143408 33.004248 38.730322 51.25166 54.1125 59.649609 65.353711 70.679883 76.216992 78.71748 84.223828 89.936719" y="-0.7640625000000014">25 to 75 envelope</tspan>
       <tspan style="font: oblique 6.3px 'DejaVu Sans'" x="11.538281 14.008447 44.542529 47.012695" y="-4.209375000000001">thth</tspan>
      </text>
     </g>
    </g>
    <g id="line2d_28">
     <path d="M 209.79 44.766 
L 218.79 44.766 
L 227.79 44.766 
" style="fill: none; stroke: #c04e01; stroke-width: 2; stroke-linecap: square"/>
    </g>
    <g id="text_22">
     <text style="font: 9px 'DejaVu Sans', 'Bitstream Vera Sans', 'Computer Modern Sans Serif', 'Lucida Grande', 'Verdana', 'Geneva', 'Lucid', 'Arial', 'Helvetica', 'Avant Garde', sans-serif; text-anchor: start" x="234.99" y="47.916" transform="rotate(-0 234.99 47.916)">Median</text>
    </g>
    <g id="line2d_29">
     <path d="M 209.79 57.976313 
L 218.79 57.976313 
L 227.79 57.976313 
" style="fill: none; stroke-dasharray: 7.4,3.2; stroke-dashoffset: 0; stroke: #b04e0f; stroke-width: 2"/>
    </g>
    <g id="text_23">
     <text style="font: 9px 'DejaVu Sans', 'Bitstream Vera Sans', 'Computer Modern Sans Serif', 'Lucida Grande', 'Verdana', 'Geneva', 'Lucid', 'Arial', 'Helvetica', 'Avant Garde', sans-serif; text-anchor: start" x="234.99" y="61.126313" transform="rotate(-0 234.99 61.126313)">Mean</text>
    </g>
   </g>
   <g id="patch_11">
    <path d="M 63 122.015093 
L 77.241577 120.290315 
L 86.762045 121.629681 
L 96.308596 122.0309 
L 105.829064 121.759512 
L 115.349532 121.544181 
L 124.87 121.242101 
L 134.416551 122.196018 
L 143.937019 120.94954 
L 153.457487 121.643503 
L 162.977955 120.717668 
L 172.524506 121.172627 
L 182.044974 120.880214 
L 191.565442 121.284115 
L 201.08591 121.898937 
L 210.632461 122.052219 
L 220.152929 120.97755 
L 229.673397 121.62641 
L 239.193865 121.616559 
L 248.740416 121.633247 
L 258.260884 120.985637 
L 267.781352 121.519921 
L 277.30182 121.547343 
L 286.848371 121.321388 
L 296.368839 121.323815 
L 305.889307 120.675764 
L 315.409775 120.32314 
L 324.956326 122.067989 
L 334.476794 121.18836 
L 343.997262 121.088634 
L 353.51773 122.174294 
L 363.064281 120.896167 
L 372.584749 121.372666 
L 382.105217 121.413285 
L 391.625685 121.091906 
L 401.172236 121.692207 
L 410.692704 121.477244 
L 420.213172 120.683042 
L 429.73364 121.191558 
L 439.280191 121.694707 
L 453.6 121.812996 
L 453.6 107.516836 
L 439.280191 108.063949 
L 429.73364 107.797303 
L 420.213172 107.838105 
L 410.692704 108.256269 
L 401.172236 108.334785 
L 391.625685 107.696254 
L 382.105217 107.793407 
L 372.584749 107.237105 
L 363.064281 108.299019 
L 353.51773 108.279868 
L 343.997262 107.095401 
L 334.476794 107.251661 
L 324.956326 108.275751 
L 315.409775 107.106098 
L 305.889307 107.284633 
L 296.368839 107.611305 
L 286.848371 108.341548 
L 277.30182 107.449274 
L 267.781352 107.572047 
L 258.260884 107.759001 
L 248.740416 108.097766 
L 239.193865 107.182996 
L 229.673397 107.758891 
L 220.152929 107.317348 
L 210.632461 107.55183 
L 201.08591 107.620716 
L 191.565442 107.462838 
L 182.044974 107.528709 
L 172.524506 107.92809 
L 162.977955 107.332419 
L 153.457487 107.399283 
L 143.937019 107.637845 
L 134.416551 108.642416 
L 124.87 106.879776 
L 115.349532 106.958182 
L 105.829064 107.96448 
L 96.308596 107.75209 
L 86.762045 108.163601 
L 77.241577 106.772736 
L 63 106.954653 
z
" clip-path="url(#p4f6c681219)" style="fill: #e17701; opacity: 0.5; stroke: #e17701; stroke-linejoin: miter"/>
   </g>
   <g id="line2d_30">
    <path d="M 67.721109 114.434551 
L 77.241577 113.583483 
L 86.762045 114.595443 
L 96.308596 114.73858 
L 105.829064 114.724906 
L 115.349532 114.409776 
L 124.87 114.073951 
L 134.416551 115.337301 
L 143.937019 114.491674 
L 153.457487 114.631429 
L 162.977955 113.852371 
L 172.524506 114.445431 
L 182.044974 114.176801 
L 191.565442 114.445358 
L 201.08591 114.529351 
L 210.632461 115.028126 
L 220.152929 114.372429 
L 229.673397 114.342912 
L 239.193865 114.397609 
L 248.740416 114.97115 
L 258.260884 114.302037 
L 267.781352 114.682707 
L 277.30182 114.625401 
L 286.848371 114.895281 
L 296.368839 114.522992 
L 305.889307 114.190622 
L 315.409775 113.815208 
L 324.956326 114.898589 
L 334.476794 114.270608 
L 343.997262 114.178823 
L 353.51773 115.070251 
L 363.064281 114.401395 
L 372.584749 114.375811 
L 382.105217 114.421759 
L 391.625685 114.570704 
L 401.172236 115.090395 
L 410.692704 114.840879 
L 420.213172 114.163678 
L 429.73364 114.479984 
L 439.280191 114.931488 
L 448.800659 114.424295 
" clip-path="url(#p4f6c681219)" style="fill: none; stroke-dasharray: 7.4,3.2; stroke-dashoffset: 0; stroke: #b04e0f; stroke-width: 2"/>
   </g>
   <g id="line2d_31">
    <path d="M 67.721109 114.329642 
L 77.241577 113.848989 
L 86.762045 114.700314 
L 96.308596 114.833821 
L 105.829064 114.358939 
L 115.349532 114.883004 
L 124.87 113.58477 
L 134.416551 115.393872 
L 143.937019 114.48072 
L 153.457487 114.533321 
L 162.977955 113.987973 
L 172.524506 114.615843 
L 182.044974 114.069062 
L 191.565442 114.225543 
L 201.08591 114.856942 
L 210.632461 115.024009 
L 220.152929 114.164156 
L 229.673397 114.549384 
L 239.193865 114.50351 
L 248.740416 114.813236 
L 258.260884 114.235982 
L 267.781352 114.581621 
L 277.30182 114.32604 
L 286.848371 114.928731 
L 296.368839 114.698256 
L 305.889307 113.836712 
L 315.409775 114.144821 
L 324.956326 114.648191 
L 334.476794 114.178565 
L 343.997262 113.695266 
L 353.51773 114.865874 
L 363.064281 114.607683 
L 372.584749 114.212383 
L 382.105217 114.136955 
L 391.625685 114.647015 
L 401.172236 114.93498 
L 410.692704 115.045108 
L 420.213172 114.374414 
L 429.73364 114.972327 
L 439.280191 114.704505 
L 448.800659 114.474618 
" clip-path="url(#p4f6c681219)" style="fill: none; stroke: #c04e01; stroke-width: 2; stroke-linecap: square"/>
   </g>
  </g>
 </g>
 <defs>
  <clipPath id="p4f6c681219">
   <rect x="63" y="31.536" width="390.6" height="202.356"/>
  </clipPath>
 </defs>
</svg>
