<?xml version="1.0" encoding="utf-8" standalone="no"?>
<!DOCTYPE svg PUBLIC "-//W3C//DTD SVG 1.1//EN"
  "http://www.w3.org/Graphics/SVG/1.1/DTD/svg11.dtd">
<svg xmlns:xlink="http://www.w3.org/1999/xlink" width="504pt" height="262.8pt" viewBox="0 0 504 262.8" xmlns="http://www.w3.org/2000/svg" version="1.1">
 <metadata>
  <rdf:RDF xmlns:dc="http://purl.org/dc/elements/1.1/" xmlns:cc="http://creativecommons.org/ns#" xmlns:rdf="http://www.w3.org/1999/02/22-rdf-syntax-ns#">
   <cc:Work>
    <dc:type rdf:resource="http://purl.org/dc/dcmitype/StillImage"/>
    <dc:date>2023-10-03T18:31:56.902782</dc:date>
    <dc:format>image/svg+xml</dc:format>
    <dc:creator>
     <cc:Agent>
      <dc:title>Matplotlib v3.6.2, https://matplotlib.org/</dc:title>
     </cc:Agent>
    </dc:creator>
   </cc:Work>
  </rdf:RDF>
 </metadata>
 <defs>
  <style type="text/css">*{stroke-linejoin: round; stroke-linecap: butt}</style>
 </defs>
 <g id="figure_1">
  <g id="patch_1">
   <path d="M 0 262.8 
L 504 262.8 
L 504 0 
L 0 0 
z
" style="fill: #ffffff"/>
  </g>
  <g id="axes_1">
   <g id="patch_2">
    <path d="M 63 233.892 
L 453.6 233.892 
L 453.6 31.536 
L 63 31.536 
z
" style="fill: #ffffff"/>
   </g>
   <g id="matplotlib.axis_1">
    <g id="xtick_1">
     <g id="line2d_1">
      <defs>
       <path id="m80d63b6c18" d="M 0 0 
L 0 3.5 
" style="stroke: #000000; stroke-width: 0.8"/>
      </defs>
      <g>
       <use xlink:href="#m80d63b6c18" x="63" y="233.892" style="stroke: #000000; stroke-width: 0.8"/>
      </g>
     </g>
     <g id="text_1">
      <text style="font: 9px 'DejaVu Sans', 'Bitstream Vera Sans', 'Computer Modern Sans Serif', 'Lucida Grande', 'Verdana', 'Geneva', 'Lucid', 'Arial', 'Helvetica', 'Avant Garde', sans-serif; text-anchor: middle" x="63" y="247.730594" transform="rotate(-0 63 247.730594)">2025</text>
     </g>
    </g>
    <g id="xtick_2">
     <g id="line2d_2">
      <g>
       <use xlink:href="#m80d63b6c18" x="110.628423" y="233.892" style="stroke: #000000; stroke-width: 0.8"/>
      </g>
     </g>
     <g id="text_2">
      <text style="font: 9px 'DejaVu Sans', 'Bitstream Vera Sans', 'Computer Modern Sans Serif', 'Lucida Grande', 'Verdana', 'Geneva', 'Lucid', 'Arial', 'Helvetica', 'Avant Garde', sans-serif; text-anchor: middle" x="110.628423" y="247.730594" transform="rotate(-0 110.628423 247.730594)">2030</text>
     </g>
    </g>
    <g id="xtick_3">
     <g id="line2d_3">
      <g>
       <use xlink:href="#m80d63b6c18" x="158.256846" y="233.892" style="stroke: #000000; stroke-width: 0.8"/>
      </g>
     </g>
     <g id="text_3">
      <text style="font: 9px 'DejaVu Sans', 'Bitstream Vera Sans', 'Computer Modern Sans Serif', 'Lucida Grande', 'Verdana', 'Geneva', 'Lucid', 'Arial', 'Helvetica', 'Avant Garde', sans-serif; text-anchor: middle" x="158.256846" y="247.730594" transform="rotate(-0 158.256846 247.730594)">2035</text>
     </g>
    </g>
    <g id="xtick_4">
     <g id="line2d_4">
      <g>
       <use xlink:href="#m80d63b6c18" x="205.885269" y="233.892" style="stroke: #000000; stroke-width: 0.8"/>
      </g>
     </g>
     <g id="text_4">
      <text style="font: 9px 'DejaVu Sans', 'Bitstream Vera Sans', 'Computer Modern Sans Serif', 'Lucida Grande', 'Verdana', 'Geneva', 'Lucid', 'Arial', 'Helvetica', 'Avant Garde', sans-serif; text-anchor: middle" x="205.885269" y="247.730594" transform="rotate(-0 205.885269 247.730594)">2040</text>
     </g>
    </g>
    <g id="xtick_5">
     <g id="line2d_5">
      <g>
       <use xlink:href="#m80d63b6c18" x="253.539775" y="233.892" style="stroke: #000000; stroke-width: 0.8"/>
      </g>
     </g>
     <g id="text_5">
      <text style="font: 9px 'DejaVu Sans', 'Bitstream Vera Sans', 'Computer Modern Sans Serif', 'Lucida Grande', 'Verdana', 'Geneva', 'Lucid', 'Arial', 'Helvetica', 'Avant Garde', sans-serif; text-anchor: middle" x="253.539775" y="247.730594" transform="rotate(-0 253.539775 247.730594)">2045</text>
     </g>
    </g>
    <g id="xtick_6">
     <g id="line2d_6">
      <g>
       <use xlink:href="#m80d63b6c18" x="301.168198" y="233.892" style="stroke: #000000; stroke-width: 0.8"/>
      </g>
     </g>
     <g id="text_6">
      <text style="font: 9px 'DejaVu Sans', 'Bitstream Vera Sans', 'Computer Modern Sans Serif', 'Lucida Grande', 'Verdana', 'Geneva', 'Lucid', 'Arial', 'Helvetica', 'Avant Garde', sans-serif; text-anchor: middle" x="301.168198" y="247.730594" transform="rotate(-0 301.168198 247.730594)">2050</text>
     </g>
    </g>
    <g id="xtick_7">
     <g id="line2d_7">
      <g>
       <use xlink:href="#m80d63b6c18" x="348.796621" y="233.892" style="stroke: #000000; stroke-width: 0.8"/>
      </g>
     </g>
     <g id="text_7">
      <text style="font: 9px 'DejaVu Sans', 'Bitstream Vera Sans', 'Computer Modern Sans Serif', 'Lucida Grande', 'Verdana', 'Geneva', 'Lucid', 'Arial', 'Helvetica', 'Avant Garde', sans-serif; text-anchor: middle" x="348.796621" y="247.730594" transform="rotate(-0 348.796621 247.730594)">2055</text>
     </g>
    </g>
    <g id="xtick_8">
     <g id="line2d_8">
      <g>
       <use xlink:href="#m80d63b6c18" x="396.425044" y="233.892" style="stroke: #000000; stroke-width: 0.8"/>
      </g>
     </g>
     <g id="text_8">
      <text style="font: 9px 'DejaVu Sans', 'Bitstream Vera Sans', 'Computer Modern Sans Serif', 'Lucida Grande', 'Verdana', 'Geneva', 'Lucid', 'Arial', 'Helvetica', 'Avant Garde', sans-serif; text-anchor: middle" x="396.425044" y="247.730594" transform="rotate(-0 396.425044 247.730594)">2060</text>
     </g>
    </g>
    <g id="xtick_9">
     <g id="line2d_9">
      <g>
       <use xlink:href="#m80d63b6c18" x="444.07955" y="233.892" style="stroke: #000000; stroke-width: 0.8"/>
      </g>
     </g>
     <g id="text_9">
      <text style="font: 9px 'DejaVu Sans', 'Bitstream Vera Sans', 'Computer Modern Sans Serif', 'Lucida Grande', 'Verdana', 'Geneva', 'Lucid', 'Arial', 'Helvetica', 'Avant Garde', sans-serif; text-anchor: middle" x="444.07955" y="247.730594" transform="rotate(-0 444.07955 247.730594)">2065</text>
     </g>
    </g>
   </g>
   <g id="matplotlib.axis_2">
    <g id="ytick_1">
     <g id="line2d_10">
      <path d="M 63 233.892 
L 453.6 233.892 
" clip-path="url(#p0ef60f8aea)" style="fill: none; stroke: #b0b0b0; stroke-width: 0.8; stroke-linecap: square"/>
     </g>
     <g id="line2d_11">
      <defs>
       <path id="m715e6805bf" d="M 0 0 
L -3.5 0 
" style="stroke: #000000; stroke-width: 0.8"/>
      </defs>
      <g>
       <use xlink:href="#m715e6805bf" x="63" y="233.892" style="stroke: #000000; stroke-width: 0.8"/>
      </g>
     </g>
     <g id="text_10">
      <text style="font: 9px 'DejaVu Sans', 'Bitstream Vera Sans', 'Computer Modern Sans Serif', 'Lucida Grande', 'Verdana', 'Geneva', 'Lucid', 'Arial', 'Helvetica', 'Avant Garde', sans-serif; text-anchor: end" x="56" y="237.311297" transform="rotate(-0 56 237.311297)">0</text>
     </g>
    </g>
    <g id="ytick_2">
     <g id="line2d_12">
      <path d="M 63 208.5975 
L 453.6 208.5975 
" clip-path="url(#p0ef60f8aea)" style="fill: none; stroke: #b0b0b0; stroke-width: 0.8; stroke-linecap: square"/>
     </g>
     <g id="line2d_13">
      <g>
       <use xlink:href="#m715e6805bf" x="63" y="208.5975" style="stroke: #000000; stroke-width: 0.8"/>
      </g>
     </g>
     <g id="text_11">
      <text style="font: 9px 'DejaVu Sans', 'Bitstream Vera Sans', 'Computer Modern Sans Serif', 'Lucida Grande', 'Verdana', 'Geneva', 'Lucid', 'Arial', 'Helvetica', 'Avant Garde', sans-serif; text-anchor: end" x="56" y="212.016797" transform="rotate(-0 56 212.016797)">250</text>
     </g>
    </g>
    <g id="ytick_3">
     <g id="line2d_14">
      <path d="M 63 183.303 
L 453.6 183.303 
" clip-path="url(#p0ef60f8aea)" style="fill: none; stroke: #b0b0b0; stroke-width: 0.8; stroke-linecap: square"/>
     </g>
     <g id="line2d_15">
      <g>
       <use xlink:href="#m715e6805bf" x="63" y="183.303" style="stroke: #000000; stroke-width: 0.8"/>
      </g>
     </g>
     <g id="text_12">
      <text style="font: 9px 'DejaVu Sans', 'Bitstream Vera Sans', 'Computer Modern Sans Serif', 'Lucida Grande', 'Verdana', 'Geneva', 'Lucid', 'Arial', 'Helvetica', 'Avant Garde', sans-serif; text-anchor: end" x="56" y="186.722297" transform="rotate(-0 56 186.722297)">500</text>
     </g>
    </g>
    <g id="ytick_4">
     <g id="line2d_16">
      <path d="M 63 158.0085 
L 453.6 158.0085 
" clip-path="url(#p0ef60f8aea)" style="fill: none; stroke: #b0b0b0; stroke-width: 0.8; stroke-linecap: square"/>
     </g>
     <g id="line2d_17">
      <g>
       <use xlink:href="#m715e6805bf" x="63" y="158.0085" style="stroke: #000000; stroke-width: 0.8"/>
      </g>
     </g>
     <g id="text_13">
      <text style="font: 9px 'DejaVu Sans', 'Bitstream Vera Sans', 'Computer Modern Sans Serif', 'Lucida Grande', 'Verdana', 'Geneva', 'Lucid', 'Arial', 'Helvetica', 'Avant Garde', sans-serif; text-anchor: end" x="56" y="161.427797" transform="rotate(-0 56 161.427797)">750</text>
     </g>
    </g>
    <g id="ytick_5">
     <g id="line2d_18">
      <path d="M 63 132.714 
L 453.6 132.714 
" clip-path="url(#p0ef60f8aea)" style="fill: none; stroke: #b0b0b0; stroke-width: 0.8; stroke-linecap: square"/>
     </g>
     <g id="line2d_19">
      <g>
       <use xlink:href="#m715e6805bf" x="63" y="132.714" style="stroke: #000000; stroke-width: 0.8"/>
      </g>
     </g>
     <g id="text_14">
      <text style="font: 9px 'DejaVu Sans', 'Bitstream Vera Sans', 'Computer Modern Sans Serif', 'Lucida Grande', 'Verdana', 'Geneva', 'Lucid', 'Arial', 'Helvetica', 'Avant Garde', sans-serif; text-anchor: end" x="56" y="136.133297" transform="rotate(-0 56 136.133297)">1,000</text>
     </g>
    </g>
    <g id="ytick_6">
     <g id="line2d_20">
      <path d="M 63 107.4195 
L 453.6 107.4195 
" clip-path="url(#p0ef60f8aea)" style="fill: none; stroke: #b0b0b0; stroke-width: 0.8; stroke-linecap: square"/>
     </g>
     <g id="line2d_21">
      <g>
       <use xlink:href="#m715e6805bf" x="63" y="107.4195" style="stroke: #000000; stroke-width: 0.8"/>
      </g>
     </g>
     <g id="text_15">
      <text style="font: 9px 'DejaVu Sans', 'Bitstream Vera Sans', 'Computer Modern Sans Serif', 'Lucida Grande', 'Verdana', 'Geneva', 'Lucid', 'Arial', 'Helvetica', 'Avant Garde', sans-serif; text-anchor: end" x="56" y="110.838797" transform="rotate(-0 56 110.838797)">1,250</text>
     </g>
    </g>
    <g id="ytick_7">
     <g id="line2d_22">
      <path d="M 63 82.125 
L 453.6 82.125 
" clip-path="url(#p0ef60f8aea)" style="fill: none; stroke: #b0b0b0; stroke-width: 0.8; stroke-linecap: square"/>
     </g>
     <g id="line2d_23">
      <g>
       <use xlink:href="#m715e6805bf" x="63" y="82.125" style="stroke: #000000; stroke-width: 0.8"/>
      </g>
     </g>
     <g id="text_16">
      <text style="font: 9px 'DejaVu Sans', 'Bitstream Vera Sans', 'Computer Modern Sans Serif', 'Lucida Grande', 'Verdana', 'Geneva', 'Lucid', 'Arial', 'Helvetica', 'Avant Garde', sans-serif; text-anchor: end" x="56" y="85.544297" transform="rotate(-0 56 85.544297)">1,500</text>
     </g>
    </g>
    <g id="ytick_8">
     <g id="line2d_24">
      <path d="M 63 56.8305 
L 453.6 56.8305 
" clip-path="url(#p0ef60f8aea)" style="fill: none; stroke: #b0b0b0; stroke-width: 0.8; stroke-linecap: square"/>
     </g>
     <g id="line2d_25">
      <g>
       <use xlink:href="#m715e6805bf" x="63" y="56.8305" style="stroke: #000000; stroke-width: 0.8"/>
      </g>
     </g>
     <g id="text_17">
      <text style="font: 9px 'DejaVu Sans', 'Bitstream Vera Sans', 'Computer Modern Sans Serif', 'Lucida Grande', 'Verdana', 'Geneva', 'Lucid', 'Arial', 'Helvetica', 'Avant Garde', sans-serif; text-anchor: end" x="56" y="60.249797" transform="rotate(-0 56 60.249797)">1,750</text>
     </g>
    </g>
    <g id="ytick_9">
     <g id="line2d_26">
      <path d="M 63 31.536 
L 453.6 31.536 
" clip-path="url(#p0ef60f8aea)" style="fill: none; stroke: #b0b0b0; stroke-width: 0.8; stroke-linecap: square"/>
     </g>
     <g id="line2d_27">
      <g>
       <use xlink:href="#m715e6805bf" x="63" y="31.536" style="stroke: #000000; stroke-width: 0.8"/>
      </g>
     </g>
     <g id="text_18">
      <text style="font: 9px 'DejaVu Sans', 'Bitstream Vera Sans', 'Computer Modern Sans Serif', 'Lucida Grande', 'Verdana', 'Geneva', 'Lucid', 'Arial', 'Helvetica', 'Avant Garde', sans-serif; text-anchor: end" x="56" y="34.955297" transform="rotate(-0 56 34.955297)">2,000</text>
     </g>
    </g>
    <g id="text_19">
     <!-- Annual Total Precipitation ($mm$) -->
     <g transform="translate(24.134687 212.514) rotate(-90)">
      <text>
       <tspan style="font: 10px 'DejaVu Sans'" x="0 6.84082 13.178711 19.516602 25.854492 31.982422 34.760742 37.939453 44.047852 50.166016 54.086914 60.214844 62.993164 66.171875 72.202148 76.313477 82.46582 87.963867 90.742188 97.089844 99.868164 103.789062 109.916992 113.837891 116.616211 122.734375 129.072266 132.250977 155.634766" y="-0.40625">Annual Total Precipitation ()</tspan>
       <tspan style="font: oblique 10px 'DejaVu Sans'" x="136.152344 145.893555" y="-0.40625">mm</tspan>
      </text>
     </g>
    </g>
   </g>
   <g id="patch_3">
    <path d="M 63 233.892 
L 63 31.536 
" style="fill: none; stroke: #000000; stroke-width: 0.8; stroke-linejoin: miter; stroke-linecap: square"/>
   </g>
   <g id="patch_4">
    <path d="M 453.6 233.892 
L 453.6 31.536 
" style="fill: none; stroke: #000000; stroke-width: 0.8; stroke-linejoin: miter; stroke-linecap: square"/>
   </g>
   <g id="patch_5">
    <path d="M 63 233.892 
L 453.6 233.892 
" style="fill: none; stroke: #000000; stroke-width: 0.8; stroke-linejoin: miter; stroke-linecap: square"/>
   </g>
   <g id="patch_6">
    <path d="M 63 31.536 
L 453.6 31.536 
" style="fill: none; stroke: #000000; stroke-width: 0.8; stroke-linejoin: miter; stroke-linecap: square"/>
   </g>
   <g id="patch_7">
    <path d="M 63 174.475806 
L 77.241577 174.609961 
L 86.762045 172.290883 
L 96.308596 173.304756 
L 105.829064 172.096962 
L 115.349532 172.911394 
L 124.87 171.038836 
L 134.416551 170.893713 
L 143.937019 171.347267 
L 153.457487 171.76302 
L 162.977955 173.066354 
L 172.524506 170.733282 
L 182.044974 171.332063 
L 191.565442 172.63405 
L 201.08591 172.247451 
L 210.632461 173.034934 
L 220.152929 171.500627 
L 229.673397 172.867012 
L 239.193865 171.808113 
L 248.740416 170.722796 
L 258.260884 172.486248 
L 267.781352 170.781204 
L 277.30182 171.872523 
L 286.848371 171.923723 
L 296.368839 173.13463 
L 305.889307 170.888656 
L 315.409775 170.504211 
L 324.956326 173.36194 
L 334.476794 171.576986 
L 343.997262 172.750716 
L 353.51773 172.467888 
L 363.064281 172.468426 
L 372.584749 173.159344 
L 382.105217 171.981513 
L 391.625685 173.147067 
L 401.172236 172.39261 
L 410.692704 171.003512 
L 420.213172 173.301545 
L 429.73364 172.138078 
L 439.280191 171.728345 
L 453.6 173.187454 
L 453.6 111.78043 
L 439.280191 109.436588 
L 429.73364 110.801207 
L 420.213172 109.483521 
L 410.692704 109.544633 
L 401.172236 110.51594 
L 391.625685 114.25151 
L 382.105217 111.598589 
L 372.584749 110.067765 
L 363.064281 113.22896 
L 353.51773 108.427217 
L 343.997262 108.867907 
L 334.476794 109.442307 
L 324.956326 108.295544 
L 315.409775 108.046317 
L 305.889307 111.302539 
L 296.368839 109.583909 
L 286.848371 107.922031 
L 277.30182 106.612917 
L 267.781352 109.371067 
L 258.260884 109.98494 
L 248.740416 108.639416 
L 239.193865 110.584845 
L 229.673397 113.88033 
L 220.152929 110.223274 
L 210.632461 109.535704 
L 201.08591 115.927579 
L 191.565442 112.130144 
L 182.044974 115.056623 
L 172.524506 113.978223 
L 162.977955 111.488419 
L 153.457487 110.253447 
L 143.937019 109.712555 
L 134.416551 112.632477 
L 124.87 113.500592 
L 115.349532 115.201857 
L 105.829064 115.60174 
L 96.308596 113.918494 
L 86.762045 121.441373 
L 77.241577 122.21388 
L 63 125.939113 
z
" clip-path="url(#p0ef60f8aea)" style="fill: #9dbcd4; opacity: 0.5; stroke: #9dbcd4; stroke-linejoin: miter"/>
   </g>
   <g id="legend_1">
    <g id="patch_8">
     <path d="M 158.186953 68.076 
L 358.413047 68.076 
Q 360.213047 68.076 360.213047 66.276 
L 360.213047 37.836 
Q 360.213047 36.036 358.413047 36.036 
L 158.186953 36.036 
Q 156.386953 36.036 156.386953 37.836 
L 156.386953 66.276 
Q 156.386953 68.076 158.186953 68.076 
z
" style="fill: #ffffff; stroke: #cccccc; stroke-linejoin: miter"/>
    </g>
    <g id="patch_9">
     <path d="M 159.986953 47.916 
L 177.986953 47.916 
L 177.986953 41.616 
L 159.986953 41.616 
z
" style="fill: #9dbcd4; opacity: 0.5; stroke: #9dbcd4; stroke-linejoin: miter"/>
    </g>
    <g id="text_20">
     <!-- $5^{th}$ to $95^{th}$ envelope -->
     <g transform="translate(185.186953 47.916)">
      <text>
       <tspan style="font: 9px 'DejaVu Sans'" x="0 12.521338 15.382178 18.910986 24.417334 27.278174 33.004248 45.525586 48.386426 53.923535 59.627637 64.953809 70.490918 72.991406 78.497754 84.210645" y="-0.7640625000000014">5 to 95 envelope</tspan>
       <tspan style="font: oblique 6.3px 'DejaVu Sans'" x="5.812207 8.282373 38.816455 41.286621" y="-4.209375000000001">thth</tspan>
      </text>
     </g>
    </g>
    <g id="patch_10">
     <path d="M 159.986953 62.586 
L 177.986953 62.586 
L 177.986953 56.286 
L 159.986953 56.286 
z
" style="fill: #5a7d9a; opacity: 0.5; stroke: #5a7d9a; stroke-linejoin: miter"/>
    </g>
    <g id="text_21">
     <!-- $25^{th}$ to $75^{th}$ envelope -->
     <g transform="translate(185.186953 62.586)">
      <text>
       <tspan style="font: 9px 'DejaVu Sans'" x="0 5.726074 18.247412 21.108252 24.637061 30.143408 33.004248 38.730322 51.25166 54.1125 59.649609 65.353711 70.679883 76.216992 78.71748 84.223828 89.936719" y="-0.7640625000000014">25 to 75 envelope</tspan>
       <tspan style="font: oblique 6.3px 'DejaVu Sans'" x="11.538281 14.008447 44.542529 47.012695" y="-4.209375000000001">thth</tspan>
      </text>
     </g>
    </g>
    <g id="line2d_28">
     <path d="M 298.676953 44.766 
L 307.676953 44.766 
L 316.676953 44.766 
" style="fill: none; stroke: #0165fc; stroke-width: 2; stroke-linecap: square"/>
    </g>
    <g id="text_22">
     <text style="font: 9px 'DejaVu Sans', 'Bitstream Vera Sans', 'Computer Modern Sans Serif', 'Lucida Grande', 'Verdana', 'Geneva', 'Lucid', 'Arial', 'Helvetica', 'Avant Garde', sans-serif; text-anchor: start" x="323.876953" y="47.916" transform="rotate(-0 323.876953 47.916)">Median</text>
    </g>
    <g id="line2d_29">
     <path d="M 298.676953 57.976313 
L 307.676953 57.976313 
L 316.676953 57.976313 
" style="fill: none; stroke-dasharray: 7.4,3.2; stroke-dashoffset: 0; stroke: #00ffff; stroke-width: 2"/>
    </g>
    <g id="text_23">
     <text style="font: 9px 'DejaVu Sans', 'Bitstream Vera Sans', 'Computer Modern Sans Serif', 'Lucida Grande', 'Verdana', 'Geneva', 'Lucid', 'Arial', 'Helvetica', 'Avant Garde', sans-serif; text-anchor: start" x="323.876953" y="61.126313" transform="rotate(-0 323.876953 61.126313)">Mean</text>
    </g>
   </g>
   <g id="patch_11">
    <path d="M 63 163.13268 
L 77.241577 161.03383 
L 86.762045 159.621278 
L 96.308596 158.596128 
L 105.829064 157.658292 
L 115.349532 159.448242 
L 124.87 157.845086 
L 134.416551 156.508702 
L 143.937019 156.023635 
L 153.457487 158.236743 
L 162.977955 158.620187 
L 172.524506 157.66238 
L 182.044974 157.58089 
L 191.565442 158.74075 
L 201.08591 158.140518 
L 210.632461 158.25212 
L 220.152929 157.637185 
L 229.673397 157.862581 
L 239.193865 158.24613 
L 248.740416 156.634266 
L 258.260884 158.677378 
L 267.781352 157.983996 
L 277.30182 157.113824 
L 286.848371 157.593401 
L 296.368839 156.864998 
L 305.889307 156.739767 
L 315.409775 156.847942 
L 324.956326 157.570675 
L 334.476794 157.648337 
L 343.997262 157.78059 
L 353.51773 158.036444 
L 363.064281 158.091109 
L 372.584749 159.470628 
L 382.105217 157.819557 
L 391.625685 158.864752 
L 401.172236 157.728377 
L 410.692704 156.54878 
L 420.213172 159.338234 
L 429.73364 156.512395 
L 439.280191 156.615691 
L 453.6 158.4634 
L 453.6 133.344992 
L 439.280191 131.604352 
L 429.73364 131.240774 
L 420.213172 133.451981 
L 410.692704 131.953201 
L 401.172236 130.815782 
L 391.625685 134.686872 
L 382.105217 133.10168 
L 372.584749 132.788056 
L 363.064281 133.773448 
L 353.51773 131.384513 
L 343.997262 132.987966 
L 334.476794 131.231758 
L 324.956326 130.21539 
L 315.409775 130.803821 
L 305.889307 130.988638 
L 296.368839 131.712971 
L 286.848371 130.889795 
L 277.30182 130.46106 
L 267.781352 130.537889 
L 258.260884 131.792863 
L 248.740416 131.968522 
L 239.193865 131.94802 
L 229.673397 134.208759 
L 220.152929 133.28614 
L 210.632461 133.854778 
L 201.08591 134.901919 
L 191.565442 134.001821 
L 182.044974 133.746424 
L 172.524506 134.701218 
L 162.977955 134.372605 
L 153.457487 131.712477 
L 143.937019 132.463118 
L 134.416551 132.734762 
L 124.87 133.204161 
L 115.349532 134.667308 
L 105.829064 134.44563 
L 96.308596 134.628749 
L 86.762045 138.016205 
L 77.241577 140.082555 
L 63 142.47294 
z
" clip-path="url(#p0ef60f8aea)" style="fill: #5a7d9a; opacity: 0.5; stroke: #5a7d9a; stroke-linejoin: miter"/>
   </g>
   <g id="line2d_30">
    <path d="M 67.721109 152.284742 
L 77.241577 149.73973 
L 86.762045 148.412226 
L 96.308596 146.063246 
L 105.829064 145.755241 
L 115.349532 146.63722 
L 124.87 144.758085 
L 134.416551 143.893076 
L 143.937019 143.37507 
L 153.457487 144.009995 
L 162.977955 145.332318 
L 172.524506 145.153515 
L 182.044974 144.978677 
L 191.565442 145.640842 
L 201.08591 145.923015 
L 210.632461 145.19355 
L 220.152929 144.31834 
L 229.673397 145.483579 
L 239.193865 144.157544 
L 248.740416 143.248313 
L 258.260884 144.065808 
L 267.781352 143.45409 
L 277.30182 142.808902 
L 286.848371 143.241063 
L 296.368839 143.624736 
L 305.889307 143.241909 
L 315.409775 142.876269 
L 324.956326 143.401457 
L 334.476794 143.690164 
L 343.997262 144.339565 
L 353.51773 143.982206 
L 363.064281 145.244022 
L 372.584749 144.65984 
L 382.105217 144.664571 
L 391.625685 145.523021 
L 401.172236 143.711043 
L 410.692704 143.468386 
L 420.213172 145.468875 
L 429.73364 143.449582 
L 439.280191 143.335461 
L 448.800659 145.034435 
" clip-path="url(#p0ef60f8aea)" style="fill: none; stroke-dasharray: 7.4,3.2; stroke-dashoffset: 0; stroke: #00ffff; stroke-width: 2"/>
   </g>
   <g id="line2d_31">
    <path d="M 67.721109 153.347186 
L 77.241577 150.487079 
L 86.762045 149.864029 
L 96.308596 147.029304 
L 105.829064 147.055809 
L 115.349532 148.809676 
L 124.87 146.54625 
L 134.416551 145.213411 
L 143.937019 145.073266 
L 153.457487 145.462984 
L 162.977955 147.055413 
L 172.524506 146.578622 
L 182.044974 146.223857 
L 191.565442 146.564863 
L 201.08591 147.117909 
L 210.632461 146.84908 
L 220.152929 145.939559 
L 229.673397 146.436452 
L 239.193865 145.642441 
L 248.740416 145.361571 
L 258.260884 145.396302 
L 267.781352 145.729218 
L 277.30182 144.851908 
L 286.848371 145.387397 
L 296.368839 145.125337 
L 305.889307 144.83852 
L 315.409775 144.741701 
L 324.956326 144.960793 
L 334.476794 146.269431 
L 343.997262 146.654345 
L 353.51773 145.549563 
L 363.064281 146.091579 
L 372.584749 146.400949 
L 382.105217 146.001184 
L 391.625685 146.669339 
L 401.172236 145.410085 
L 410.692704 144.99863 
L 420.213172 147.739118 
L 429.73364 144.860788 
L 439.280191 145.572659 
L 448.800659 147.1704 
" clip-path="url(#p0ef60f8aea)" style="fill: none; stroke: #0165fc; stroke-width: 2; stroke-linecap: square"/>
   </g>
  </g>
 </g>
 <defs>
  <clipPath id="p0ef60f8aea">
   <rect x="63" y="31.536" width="390.6" height="202.356"/>
  </clipPath>
 </defs>
</svg>
