<?xml version="1.0" encoding="utf-8" standalone="no"?>
<!DOCTYPE svg PUBLIC "-//W3C//DTD SVG 1.1//EN"
  "http://www.w3.org/Graphics/SVG/1.1/DTD/svg11.dtd">
<svg xmlns:xlink="http://www.w3.org/1999/xlink" width="504pt" height="324pt" viewBox="0 0 504 324" xmlns="http://www.w3.org/2000/svg" version="1.1">
 <metadata>
  <rdf:RDF xmlns:dc="http://purl.org/dc/elements/1.1/" xmlns:cc="http://creativecommons.org/ns#" xmlns:rdf="http://www.w3.org/1999/02/22-rdf-syntax-ns#">
   <cc:Work>
    <dc:type rdf:resource="http://purl.org/dc/dcmitype/StillImage"/>
    <dc:date>2023-10-03T15:42:20.705544</dc:date>
    <dc:format>image/svg+xml</dc:format>
    <dc:creator>
     <cc:Agent>
      <dc:title>Matplotlib v3.6.2, https://matplotlib.org/</dc:title>
     </cc:Agent>
    </dc:creator>
   </cc:Work>
  </rdf:RDF>
 </metadata>
 <defs>
  <style type="text/css">*{stroke-linejoin: round; stroke-linecap: butt}</style>
 </defs>
 <g id="figure_1">
  <g id="patch_1">
   <path d="M 0 324 
L 504 324 
L 504 0 
L 0 0 
z
" style="fill: #ffffff"/>
  </g>
  <g id="axes_1">
   <g id="patch_2">
    <path d="M 63 288.36 
L 453.6 288.36 
L 453.6 38.88 
L 63 38.88 
z
" style="fill: #ffffff"/>
   </g>
   <g id="patch_3">
    <path d="M 96.050769 288.36 
L 102.06 288.36 
L 102.06 198.244829 
L 96.050769 198.244829 
z
" clip-path="url(#p1a8f6ba567)" style="fill: #03719c; stroke: #03719c; stroke-linejoin: miter"/>
   </g>
   <g id="patch_4">
    <path d="M 126.096923 288.36 
L 132.106154 288.36 
L 132.106154 256.375785 
L 126.096923 256.375785 
z
" clip-path="url(#p1a8f6ba567)" style="fill: #03719c; stroke: #03719c; stroke-linejoin: miter"/>
   </g>
   <g id="patch_5">
    <path d="M 156.143077 288.36 
L 162.152308 288.36 
L 162.152308 218.985694 
L 156.143077 218.985694 
z
" clip-path="url(#p1a8f6ba567)" style="fill: #03719c; stroke: #03719c; stroke-linejoin: miter"/>
   </g>
   <g id="patch_6">
    <path d="M 186.189231 288.36 
L 192.198462 288.36 
L 192.198462 212.956391 
L 186.189231 212.956391 
z
" clip-path="url(#p1a8f6ba567)" style="fill: #03719c; stroke: #03719c; stroke-linejoin: miter"/>
   </g>
   <g id="patch_7">
    <path d="M 216.235385 288.36 
L 222.244615 288.36 
L 222.244615 218.300004 
L 216.235385 218.300004 
z
" clip-path="url(#p1a8f6ba567)" style="fill: #03719c; stroke: #03719c; stroke-linejoin: miter"/>
   </g>
   <g id="patch_8">
    <path d="M 246.281538 288.36 
L 252.290769 288.36 
L 252.290769 168.061594 
L 246.281538 168.061594 
z
" clip-path="url(#p1a8f6ba567)" style="fill: #03719c; stroke: #03719c; stroke-linejoin: miter"/>
   </g>
   <g id="patch_9">
    <path d="M 276.327692 288.36 
L 282.336923 288.36 
L 282.336923 219.925956 
L 276.327692 219.925956 
z
" clip-path="url(#p1a8f6ba567)" style="fill: #03719c; stroke: #03719c; stroke-linejoin: miter"/>
   </g>
   <g id="patch_10">
    <path d="M 306.373846 288.36 
L 312.383077 288.36 
L 312.383077 228.138286 
L 306.373846 228.138286 
z
" clip-path="url(#p1a8f6ba567)" style="fill: #03719c; stroke: #03719c; stroke-linejoin: miter"/>
   </g>
   <g id="patch_11">
    <path d="M 336.42 288.36 
L 342.429231 288.36 
L 342.429231 188.350223 
L 336.42 188.350223 
z
" clip-path="url(#p1a8f6ba567)" style="fill: #03719c; stroke: #03719c; stroke-linejoin: miter"/>
   </g>
   <g id="patch_12">
    <path d="M 366.466154 288.36 
L 372.475385 288.36 
L 372.475385 214.690462 
L 366.466154 214.690462 
z
" clip-path="url(#p1a8f6ba567)" style="fill: #03719c; stroke: #03719c; stroke-linejoin: miter"/>
   </g>
   <g id="patch_13">
    <path d="M 396.512308 288.36 
L 402.521538 288.36 
L 402.521538 267.173929 
L 396.512308 267.173929 
z
" clip-path="url(#p1a8f6ba567)" style="fill: #03719c; stroke: #03719c; stroke-linejoin: miter"/>
   </g>
   <g id="patch_14">
    <path d="M 426.558462 288.36 
L 432.567692 288.36 
L 432.567692 262.353282 
L 426.558462 262.353282 
z
" clip-path="url(#p1a8f6ba567)" style="fill: #03719c; stroke: #03719c; stroke-linejoin: miter"/>
   </g>
   <g id="patch_15">
    <path d="M 90.041538 288.36 
L 96.050769 288.36 
L 96.050769 255.63695 
L 90.041538 255.63695 
z
" clip-path="url(#p1a8f6ba567)" style="fill: #5a7d9a; stroke: #5a7d9a; stroke-linejoin: miter"/>
   </g>
   <g id="patch_16">
    <path d="M 120.087692 288.36 
L 126.096923 288.36 
L 126.096923 251.496049 
L 120.087692 251.496049 
z
" clip-path="url(#p1a8f6ba567)" style="fill: #5a7d9a; stroke: #5a7d9a; stroke-linejoin: miter"/>
   </g>
   <g id="patch_17">
    <path d="M 150.133846 288.36 
L 156.143077 288.36 
L 156.143077 245.774313 
L 150.133846 245.774313 
z
" clip-path="url(#p1a8f6ba567)" style="fill: #5a7d9a; stroke: #5a7d9a; stroke-linejoin: miter"/>
   </g>
   <g id="patch_18">
    <path d="M 180.18 288.36 
L 186.189231 288.36 
L 186.189231 232.328401 
L 180.18 232.328401 
z
" clip-path="url(#p1a8f6ba567)" style="fill: #5a7d9a; stroke: #5a7d9a; stroke-linejoin: miter"/>
   </g>
   <g id="patch_19">
    <path d="M 210.226154 288.36 
L 216.235385 288.36 
L 216.235385 197.099359 
L 210.226154 197.099359 
z
" clip-path="url(#p1a8f6ba567)" style="fill: #5a7d9a; stroke: #5a7d9a; stroke-linejoin: miter"/>
   </g>
   <g id="patch_20">
    <path d="M 240.272308 288.36 
L 246.281538 288.36 
L 246.281538 215.839777 
L 240.272308 215.839777 
z
" clip-path="url(#p1a8f6ba567)" style="fill: #5a7d9a; stroke: #5a7d9a; stroke-linejoin: miter"/>
   </g>
   <g id="patch_21">
    <path d="M 270.318462 288.36 
L 276.327692 288.36 
L 276.327692 232.48023 
L 270.318462 232.48023 
z
" clip-path="url(#p1a8f6ba567)" style="fill: #5a7d9a; stroke: #5a7d9a; stroke-linejoin: miter"/>
   </g>
   <g id="patch_22">
    <path d="M 300.364615 288.36 
L 306.373846 288.36 
L 306.373846 236.817876 
L 300.364615 236.817876 
z
" clip-path="url(#p1a8f6ba567)" style="fill: #5a7d9a; stroke: #5a7d9a; stroke-linejoin: miter"/>
   </g>
   <g id="patch_23">
    <path d="M 330.410769 288.36 
L 336.42 288.36 
L 336.42 193.672496 
L 330.410769 193.672496 
z
" clip-path="url(#p1a8f6ba567)" style="fill: #5a7d9a; stroke: #5a7d9a; stroke-linejoin: miter"/>
   </g>
   <g id="patch_24">
    <path d="M 360.456923 288.36 
L 366.466154 288.36 
L 366.466154 219.203981 
L 360.456923 219.203981 
z
" clip-path="url(#p1a8f6ba567)" style="fill: #5a7d9a; stroke: #5a7d9a; stroke-linejoin: miter"/>
   </g>
   <g id="patch_25">
    <path d="M 390.503077 288.36 
L 396.512308 288.36 
L 396.512308 244.0308 
L 390.503077 244.0308 
z
" clip-path="url(#p1a8f6ba567)" style="fill: #5a7d9a; stroke: #5a7d9a; stroke-linejoin: miter"/>
   </g>
   <g id="patch_26">
    <path d="M 420.549231 288.36 
L 426.558462 288.36 
L 426.558462 256.684304 
L 420.549231 256.684304 
z
" clip-path="url(#p1a8f6ba567)" style="fill: #5a7d9a; stroke: #5a7d9a; stroke-linejoin: miter"/>
   </g>
   <g id="patch_27">
    <path d="M 84.032308 288.36 
L 90.041538 288.36 
L 90.041538 246.238582 
L 84.032308 246.238582 
z
" clip-path="url(#p1a8f6ba567)" style="fill: #030aa7; stroke: #030aa7; stroke-linejoin: miter"/>
   </g>
   <g id="patch_28">
    <path d="M 114.078462 288.36 
L 120.087692 288.36 
L 120.087692 249.81057 
L 114.078462 249.81057 
z
" clip-path="url(#p1a8f6ba567)" style="fill: #030aa7; stroke: #030aa7; stroke-linejoin: miter"/>
   </g>
   <g id="patch_29">
    <path d="M 144.124615 288.36 
L 150.133846 288.36 
L 150.133846 226.888963 
L 144.124615 226.888963 
z
" clip-path="url(#p1a8f6ba567)" style="fill: #030aa7; stroke: #030aa7; stroke-linejoin: miter"/>
   </g>
   <g id="patch_30">
    <path d="M 174.170769 288.36 
L 180.18 288.36 
L 180.18 225.709453 
L 174.170769 225.709453 
z
" clip-path="url(#p1a8f6ba567)" style="fill: #030aa7; stroke: #030aa7; stroke-linejoin: miter"/>
   </g>
   <g id="patch_31">
    <path d="M 204.216923 288.36 
L 210.226154 288.36 
L 210.226154 174.633216 
L 204.216923 174.633216 
z
" clip-path="url(#p1a8f6ba567)" style="fill: #030aa7; stroke: #030aa7; stroke-linejoin: miter"/>
   </g>
   <g id="patch_32">
    <path d="M 234.263077 288.36 
L 240.272308 288.36 
L 240.272308 202.132447 
L 234.263077 202.132447 
z
" clip-path="url(#p1a8f6ba567)" style="fill: #030aa7; stroke: #030aa7; stroke-linejoin: miter"/>
   </g>
   <g id="patch_33">
    <path d="M 264.309231 288.36 
L 270.318462 288.36 
L 270.318462 219.561748 
L 264.309231 219.561748 
z
" clip-path="url(#p1a8f6ba567)" style="fill: #030aa7; stroke: #030aa7; stroke-linejoin: miter"/>
   </g>
   <g id="patch_34">
    <path d="M 294.355385 288.36 
L 300.364615 288.36 
L 300.364615 229.252906 
L 294.355385 229.252906 
z
" clip-path="url(#p1a8f6ba567)" style="fill: #030aa7; stroke: #030aa7; stroke-linejoin: miter"/>
   </g>
   <g id="patch_35">
    <path d="M 324.401538 288.36 
L 330.410769 288.36 
L 330.410769 190.751947 
L 324.401538 190.751947 
z
" clip-path="url(#p1a8f6ba567)" style="fill: #030aa7; stroke: #030aa7; stroke-linejoin: miter"/>
   </g>
   <g id="patch_36">
    <path d="M 354.447692 288.36 
L 360.456923 288.36 
L 360.456923 203.378515 
L 354.447692 203.378515 
z
" clip-path="url(#p1a8f6ba567)" style="fill: #030aa7; stroke: #030aa7; stroke-linejoin: miter"/>
   </g>
   <g id="patch_37">
    <path d="M 384.493846 288.36 
L 390.503077 288.36 
L 390.503077 238.497069 
L 384.493846 238.497069 
z
" clip-path="url(#p1a8f6ba567)" style="fill: #030aa7; stroke: #030aa7; stroke-linejoin: miter"/>
   </g>
   <g id="patch_38">
    <path d="M 414.54 288.36 
L 420.549231 288.36 
L 420.549231 246.492051 
L 414.54 246.492051 
z
" clip-path="url(#p1a8f6ba567)" style="fill: #030aa7; stroke: #030aa7; stroke-linejoin: miter"/>
   </g>
   <g id="matplotlib.axis_1">
    <g id="xtick_1">
     <g id="line2d_1">
      <defs>
       <path id="m8a5d686375" d="M 0 0 
L 0 3.5 
" style="stroke: #000000; stroke-width: 0.8"/>
      </defs>
      <g>
       <use xlink:href="#m8a5d686375" x="93.046154" y="288.36" style="stroke: #000000; stroke-width: 0.8"/>
      </g>
     </g>
     <g id="text_1">
      <text style="font: 10px 'DejaVu Sans', 'Bitstream Vera Sans', 'Computer Modern Sans Serif', 'Lucida Grande', 'Verdana', 'Geneva', 'Lucid', 'Arial', 'Helvetica', 'Avant Garde', sans-serif; text-anchor: middle" x="93.046154" y="302.958438" transform="rotate(-0 93.046154 302.958438)">Jan</text>
     </g>
    </g>
    <g id="xtick_2">
     <g id="line2d_2">
      <g>
       <use xlink:href="#m8a5d686375" x="123.092308" y="288.36" style="stroke: #000000; stroke-width: 0.8"/>
      </g>
     </g>
     <g id="text_2">
      <text style="font: 10px 'DejaVu Sans', 'Bitstream Vera Sans', 'Computer Modern Sans Serif', 'Lucida Grande', 'Verdana', 'Geneva', 'Lucid', 'Arial', 'Helvetica', 'Avant Garde', sans-serif; text-anchor: middle" x="123.092308" y="302.958438" transform="rotate(-0 123.092308 302.958438)">Feb</text>
     </g>
    </g>
    <g id="xtick_3">
     <g id="line2d_3">
      <g>
       <use xlink:href="#m8a5d686375" x="153.138462" y="288.36" style="stroke: #000000; stroke-width: 0.8"/>
      </g>
     </g>
     <g id="text_3">
      <text style="font: 10px 'DejaVu Sans', 'Bitstream Vera Sans', 'Computer Modern Sans Serif', 'Lucida Grande', 'Verdana', 'Geneva', 'Lucid', 'Arial', 'Helvetica', 'Avant Garde', sans-serif; text-anchor: middle" x="153.138462" y="302.958438" transform="rotate(-0 153.138462 302.958438)">Mar</text>
     </g>
    </g>
    <g id="xtick_4">
     <g id="line2d_4">
      <g>
       <use xlink:href="#m8a5d686375" x="183.184615" y="288.36" style="stroke: #000000; stroke-width: 0.8"/>
      </g>
     </g>
     <g id="text_4">
      <text style="font: 10px 'DejaVu Sans', 'Bitstream Vera Sans', 'Computer Modern Sans Serif', 'Lucida Grande', 'Verdana', 'Geneva', 'Lucid', 'Arial', 'Helvetica', 'Avant Garde', sans-serif; text-anchor: middle" x="183.184615" y="302.958438" transform="rotate(-0 183.184615 302.958438)">Apr</text>
     </g>
    </g>
    <g id="xtick_5">
     <g id="line2d_5">
      <g>
       <use xlink:href="#m8a5d686375" x="213.230769" y="288.36" style="stroke: #000000; stroke-width: 0.8"/>
      </g>
     </g>
     <g id="text_5">
      <text style="font: 10px 'DejaVu Sans', 'Bitstream Vera Sans', 'Computer Modern Sans Serif', 'Lucida Grande', 'Verdana', 'Geneva', 'Lucid', 'Arial', 'Helvetica', 'Avant Garde', sans-serif; text-anchor: middle" x="213.230769" y="302.958438" transform="rotate(-0 213.230769 302.958438)">May</text>
     </g>
    </g>
    <g id="xtick_6">
     <g id="line2d_6">
      <g>
       <use xlink:href="#m8a5d686375" x="243.276923" y="288.36" style="stroke: #000000; stroke-width: 0.8"/>
      </g>
     </g>
     <g id="text_6">
      <text style="font: 10px 'DejaVu Sans', 'Bitstream Vera Sans', 'Computer Modern Sans Serif', 'Lucida Grande', 'Verdana', 'Geneva', 'Lucid', 'Arial', 'Helvetica', 'Avant Garde', sans-serif; text-anchor: middle" x="243.276923" y="302.958438" transform="rotate(-0 243.276923 302.958438)">Jun</text>
     </g>
    </g>
    <g id="xtick_7">
     <g id="line2d_7">
      <g>
       <use xlink:href="#m8a5d686375" x="273.323077" y="288.36" style="stroke: #000000; stroke-width: 0.8"/>
      </g>
     </g>
     <g id="text_7">
      <text style="font: 10px 'DejaVu Sans', 'Bitstream Vera Sans', 'Computer Modern Sans Serif', 'Lucida Grande', 'Verdana', 'Geneva', 'Lucid', 'Arial', 'Helvetica', 'Avant Garde', sans-serif; text-anchor: middle" x="273.323077" y="302.958438" transform="rotate(-0 273.323077 302.958438)">Jul</text>
     </g>
    </g>
    <g id="xtick_8">
     <g id="line2d_8">
      <g>
       <use xlink:href="#m8a5d686375" x="303.369231" y="288.36" style="stroke: #000000; stroke-width: 0.8"/>
      </g>
     </g>
     <g id="text_8">
      <text style="font: 10px 'DejaVu Sans', 'Bitstream Vera Sans', 'Computer Modern Sans Serif', 'Lucida Grande', 'Verdana', 'Geneva', 'Lucid', 'Arial', 'Helvetica', 'Avant Garde', sans-serif; text-anchor: middle" x="303.369231" y="302.958438" transform="rotate(-0 303.369231 302.958438)">Aug</text>
     </g>
    </g>
    <g id="xtick_9">
     <g id="line2d_9">
      <g>
       <use xlink:href="#m8a5d686375" x="333.415385" y="288.36" style="stroke: #000000; stroke-width: 0.8"/>
      </g>
     </g>
     <g id="text_9">
      <text style="font: 10px 'DejaVu Sans', 'Bitstream Vera Sans', 'Computer Modern Sans Serif', 'Lucida Grande', 'Verdana', 'Geneva', 'Lucid', 'Arial', 'Helvetica', 'Avant Garde', sans-serif; text-anchor: middle" x="333.415385" y="302.958438" transform="rotate(-0 333.415385 302.958438)">Sep</text>
     </g>
    </g>
    <g id="xtick_10">
     <g id="line2d_10">
      <g>
       <use xlink:href="#m8a5d686375" x="363.461538" y="288.36" style="stroke: #000000; stroke-width: 0.8"/>
      </g>
     </g>
     <g id="text_10">
      <text style="font: 10px 'DejaVu Sans', 'Bitstream Vera Sans', 'Computer Modern Sans Serif', 'Lucida Grande', 'Verdana', 'Geneva', 'Lucid', 'Arial', 'Helvetica', 'Avant Garde', sans-serif; text-anchor: middle" x="363.461538" y="302.958438" transform="rotate(-0 363.461538 302.958438)">Oct</text>
     </g>
    </g>
    <g id="xtick_11">
     <g id="line2d_11">
      <g>
       <use xlink:href="#m8a5d686375" x="393.507692" y="288.36" style="stroke: #000000; stroke-width: 0.8"/>
      </g>
     </g>
     <g id="text_11">
      <text style="font: 10px 'DejaVu Sans', 'Bitstream Vera Sans', 'Computer Modern Sans Serif', 'Lucida Grande', 'Verdana', 'Geneva', 'Lucid', 'Arial', 'Helvetica', 'Avant Garde', sans-serif; text-anchor: middle" x="393.507692" y="302.958438" transform="rotate(-0 393.507692 302.958438)">Nov</text>
     </g>
    </g>
    <g id="xtick_12">
     <g id="line2d_12">
      <g>
       <use xlink:href="#m8a5d686375" x="423.553846" y="288.36" style="stroke: #000000; stroke-width: 0.8"/>
      </g>
     </g>
     <g id="text_12">
      <text style="font: 10px 'DejaVu Sans', 'Bitstream Vera Sans', 'Computer Modern Sans Serif', 'Lucida Grande', 'Verdana', 'Geneva', 'Lucid', 'Arial', 'Helvetica', 'Avant Garde', sans-serif; text-anchor: middle" x="423.553846" y="302.958438" transform="rotate(-0 423.553846 302.958438)">Dec</text>
     </g>
    </g>
   </g>
   <g id="matplotlib.axis_2">
    <g id="ytick_1">
     <g id="line2d_13">
      <path d="M 63 288.36 
L 453.6 288.36 
" clip-path="url(#p1a8f6ba567)" style="fill: none; stroke: #b0b0b0; stroke-width: 0.8; stroke-linecap: square"/>
     </g>
     <g id="line2d_14">
      <defs>
       <path id="ma26679f87a" d="M 0 0 
L -3.5 0 
" style="stroke: #03719c; stroke-width: 0.8"/>
      </defs>
      <g>
       <use xlink:href="#ma26679f87a" x="63" y="288.36" style="fill: #03719c; stroke: #03719c; stroke-width: 0.8"/>
      </g>
     </g>
     <g id="text_13">
      <text style="fill: #03719c; font: 10px 'DejaVu Sans', 'Bitstream Vera Sans', 'Computer Modern Sans Serif', 'Lucida Grande', 'Verdana', 'Geneva', 'Lucid', 'Arial', 'Helvetica', 'Avant Garde', sans-serif; text-anchor: end" x="56" y="292.159219" transform="rotate(-0 56 292.159219)">0</text>
     </g>
    </g>
    <g id="ytick_2">
     <g id="line2d_15">
      <path d="M 63 238.464 
L 453.6 238.464 
" clip-path="url(#p1a8f6ba567)" style="fill: none; stroke: #b0b0b0; stroke-width: 0.8; stroke-linecap: square"/>
     </g>
     <g id="line2d_16">
      <g>
       <use xlink:href="#ma26679f87a" x="63" y="238.464" style="fill: #03719c; stroke: #03719c; stroke-width: 0.8"/>
      </g>
     </g>
     <g id="text_14">
      <text style="fill: #03719c; font: 10px 'DejaVu Sans', 'Bitstream Vera Sans', 'Computer Modern Sans Serif', 'Lucida Grande', 'Verdana', 'Geneva', 'Lucid', 'Arial', 'Helvetica', 'Avant Garde', sans-serif; text-anchor: end" x="56" y="242.263219" transform="rotate(-0 56 242.263219)">50</text>
     </g>
    </g>
    <g id="ytick_3">
     <g id="line2d_17">
      <path d="M 63 188.568 
L 453.6 188.568 
" clip-path="url(#p1a8f6ba567)" style="fill: none; stroke: #b0b0b0; stroke-width: 0.8; stroke-linecap: square"/>
     </g>
     <g id="line2d_18">
      <g>
       <use xlink:href="#ma26679f87a" x="63" y="188.568" style="fill: #03719c; stroke: #03719c; stroke-width: 0.8"/>
      </g>
     </g>
     <g id="text_15">
      <text style="fill: #03719c; font: 10px 'DejaVu Sans', 'Bitstream Vera Sans', 'Computer Modern Sans Serif', 'Lucida Grande', 'Verdana', 'Geneva', 'Lucid', 'Arial', 'Helvetica', 'Avant Garde', sans-serif; text-anchor: end" x="56" y="192.367219" transform="rotate(-0 56 192.367219)">100</text>
     </g>
    </g>
    <g id="ytick_4">
     <g id="line2d_19">
      <path d="M 63 138.672 
L 453.6 138.672 
" clip-path="url(#p1a8f6ba567)" style="fill: none; stroke: #b0b0b0; stroke-width: 0.8; stroke-linecap: square"/>
     </g>
     <g id="line2d_20">
      <g>
       <use xlink:href="#ma26679f87a" x="63" y="138.672" style="fill: #03719c; stroke: #03719c; stroke-width: 0.8"/>
      </g>
     </g>
     <g id="text_16">
      <text style="fill: #03719c; font: 10px 'DejaVu Sans', 'Bitstream Vera Sans', 'Computer Modern Sans Serif', 'Lucida Grande', 'Verdana', 'Geneva', 'Lucid', 'Arial', 'Helvetica', 'Avant Garde', sans-serif; text-anchor: end" x="56" y="142.471219" transform="rotate(-0 56 142.471219)">150</text>
     </g>
    </g>
    <g id="ytick_5">
     <g id="line2d_21">
      <path d="M 63 88.776 
L 453.6 88.776 
" clip-path="url(#p1a8f6ba567)" style="fill: none; stroke: #b0b0b0; stroke-width: 0.8; stroke-linecap: square"/>
     </g>
     <g id="line2d_22">
      <g>
       <use xlink:href="#ma26679f87a" x="63" y="88.776" style="fill: #03719c; stroke: #03719c; stroke-width: 0.8"/>
      </g>
     </g>
     <g id="text_17">
      <text style="fill: #03719c; font: 10px 'DejaVu Sans', 'Bitstream Vera Sans', 'Computer Modern Sans Serif', 'Lucida Grande', 'Verdana', 'Geneva', 'Lucid', 'Arial', 'Helvetica', 'Avant Garde', sans-serif; text-anchor: end" x="56" y="92.575219" transform="rotate(-0 56 92.575219)">200</text>
     </g>
    </g>
    <g id="ytick_6">
     <g id="line2d_23">
      <path d="M 63 38.88 
L 453.6 38.88 
" clip-path="url(#p1a8f6ba567)" style="fill: none; stroke: #b0b0b0; stroke-width: 0.8; stroke-linecap: square"/>
     </g>
     <g id="line2d_24">
      <g>
       <use xlink:href="#ma26679f87a" x="63" y="38.88" style="fill: #03719c; stroke: #03719c; stroke-width: 0.8"/>
      </g>
     </g>
     <g id="text_18">
      <text style="fill: #03719c; font: 10px 'DejaVu Sans', 'Bitstream Vera Sans', 'Computer Modern Sans Serif', 'Lucida Grande', 'Verdana', 'Geneva', 'Lucid', 'Arial', 'Helvetica', 'Avant Garde', sans-serif; text-anchor: end" x="56" y="42.679219" transform="rotate(-0 56 42.679219)">250</text>
     </g>
    </g>
    <g id="text_19">
     <!-- Monthly Mean Precipitation Depth ($mm$) -->
     <g style="fill: #03719c" transform="translate(30.8125 263.97) rotate(-90)">
      <text>
       <tspan style="font: 10px 'DejaVu Sans'" x="0 8.62793 14.746094 21.083984 25.004883 31.342773 34.121094 40.039062 43.217773 51.845703 57.998047 64.125977 70.463867 73.642578 79.672852 83.78418 89.936523 95.43457 98.212891 104.560547 107.338867 111.259766 117.387695 121.308594 124.086914 130.205078 136.542969 139.72168 147.421875 153.574219 159.921875 163.842773 170.180664 173.359375 196.743164" y="-0.40625">Monthly Mean Precipitation Depth ()</tspan>
       <tspan style="font: oblique 10px 'DejaVu Sans'" x="177.260742 187.001953" y="-0.40625">mm</tspan>
      </text>
     </g>
    </g>
   </g>
   <g id="patch_39">
    <path d="M 63 288.36 
L 63 38.88 
" style="fill: none; stroke: #000000; stroke-width: 0.8; stroke-linejoin: miter; stroke-linecap: square"/>
   </g>
   <g id="patch_40">
    <path d="M 453.6 288.36 
L 453.6 38.88 
" style="fill: none; stroke: #03719c; stroke-width: 0.8; stroke-linejoin: miter; stroke-linecap: square"/>
   </g>
   <g id="patch_41">
    <path d="M 63 288.36 
L 453.6 288.36 
" style="fill: none; stroke: #000000; stroke-width: 0.8; stroke-linejoin: miter; stroke-linecap: square"/>
   </g>
   <g id="patch_42">
    <path d="M 63 38.88 
L 453.6 38.88 
" style="fill: none; stroke: #000000; stroke-width: 0.8; stroke-linejoin: miter; stroke-linecap: square"/>
   </g>
   <g id="legend_1">
    <g id="patch_43">
     <path d="M 91.836563 70.100625 
L 424.763438 70.100625 
Q 425.963437 70.100625 425.963437 68.900625 
L 425.963437 43.08 
Q 425.963437 41.88 424.763438 41.88 
L 91.836563 41.88 
Q 90.636563 41.88 90.636563 43.08 
L 90.636563 68.900625 
Q 90.636563 70.100625 91.836563 70.100625 
z
" style="fill: #ffffff; opacity: 0.8; stroke: #cccccc; stroke-linejoin: miter"/>
    </g>
    <g id="patch_44">
     <path d="M 93.036563 48.839063 
L 105.036563 48.839063 
L 105.036563 44.639063 
L 93.036563 44.639063 
z
" style="fill: #03719c; stroke: #03719c; stroke-linejoin: miter"/>
    </g>
    <g id="text_20">
     <text style="font: 6px 'DejaVu Sans', 'Bitstream Vera Sans', 'Computer Modern Sans Serif', 'Lucida Grande', 'Verdana', 'Geneva', 'Lucid', 'Arial', 'Helvetica', 'Avant Garde', sans-serif; text-anchor: start" x="109.836563" y="48.839063" transform="rotate(-0 109.836563 48.839063)">WG Precip. 2031-2060</text>
    </g>
    <g id="patch_45">
     <path d="M 93.036563 57.645938 
L 105.036563 57.645938 
L 105.036563 53.445937 
L 93.036563 53.445937 
z
" style="fill: #5a7d9a; stroke: #5a7d9a; stroke-linejoin: miter"/>
    </g>
    <g id="text_21">
     <text style="font: 6px 'DejaVu Sans', 'Bitstream Vera Sans', 'Computer Modern Sans Serif', 'Lucida Grande', 'Verdana', 'Geneva', 'Lucid', 'Arial', 'Helvetica', 'Avant Garde', sans-serif; text-anchor: start" x="109.836563" y="57.645938" transform="rotate(-0 109.836563 57.645938)">LOCA2 Precip. 2031-2060</text>
    </g>
    <g id="patch_46">
     <path d="M 93.036563 66.452812 
L 105.036563 66.452812 
L 105.036563 62.252812 
L 93.036563 62.252812 
z
" style="fill: #030aa7; stroke: #030aa7; stroke-linejoin: miter"/>
    </g>
    <g id="text_22">
     <text style="font: 6px 'DejaVu Sans', 'Bitstream Vera Sans', 'Computer Modern Sans Serif', 'Lucida Grande', 'Verdana', 'Geneva', 'Lucid', 'Arial', 'Helvetica', 'Avant Garde', sans-serif; text-anchor: start" x="109.836563" y="66.452812" transform="rotate(-0 109.836563 66.452812)">Obs. Precip. 1991-2020</text>
    </g>
    <g id="line2d_25">
     <path d="M 198.533438 46.739063 
L 204.533438 46.739063 
L 210.533438 46.739063 
" style="fill: none; stroke: #9a0200; stroke-width: 2; stroke-linecap: square"/>
    </g>
    <g id="text_23">
     <text style="font: 6px 'DejaVu Sans', 'Bitstream Vera Sans', 'Computer Modern Sans Serif', 'Lucida Grande', 'Verdana', 'Geneva', 'Lucid', 'Arial', 'Helvetica', 'Avant Garde', sans-serif; text-anchor: start" x="215.333438" y="48.839063" transform="rotate(-0 215.333438 48.839063)">WG Max. Temp. 2031-2060</text>
    </g>
    <g id="line2d_26">
     <path d="M 198.533438 55.545938 
L 204.533438 55.545938 
L 210.533438 55.545938 
" style="fill: none; stroke-dasharray: 7.4,3.2; stroke-dashoffset: 0; stroke: #d9544d; stroke-width: 2"/>
    </g>
    <g id="text_24">
     <text style="font: 6px 'DejaVu Sans', 'Bitstream Vera Sans', 'Computer Modern Sans Serif', 'Lucida Grande', 'Verdana', 'Geneva', 'Lucid', 'Arial', 'Helvetica', 'Avant Garde', sans-serif; text-anchor: start" x="215.333438" y="57.645938" transform="rotate(-0 215.333438 57.645938)">LOCA2 Max. Temp. 2031-2060</text>
    </g>
    <g id="line2d_27">
     <path d="M 198.533438 64.352812 
L 204.533438 64.352812 
L 210.533438 64.352812 
" style="fill: none; stroke-dasharray: 2,3.3; stroke-dashoffset: 0; stroke: #be0119; stroke-width: 2"/>
    </g>
    <g id="text_25">
     <text style="font: 6px 'DejaVu Sans', 'Bitstream Vera Sans', 'Computer Modern Sans Serif', 'Lucida Grande', 'Verdana', 'Geneva', 'Lucid', 'Arial', 'Helvetica', 'Avant Garde', sans-serif; text-anchor: start" x="215.333438" y="66.452812" transform="rotate(-0 215.333438 66.452812)">Obs. Max. Temp. 1991-2020</text>
    </g>
    <g id="line2d_28">
     <path d="M 317.927813 46.739063 
L 323.927813 46.739063 
L 329.927813 46.739063 
" style="fill: none; stroke: #ff9408; stroke-width: 2; stroke-linecap: square"/>
    </g>
    <g id="text_26">
     <text style="font: 6px 'DejaVu Sans', 'Bitstream Vera Sans', 'Computer Modern Sans Serif', 'Lucida Grande', 'Verdana', 'Geneva', 'Lucid', 'Arial', 'Helvetica', 'Avant Garde', sans-serif; text-anchor: start" x="334.727813" y="48.839063" transform="rotate(-0 334.727813 48.839063)">WG Min. Temp. 2031-2060</text>
    </g>
    <g id="line2d_29">
     <path d="M 317.927813 55.545938 
L 323.927813 55.545938 
L 329.927813 55.545938 
" style="fill: none; stroke-dasharray: 7.4,3.2; stroke-dashoffset: 0; stroke: #ffa756; stroke-width: 2"/>
    </g>
    <g id="text_27">
     <text style="font: 6px 'DejaVu Sans', 'Bitstream Vera Sans', 'Computer Modern Sans Serif', 'Lucida Grande', 'Verdana', 'Geneva', 'Lucid', 'Arial', 'Helvetica', 'Avant Garde', sans-serif; text-anchor: start" x="334.727813" y="57.645938" transform="rotate(-0 334.727813 57.645938)">LOCA2 Min. Temp. 2031-2060</text>
    </g>
    <g id="line2d_30">
     <path d="M 317.927813 64.352812 
L 323.927813 64.352812 
L 329.927813 64.352812 
" style="fill: none; stroke-dasharray: 2,3.3; stroke-dashoffset: 0; stroke: #e17701; stroke-width: 2"/>
    </g>
    <g id="text_28">
     <text style="font: 6px 'DejaVu Sans', 'Bitstream Vera Sans', 'Computer Modern Sans Serif', 'Lucida Grande', 'Verdana', 'Geneva', 'Lucid', 'Arial', 'Helvetica', 'Avant Garde', sans-serif; text-anchor: start" x="334.727813" y="66.452812" transform="rotate(-0 334.727813 66.452812)">Obs. Min. Temp. 1991-2020</text>
    </g>
   </g>
  </g>
  <g id="axes_2">
   <g id="matplotlib.axis_3">
    <g id="ytick_7">
     <g id="line2d_31">
      <defs>
       <path id="m79e5f70b7f" d="M 0 0 
L 3.5 0 
" style="stroke: #c04e01; stroke-width: 0.8"/>
      </defs>
      <g>
       <use xlink:href="#m79e5f70b7f" x="453.6" y="288.36" style="fill: #c04e01; stroke: #c04e01; stroke-width: 0.8"/>
      </g>
     </g>
     <g id="text_29">
      <text style="fill: #c04e01; font: 10px 'DejaVu Sans', 'Bitstream Vera Sans', 'Computer Modern Sans Serif', 'Lucida Grande', 'Verdana', 'Geneva', 'Lucid', 'Arial', 'Helvetica', 'Avant Garde', sans-serif; text-anchor: start" x="460.6" y="292.159219" transform="rotate(-0 460.6 292.159219)">0</text>
     </g>
    </g>
    <g id="ytick_8">
     <g id="line2d_32">
      <g>
       <use xlink:href="#m79e5f70b7f" x="453.6" y="238.464" style="fill: #c04e01; stroke: #c04e01; stroke-width: 0.8"/>
      </g>
     </g>
     <g id="text_30">
      <text style="fill: #c04e01; font: 10px 'DejaVu Sans', 'Bitstream Vera Sans', 'Computer Modern Sans Serif', 'Lucida Grande', 'Verdana', 'Geneva', 'Lucid', 'Arial', 'Helvetica', 'Avant Garde', sans-serif; text-anchor: start" x="460.6" y="242.263219" transform="rotate(-0 460.6 242.263219)">10</text>
     </g>
    </g>
    <g id="ytick_9">
     <g id="line2d_33">
      <g>
       <use xlink:href="#m79e5f70b7f" x="453.6" y="188.568" style="fill: #c04e01; stroke: #c04e01; stroke-width: 0.8"/>
      </g>
     </g>
     <g id="text_31">
      <text style="fill: #c04e01; font: 10px 'DejaVu Sans', 'Bitstream Vera Sans', 'Computer Modern Sans Serif', 'Lucida Grande', 'Verdana', 'Geneva', 'Lucid', 'Arial', 'Helvetica', 'Avant Garde', sans-serif; text-anchor: start" x="460.6" y="192.367219" transform="rotate(-0 460.6 192.367219)">20</text>
     </g>
    </g>
    <g id="ytick_10">
     <g id="line2d_34">
      <g>
       <use xlink:href="#m79e5f70b7f" x="453.6" y="138.672" style="fill: #c04e01; stroke: #c04e01; stroke-width: 0.8"/>
      </g>
     </g>
     <g id="text_32">
      <text style="fill: #c04e01; font: 10px 'DejaVu Sans', 'Bitstream Vera Sans', 'Computer Modern Sans Serif', 'Lucida Grande', 'Verdana', 'Geneva', 'Lucid', 'Arial', 'Helvetica', 'Avant Garde', sans-serif; text-anchor: start" x="460.6" y="142.471219" transform="rotate(-0 460.6 142.471219)">30</text>
     </g>
    </g>
    <g id="ytick_11">
     <g id="line2d_35">
      <g>
       <use xlink:href="#m79e5f70b7f" x="453.6" y="88.776" style="fill: #c04e01; stroke: #c04e01; stroke-width: 0.8"/>
      </g>
     </g>
     <g id="text_33">
      <text style="fill: #c04e01; font: 10px 'DejaVu Sans', 'Bitstream Vera Sans', 'Computer Modern Sans Serif', 'Lucida Grande', 'Verdana', 'Geneva', 'Lucid', 'Arial', 'Helvetica', 'Avant Garde', sans-serif; text-anchor: start" x="460.6" y="92.575219" transform="rotate(-0 460.6 92.575219)">40</text>
     </g>
    </g>
    <g id="ytick_12">
     <g id="line2d_36">
      <g>
       <use xlink:href="#m79e5f70b7f" x="453.6" y="38.88" style="fill: #c04e01; stroke: #c04e01; stroke-width: 0.8"/>
      </g>
     </g>
     <g id="text_34">
      <text style="fill: #c04e01; font: 10px 'DejaVu Sans', 'Bitstream Vera Sans', 'Computer Modern Sans Serif', 'Lucida Grande', 'Verdana', 'Geneva', 'Lucid', 'Arial', 'Helvetica', 'Avant Garde', sans-serif; text-anchor: start" x="460.6" y="42.679219" transform="rotate(-0 460.6 42.679219)">50</text>
     </g>
    </g>
    <g id="text_35">
     <!-- Monthly Mean Temperature ($ ^{\circ} C$) -->
     <g style="fill: #c04e01" transform="translate(484.925 244.47) rotate(-90)">
      <text>
       <tspan style="font: 10px 'DejaVu Sans'" x="0 8.62793 14.746094 21.083984 25.004883 31.342773 34.121094 40.039062 43.217773 51.845703 57.998047 64.125977 70.463867 73.642578 79.750977 85.90332 95.644531 101.992188 108.144531 112.255859 118.383789 122.304688 128.642578 132.753906 138.90625 142.084961 157.719727" y="-0.40625">Monthly Mean Temperature ()</tspan>
       <tspan style="font: 7px 'DejaVu Sans'" x="146.082031" y="-4.234375">∘</tspan>
       <tspan style="font: oblique 10px 'DejaVu Sans'" x="150.737305" y="-0.40625">C</tspan>
      </text>
     </g>
    </g>
   </g>
   <g id="line2d_37">
    <path d="M 93.046154 172.451423 
L 123.092308 154.608565 
L 153.138462 139.293606 
L 183.184615 122.740717 
L 213.230769 104.39825 
L 243.276923 92.265983 
L 273.323077 83.302865 
L 303.369231 83.781032 
L 333.415385 98.443731 
L 363.461538 120.614431 
L 393.507692 147.136013 
L 423.553846 167.744504 
" clip-path="url(#p1a8f6ba567)" style="fill: none; stroke: #9a0200; stroke-width: 2; stroke-linecap: square"/>
   </g>
   <g id="line2d_38">
    <path d="M 93.046154 193.946128 
L 123.092308 183.436541 
L 153.138462 162.636304 
L 183.184615 141.947862 
L 213.230769 126.995669 
L 243.276923 111.820714 
L 273.323077 104.490316 
L 303.369231 101.632313 
L 333.415385 118.613558 
L 363.461538 140.581958 
L 393.507692 169.056057 
L 423.553846 189.994613 
" clip-path="url(#p1a8f6ba567)" style="fill: none; stroke-dasharray: 7.4,3.2; stroke-dashoffset: 0; stroke: #d9544d; stroke-width: 2"/>
   </g>
   <g id="line2d_39">
    <path d="M 93.046154 203.597318 
L 123.092308 191.280671 
L 153.138462 173.276291 
L 183.184615 155.036826 
L 213.230769 138.81482 
L 243.276923 123.459282 
L 273.323077 117.277118 
L 303.369231 114.588896 
L 333.415385 130.984576 
L 363.461538 153.69991 
L 393.507692 182.42261 
L 423.553846 201.585292 
" clip-path="url(#p1a8f6ba567)" style="fill: none; stroke-dasharray: 2,3.3; stroke-dashoffset: 0; stroke: #be0119; stroke-width: 2"/>
   </g>
   <g id="line2d_40">
    <path d="M 93.046154 274.163609 
L 123.092308 263.95823 
L 153.138462 243.993627 
L 183.184615 222.774589 
L 213.230769 199.589349 
L 243.276923 182.772651 
L 273.323077 177.496449 
L 303.369231 179.262188 
L 333.415385 191.789587 
L 363.461538 220.255735 
L 393.507692 249.622266 
L 423.553846 269.65927 
" clip-path="url(#p1a8f6ba567)" style="fill: none; stroke: #ff9408; stroke-width: 2; stroke-linecap: square"/>
   </g>
   <g id="line2d_41">
    <path d="M 93.046154 269.165046 
L 123.092308 259.634245 
L 153.138462 239.29385 
L 183.184615 215.515164 
L 213.230769 192.993067 
L 243.276923 177.275476 
L 273.323077 172.6085 
L 303.369231 173.571315 
L 333.415385 185.373831 
L 363.461538 213.698939 
L 393.507692 241.327932 
L 423.553846 264.929483 
" clip-path="url(#p1a8f6ba567)" style="fill: none; stroke-dasharray: 7.4,3.2; stroke-dashoffset: 0; stroke: #ffa756; stroke-width: 2"/>
   </g>
   <g id="line2d_42">
    <path d="M 93.046154 279.143548 
L 123.092308 267.581409 
L 153.138462 247.481859 
L 183.184615 228.669314 
L 213.230769 203.712558 
L 243.276923 186.660184 
L 273.323077 182.020083 
L 303.369231 183.144372 
L 333.415385 197.623765 
L 363.461538 223.736777 
L 393.507692 252.597358 
L 423.553846 275.155364 
" clip-path="url(#p1a8f6ba567)" style="fill: none; stroke-dasharray: 2,3.3; stroke-dashoffset: 0; stroke: #e17701; stroke-width: 2"/>
   </g>
   <g id="patch_47">
    <path d="M 63 288.36 
L 63 38.88 
" style="fill: none; stroke: #000000; stroke-width: 0.8; stroke-linejoin: miter; stroke-linecap: square"/>
   </g>
   <g id="patch_48">
    <path d="M 453.6 288.36 
L 453.6 38.88 
" style="fill: none; stroke: #c04e01; stroke-width: 0.8; stroke-linejoin: miter; stroke-linecap: square"/>
   </g>
   <g id="patch_49">
    <path d="M 63 288.36 
L 453.6 288.36 
" style="fill: none; stroke: #000000; stroke-width: 0.8; stroke-linejoin: miter; stroke-linecap: square"/>
   </g>
   <g id="patch_50">
    <path d="M 63 38.88 
L 453.6 38.88 
" style="fill: none; stroke: #000000; stroke-width: 0.8; stroke-linejoin: miter; stroke-linecap: square"/>
   </g>
  </g>
 </g>
 <defs>
  <clipPath id="p1a8f6ba567">
   <rect x="63" y="38.88" width="390.6" height="249.48"/>
  </clipPath>
 </defs>
</svg>
