<?xml version="1.0" encoding="utf-8" standalone="no"?>
<!DOCTYPE svg PUBLIC "-//W3C//DTD SVG 1.1//EN"
  "http://www.w3.org/Graphics/SVG/1.1/DTD/svg11.dtd">
<svg xmlns:xlink="http://www.w3.org/1999/xlink" width="504pt" height="262.8pt" viewBox="0 0 504 262.8" xmlns="http://www.w3.org/2000/svg" version="1.1">
 <metadata>
  <rdf:RDF xmlns:dc="http://purl.org/dc/elements/1.1/" xmlns:cc="http://creativecommons.org/ns#" xmlns:rdf="http://www.w3.org/1999/02/22-rdf-syntax-ns#">
   <cc:Work>
    <dc:type rdf:resource="http://purl.org/dc/dcmitype/StillImage"/>
    <dc:date>2023-10-05T11:44:46.070455</dc:date>
    <dc:format>image/svg+xml</dc:format>
    <dc:creator>
     <cc:Agent>
      <dc:title>Matplotlib v3.6.2, https://matplotlib.org/</dc:title>
     </cc:Agent>
    </dc:creator>
   </cc:Work>
  </rdf:RDF>
 </metadata>
 <defs>
  <style type="text/css">*{stroke-linejoin: round; stroke-linecap: butt}</style>
 </defs>
 <g id="figure_1">
  <g id="patch_1">
   <path d="M 0 262.8 
L 504 262.8 
L 504 0 
L 0 0 
z
" style="fill: #ffffff"/>
  </g>
  <g id="axes_1">
   <g id="patch_2">
    <path d="M 63 233.892 
L 453.6 233.892 
L 453.6 31.536 
L 63 31.536 
z
" style="fill: #ffffff"/>
   </g>
   <g id="matplotlib.axis_1">
    <g id="xtick_1">
     <g id="line2d_1">
      <defs>
       <path id="mc53d27270c" d="M 0 0 
L 0 3.5 
" style="stroke: #000000; stroke-width: 0.8"/>
      </defs>
      <g>
       <use xlink:href="#mc53d27270c" x="63" y="233.892" style="stroke: #000000; stroke-width: 0.8"/>
      </g>
     </g>
     <g id="text_1">
      <text style="font: 9px 'DejaVu Sans', 'Bitstream Vera Sans', 'Computer Modern Sans Serif', 'Lucida Grande', 'Verdana', 'Geneva', 'Lucid', 'Arial', 'Helvetica', 'Avant Garde', sans-serif; text-anchor: middle" x="63" y="247.730594" transform="rotate(-0 63 247.730594)">2025</text>
     </g>
    </g>
    <g id="xtick_2">
     <g id="line2d_2">
      <g>
       <use xlink:href="#mc53d27270c" x="110.628423" y="233.892" style="stroke: #000000; stroke-width: 0.8"/>
      </g>
     </g>
     <g id="text_2">
      <text style="font: 9px 'DejaVu Sans', 'Bitstream Vera Sans', 'Computer Modern Sans Serif', 'Lucida Grande', 'Verdana', 'Geneva', 'Lucid', 'Arial', 'Helvetica', 'Avant Garde', sans-serif; text-anchor: middle" x="110.628423" y="247.730594" transform="rotate(-0 110.628423 247.730594)">2030</text>
     </g>
    </g>
    <g id="xtick_3">
     <g id="line2d_3">
      <g>
       <use xlink:href="#mc53d27270c" x="158.256846" y="233.892" style="stroke: #000000; stroke-width: 0.8"/>
      </g>
     </g>
     <g id="text_3">
      <text style="font: 9px 'DejaVu Sans', 'Bitstream Vera Sans', 'Computer Modern Sans Serif', 'Lucida Grande', 'Verdana', 'Geneva', 'Lucid', 'Arial', 'Helvetica', 'Avant Garde', sans-serif; text-anchor: middle" x="158.256846" y="247.730594" transform="rotate(-0 158.256846 247.730594)">2035</text>
     </g>
    </g>
    <g id="xtick_4">
     <g id="line2d_4">
      <g>
       <use xlink:href="#mc53d27270c" x="205.885269" y="233.892" style="stroke: #000000; stroke-width: 0.8"/>
      </g>
     </g>
     <g id="text_4">
      <text style="font: 9px 'DejaVu Sans', 'Bitstream Vera Sans', 'Computer Modern Sans Serif', 'Lucida Grande', 'Verdana', 'Geneva', 'Lucid', 'Arial', 'Helvetica', 'Avant Garde', sans-serif; text-anchor: middle" x="205.885269" y="247.730594" transform="rotate(-0 205.885269 247.730594)">2040</text>
     </g>
    </g>
    <g id="xtick_5">
     <g id="line2d_5">
      <g>
       <use xlink:href="#mc53d27270c" x="253.539775" y="233.892" style="stroke: #000000; stroke-width: 0.8"/>
      </g>
     </g>
     <g id="text_5">
      <text style="font: 9px 'DejaVu Sans', 'Bitstream Vera Sans', 'Computer Modern Sans Serif', 'Lucida Grande', 'Verdana', 'Geneva', 'Lucid', 'Arial', 'Helvetica', 'Avant Garde', sans-serif; text-anchor: middle" x="253.539775" y="247.730594" transform="rotate(-0 253.539775 247.730594)">2045</text>
     </g>
    </g>
    <g id="xtick_6">
     <g id="line2d_6">
      <g>
       <use xlink:href="#mc53d27270c" x="301.168198" y="233.892" style="stroke: #000000; stroke-width: 0.8"/>
      </g>
     </g>
     <g id="text_6">
      <text style="font: 9px 'DejaVu Sans', 'Bitstream Vera Sans', 'Computer Modern Sans Serif', 'Lucida Grande', 'Verdana', 'Geneva', 'Lucid', 'Arial', 'Helvetica', 'Avant Garde', sans-serif; text-anchor: middle" x="301.168198" y="247.730594" transform="rotate(-0 301.168198 247.730594)">2050</text>
     </g>
    </g>
    <g id="xtick_7">
     <g id="line2d_7">
      <g>
       <use xlink:href="#mc53d27270c" x="348.796621" y="233.892" style="stroke: #000000; stroke-width: 0.8"/>
      </g>
     </g>
     <g id="text_7">
      <text style="font: 9px 'DejaVu Sans', 'Bitstream Vera Sans', 'Computer Modern Sans Serif', 'Lucida Grande', 'Verdana', 'Geneva', 'Lucid', 'Arial', 'Helvetica', 'Avant Garde', sans-serif; text-anchor: middle" x="348.796621" y="247.730594" transform="rotate(-0 348.796621 247.730594)">2055</text>
     </g>
    </g>
    <g id="xtick_8">
     <g id="line2d_8">
      <g>
       <use xlink:href="#mc53d27270c" x="396.425044" y="233.892" style="stroke: #000000; stroke-width: 0.8"/>
      </g>
     </g>
     <g id="text_8">
      <text style="font: 9px 'DejaVu Sans', 'Bitstream Vera Sans', 'Computer Modern Sans Serif', 'Lucida Grande', 'Verdana', 'Geneva', 'Lucid', 'Arial', 'Helvetica', 'Avant Garde', sans-serif; text-anchor: middle" x="396.425044" y="247.730594" transform="rotate(-0 396.425044 247.730594)">2060</text>
     </g>
    </g>
    <g id="xtick_9">
     <g id="line2d_9">
      <g>
       <use xlink:href="#mc53d27270c" x="444.07955" y="233.892" style="stroke: #000000; stroke-width: 0.8"/>
      </g>
     </g>
     <g id="text_9">
      <text style="font: 9px 'DejaVu Sans', 'Bitstream Vera Sans', 'Computer Modern Sans Serif', 'Lucida Grande', 'Verdana', 'Geneva', 'Lucid', 'Arial', 'Helvetica', 'Avant Garde', sans-serif; text-anchor: middle" x="444.07955" y="247.730594" transform="rotate(-0 444.07955 247.730594)">2065</text>
     </g>
    </g>
   </g>
   <g id="matplotlib.axis_2">
    <g id="ytick_1">
     <g id="line2d_10">
      <path d="M 63 233.892 
L 453.6 233.892 
" clip-path="url(#pd32d1f9b6f)" style="fill: none; stroke: #b0b0b0; stroke-width: 0.8; stroke-linecap: square"/>
     </g>
     <g id="line2d_11">
      <defs>
       <path id="m54a85385b0" d="M 0 0 
L -3.5 0 
" style="stroke: #000000; stroke-width: 0.8"/>
      </defs>
      <g>
       <use xlink:href="#m54a85385b0" x="63" y="233.892" style="stroke: #000000; stroke-width: 0.8"/>
      </g>
     </g>
     <g id="text_10">
      <text style="font: 9px 'DejaVu Sans', 'Bitstream Vera Sans', 'Computer Modern Sans Serif', 'Lucida Grande', 'Verdana', 'Geneva', 'Lucid', 'Arial', 'Helvetica', 'Avant Garde', sans-serif; text-anchor: end" x="56" y="237.311297" transform="rotate(-0 56 237.311297)">0</text>
     </g>
    </g>
    <g id="ytick_2">
     <g id="line2d_12">
      <path d="M 63 208.5975 
L 453.6 208.5975 
" clip-path="url(#pd32d1f9b6f)" style="fill: none; stroke: #b0b0b0; stroke-width: 0.8; stroke-linecap: square"/>
     </g>
     <g id="line2d_13">
      <g>
       <use xlink:href="#m54a85385b0" x="63" y="208.5975" style="stroke: #000000; stroke-width: 0.8"/>
      </g>
     </g>
     <g id="text_11">
      <text style="font: 9px 'DejaVu Sans', 'Bitstream Vera Sans', 'Computer Modern Sans Serif', 'Lucida Grande', 'Verdana', 'Geneva', 'Lucid', 'Arial', 'Helvetica', 'Avant Garde', sans-serif; text-anchor: end" x="56" y="212.016797" transform="rotate(-0 56 212.016797)">250</text>
     </g>
    </g>
    <g id="ytick_3">
     <g id="line2d_14">
      <path d="M 63 183.303 
L 453.6 183.303 
" clip-path="url(#pd32d1f9b6f)" style="fill: none; stroke: #b0b0b0; stroke-width: 0.8; stroke-linecap: square"/>
     </g>
     <g id="line2d_15">
      <g>
       <use xlink:href="#m54a85385b0" x="63" y="183.303" style="stroke: #000000; stroke-width: 0.8"/>
      </g>
     </g>
     <g id="text_12">
      <text style="font: 9px 'DejaVu Sans', 'Bitstream Vera Sans', 'Computer Modern Sans Serif', 'Lucida Grande', 'Verdana', 'Geneva', 'Lucid', 'Arial', 'Helvetica', 'Avant Garde', sans-serif; text-anchor: end" x="56" y="186.722297" transform="rotate(-0 56 186.722297)">500</text>
     </g>
    </g>
    <g id="ytick_4">
     <g id="line2d_16">
      <path d="M 63 158.0085 
L 453.6 158.0085 
" clip-path="url(#pd32d1f9b6f)" style="fill: none; stroke: #b0b0b0; stroke-width: 0.8; stroke-linecap: square"/>
     </g>
     <g id="line2d_17">
      <g>
       <use xlink:href="#m54a85385b0" x="63" y="158.0085" style="stroke: #000000; stroke-width: 0.8"/>
      </g>
     </g>
     <g id="text_13">
      <text style="font: 9px 'DejaVu Sans', 'Bitstream Vera Sans', 'Computer Modern Sans Serif', 'Lucida Grande', 'Verdana', 'Geneva', 'Lucid', 'Arial', 'Helvetica', 'Avant Garde', sans-serif; text-anchor: end" x="56" y="161.427797" transform="rotate(-0 56 161.427797)">750</text>
     </g>
    </g>
    <g id="ytick_5">
     <g id="line2d_18">
      <path d="M 63 132.714 
L 453.6 132.714 
" clip-path="url(#pd32d1f9b6f)" style="fill: none; stroke: #b0b0b0; stroke-width: 0.8; stroke-linecap: square"/>
     </g>
     <g id="line2d_19">
      <g>
       <use xlink:href="#m54a85385b0" x="63" y="132.714" style="stroke: #000000; stroke-width: 0.8"/>
      </g>
     </g>
     <g id="text_14">
      <text style="font: 9px 'DejaVu Sans', 'Bitstream Vera Sans', 'Computer Modern Sans Serif', 'Lucida Grande', 'Verdana', 'Geneva', 'Lucid', 'Arial', 'Helvetica', 'Avant Garde', sans-serif; text-anchor: end" x="56" y="136.133297" transform="rotate(-0 56 136.133297)">1,000</text>
     </g>
    </g>
    <g id="ytick_6">
     <g id="line2d_20">
      <path d="M 63 107.4195 
L 453.6 107.4195 
" clip-path="url(#pd32d1f9b6f)" style="fill: none; stroke: #b0b0b0; stroke-width: 0.8; stroke-linecap: square"/>
     </g>
     <g id="line2d_21">
      <g>
       <use xlink:href="#m54a85385b0" x="63" y="107.4195" style="stroke: #000000; stroke-width: 0.8"/>
      </g>
     </g>
     <g id="text_15">
      <text style="font: 9px 'DejaVu Sans', 'Bitstream Vera Sans', 'Computer Modern Sans Serif', 'Lucida Grande', 'Verdana', 'Geneva', 'Lucid', 'Arial', 'Helvetica', 'Avant Garde', sans-serif; text-anchor: end" x="56" y="110.838797" transform="rotate(-0 56 110.838797)">1,250</text>
     </g>
    </g>
    <g id="ytick_7">
     <g id="line2d_22">
      <path d="M 63 82.125 
L 453.6 82.125 
" clip-path="url(#pd32d1f9b6f)" style="fill: none; stroke: #b0b0b0; stroke-width: 0.8; stroke-linecap: square"/>
     </g>
     <g id="line2d_23">
      <g>
       <use xlink:href="#m54a85385b0" x="63" y="82.125" style="stroke: #000000; stroke-width: 0.8"/>
      </g>
     </g>
     <g id="text_16">
      <text style="font: 9px 'DejaVu Sans', 'Bitstream Vera Sans', 'Computer Modern Sans Serif', 'Lucida Grande', 'Verdana', 'Geneva', 'Lucid', 'Arial', 'Helvetica', 'Avant Garde', sans-serif; text-anchor: end" x="56" y="85.544297" transform="rotate(-0 56 85.544297)">1,500</text>
     </g>
    </g>
    <g id="ytick_8">
     <g id="line2d_24">
      <path d="M 63 56.8305 
L 453.6 56.8305 
" clip-path="url(#pd32d1f9b6f)" style="fill: none; stroke: #b0b0b0; stroke-width: 0.8; stroke-linecap: square"/>
     </g>
     <g id="line2d_25">
      <g>
       <use xlink:href="#m54a85385b0" x="63" y="56.8305" style="stroke: #000000; stroke-width: 0.8"/>
      </g>
     </g>
     <g id="text_17">
      <text style="font: 9px 'DejaVu Sans', 'Bitstream Vera Sans', 'Computer Modern Sans Serif', 'Lucida Grande', 'Verdana', 'Geneva', 'Lucid', 'Arial', 'Helvetica', 'Avant Garde', sans-serif; text-anchor: end" x="56" y="60.249797" transform="rotate(-0 56 60.249797)">1,750</text>
     </g>
    </g>
    <g id="ytick_9">
     <g id="line2d_26">
      <path d="M 63 31.536 
L 453.6 31.536 
" clip-path="url(#pd32d1f9b6f)" style="fill: none; stroke: #b0b0b0; stroke-width: 0.8; stroke-linecap: square"/>
     </g>
     <g id="line2d_27">
      <g>
       <use xlink:href="#m54a85385b0" x="63" y="31.536" style="stroke: #000000; stroke-width: 0.8"/>
      </g>
     </g>
     <g id="text_18">
      <text style="font: 9px 'DejaVu Sans', 'Bitstream Vera Sans', 'Computer Modern Sans Serif', 'Lucida Grande', 'Verdana', 'Geneva', 'Lucid', 'Arial', 'Helvetica', 'Avant Garde', sans-serif; text-anchor: end" x="56" y="34.955297" transform="rotate(-0 56 34.955297)">2,000</text>
     </g>
    </g>
    <g id="text_19">
     <!-- Annual Total Precipitation ($mm$) -->
     <g transform="translate(24.134687 212.514) rotate(-90)">
      <text>
       <tspan style="font: 10px 'DejaVu Sans'" x="0 6.84082 13.178711 19.516602 25.854492 31.982422 34.760742 37.939453 44.047852 50.166016 54.086914 60.214844 62.993164 66.171875 72.202148 76.313477 82.46582 87.963867 90.742188 97.089844 99.868164 103.789062 109.916992 113.837891 116.616211 122.734375 129.072266 132.250977 155.634766" y="-0.40625">Annual Total Precipitation ()</tspan>
       <tspan style="font: oblique 10px 'DejaVu Sans'" x="136.152344 145.893555" y="-0.40625">mm</tspan>
      </text>
     </g>
    </g>
   </g>
   <g id="patch_3">
    <path d="M 63 233.892 
L 63 31.536 
" style="fill: none; stroke: #000000; stroke-width: 0.8; stroke-linejoin: miter; stroke-linecap: square"/>
   </g>
   <g id="patch_4">
    <path d="M 453.6 233.892 
L 453.6 31.536 
" style="fill: none; stroke: #000000; stroke-width: 0.8; stroke-linejoin: miter; stroke-linecap: square"/>
   </g>
   <g id="patch_5">
    <path d="M 63 233.892 
L 453.6 233.892 
" style="fill: none; stroke: #000000; stroke-width: 0.8; stroke-linejoin: miter; stroke-linecap: square"/>
   </g>
   <g id="patch_6">
    <path d="M 63 31.536 
L 453.6 31.536 
" style="fill: none; stroke: #000000; stroke-width: 0.8; stroke-linejoin: miter; stroke-linecap: square"/>
   </g>
   <g id="patch_7">
    <path d="M 63 173.138211 
L 77.241577 173.421589 
L 86.762045 169.531083 
L 96.308596 169.151709 
L 105.829064 170.815953 
L 115.349532 169.573459 
L 124.87 169.93322 
L 134.416551 168.700978 
L 143.937019 168.425536 
L 153.457487 170.324661 
L 162.977955 169.365014 
L 172.524506 169.337515 
L 182.044974 168.772878 
L 191.565442 169.348483 
L 201.08591 170.474903 
L 210.632461 171.13834 
L 220.152929 168.523064 
L 229.673397 169.856497 
L 239.193865 168.861915 
L 248.740416 169.40085 
L 258.260884 170.987394 
L 267.781352 168.72613 
L 277.30182 168.753401 
L 286.848371 169.12492 
L 296.368839 169.25947 
L 305.889307 169.284882 
L 315.409775 169.203756 
L 324.956326 169.680139 
L 334.476794 170.021677 
L 343.997262 170.543135 
L 353.51773 170.769723 
L 363.064281 169.780508 
L 372.584749 169.192028 
L 382.105217 170.395543 
L 391.625685 170.809987 
L 401.172236 168.367691 
L 410.692704 169.42646 
L 420.213172 169.566005 
L 429.73364 169.78937 
L 439.280191 170.193539 
L 453.6 170.282681 
L 453.6 107.297375 
L 439.280191 104.842956 
L 429.73364 105.096902 
L 420.213172 107.516837 
L 410.692704 104.720177 
L 401.172236 108.083777 
L 391.625685 107.75091 
L 382.105217 106.927406 
L 372.584749 105.984963 
L 363.064281 106.534427 
L 353.51773 103.930786 
L 343.997262 101.992743 
L 334.476794 103.648359 
L 324.956326 103.503398 
L 315.409775 100.781769 
L 305.889307 105.004308 
L 296.368839 105.224078 
L 286.848371 103.012934 
L 277.30182 100.769134 
L 267.781352 103.297806 
L 258.260884 104.097781 
L 248.740416 103.954956 
L 239.193865 105.29102 
L 229.673397 107.935234 
L 220.152929 102.97703 
L 210.632461 106.556572 
L 201.08591 107.938692 
L 191.565442 107.734446 
L 182.044974 107.340035 
L 172.524506 106.284866 
L 162.977955 106.179897 
L 153.457487 104.576154 
L 143.937019 102.05383 
L 134.416551 103.496172 
L 124.87 107.499089 
L 115.349532 106.685515 
L 105.829064 107.355782 
L 96.308596 111.497052 
L 86.762045 114.163794 
L 77.241577 117.219044 
L 63 117.915828 
z
" clip-path="url(#pd32d1f9b6f)" style="fill: #9dbcd4; opacity: 0.5; stroke: #9dbcd4; stroke-linejoin: miter"/>
   </g>
   <g id="legend_1">
    <g id="patch_8">
     <path d="M 158.186953 68.076 
L 358.413047 68.076 
Q 360.213047 68.076 360.213047 66.276 
L 360.213047 37.836 
Q 360.213047 36.036 358.413047 36.036 
L 158.186953 36.036 
Q 156.386953 36.036 156.386953 37.836 
L 156.386953 66.276 
Q 156.386953 68.076 158.186953 68.076 
z
" style="fill: #ffffff; stroke: #cccccc; stroke-linejoin: miter"/>
    </g>
    <g id="patch_9">
     <path d="M 159.986953 47.916 
L 177.986953 47.916 
L 177.986953 41.616 
L 159.986953 41.616 
z
" style="fill: #9dbcd4; opacity: 0.5; stroke: #9dbcd4; stroke-linejoin: miter"/>
    </g>
    <g id="text_20">
     <!-- $5^{th}$ to $95^{th}$ envelope -->
     <g transform="translate(185.186953 47.916)">
      <text>
       <tspan style="font: 9px 'DejaVu Sans'" x="0 12.521338 15.382178 18.910986 24.417334 27.278174 33.004248 45.525586 48.386426 53.923535 59.627637 64.953809 70.490918 72.991406 78.497754 84.210645" y="-0.7640625000000014">5 to 95 envelope</tspan>
       <tspan style="font: oblique 6.3px 'DejaVu Sans'" x="5.812207 8.282373 38.816455 41.286621" y="-4.209375000000001">thth</tspan>
      </text>
     </g>
    </g>
    <g id="patch_10">
     <path d="M 159.986953 62.586 
L 177.986953 62.586 
L 177.986953 56.286 
L 159.986953 56.286 
z
" style="fill: #5a7d9a; opacity: 0.5; stroke: #5a7d9a; stroke-linejoin: miter"/>
    </g>
    <g id="text_21">
     <!-- $25^{th}$ to $75^{th}$ envelope -->
     <g transform="translate(185.186953 62.586)">
      <text>
       <tspan style="font: 9px 'DejaVu Sans'" x="0 5.726074 18.247412 21.108252 24.637061 30.143408 33.004248 38.730322 51.25166 54.1125 59.649609 65.353711 70.679883 76.216992 78.71748 84.223828 89.936719" y="-0.7640625000000014">25 to 75 envelope</tspan>
       <tspan style="font: oblique 6.3px 'DejaVu Sans'" x="11.538281 14.008447 44.542529 47.012695" y="-4.209375000000001">thth</tspan>
      </text>
     </g>
    </g>
    <g id="line2d_28">
     <path d="M 298.676953 44.766 
L 307.676953 44.766 
L 316.676953 44.766 
" style="fill: none; stroke: #0165fc; stroke-width: 2; stroke-linecap: square"/>
    </g>
    <g id="text_22">
     <text style="font: 9px 'DejaVu Sans', 'Bitstream Vera Sans', 'Computer Modern Sans Serif', 'Lucida Grande', 'Verdana', 'Geneva', 'Lucid', 'Arial', 'Helvetica', 'Avant Garde', sans-serif; text-anchor: start" x="323.876953" y="47.916" transform="rotate(-0 323.876953 47.916)">Median</text>
    </g>
    <g id="line2d_29">
     <path d="M 298.676953 57.976313 
L 307.676953 57.976313 
L 316.676953 57.976313 
" style="fill: none; stroke-dasharray: 7.4,3.2; stroke-dashoffset: 0; stroke: #00ffff; stroke-width: 2"/>
    </g>
    <g id="text_23">
     <text style="font: 9px 'DejaVu Sans', 'Bitstream Vera Sans', 'Computer Modern Sans Serif', 'Lucida Grande', 'Verdana', 'Geneva', 'Lucid', 'Arial', 'Helvetica', 'Avant Garde', sans-serif; text-anchor: start" x="323.876953" y="61.126313" transform="rotate(-0 323.876953 61.126313)">Mean</text>
    </g>
   </g>
   <g id="patch_11">
    <path d="M 63 160.58576 
L 77.241577 158.918188 
L 86.762045 156.088563 
L 96.308596 155.730315 
L 105.829064 155.426516 
L 115.349532 155.639716 
L 124.87 153.858905 
L 134.416551 154.179261 
L 143.937019 154.202308 
L 153.457487 154.167305 
L 162.977955 154.189043 
L 172.524506 153.817548 
L 182.044974 154.352735 
L 191.565442 155.716915 
L 201.08591 155.352627 
L 210.632461 154.880862 
L 220.152929 154.060483 
L 229.673397 154.530068 
L 239.193865 153.395076 
L 248.740416 153.468323 
L 258.260884 154.100444 
L 267.781352 153.52027 
L 277.30182 153.963714 
L 286.848371 154.758638 
L 296.368839 153.05809 
L 305.889307 154.210805 
L 315.409775 153.218366 
L 324.956326 153.817122 
L 334.476794 154.031286 
L 343.997262 154.852344 
L 353.51773 154.781938 
L 363.064281 154.873334 
L 372.584749 154.663759 
L 382.105217 155.620448 
L 391.625685 154.664352 
L 401.172236 154.407961 
L 410.692704 153.747865 
L 420.213172 154.59633 
L 429.73364 154.350283 
L 439.280191 154.351987 
L 453.6 154.664729 
L 453.6 128.259117 
L 439.280191 128.818709 
L 429.73364 126.743411 
L 420.213172 128.834135 
L 410.692704 126.659228 
L 401.172236 128.50417 
L 391.625685 129.594316 
L 382.105217 128.140376 
L 372.584749 128.803999 
L 363.064281 129.902296 
L 353.51773 127.54498 
L 343.997262 126.841748 
L 334.476794 127.408232 
L 324.956326 126.602031 
L 315.409775 126.154696 
L 305.889307 125.851372 
L 296.368839 127.334719 
L 286.848371 127.233887 
L 277.30182 127.633437 
L 267.781352 127.145332 
L 258.260884 127.465132 
L 248.740416 125.809985 
L 239.193865 127.345675 
L 229.673397 128.344597 
L 220.152929 128.88586 
L 210.632461 127.763429 
L 201.08591 129.760583 
L 191.565442 129.380943 
L 182.044974 129.147772 
L 172.524506 127.553897 
L 162.977955 126.983709 
L 153.457487 128.882501 
L 143.937019 127.135291 
L 134.416551 128.313844 
L 124.87 128.506208 
L 115.349532 130.46962 
L 105.829064 131.495547 
L 96.308596 130.534702 
L 86.762045 133.296416 
L 77.241577 135.748167 
L 63 137.812596 
z
" clip-path="url(#pd32d1f9b6f)" style="fill: #5a7d9a; opacity: 0.5; stroke: #5a7d9a; stroke-linejoin: miter"/>
   </g>
   <g id="line2d_30">
    <path d="M 67.721109 148.069429 
L 77.241577 146.76428 
L 86.762045 144.032134 
L 96.308596 142.186241 
L 105.829064 142.160909 
L 115.349532 141.979414 
L 124.87 140.826797 
L 134.416551 139.949894 
L 143.937019 139.662701 
L 153.457487 140.401002 
L 162.977955 140.294643 
L 172.524506 140.170752 
L 182.044974 140.769162 
L 191.565442 141.608728 
L 201.08591 142.100297 
L 210.632461 140.732523 
L 220.152929 140.077145 
L 229.673397 140.502643 
L 239.193865 139.565401 
L 248.740416 139.202367 
L 258.260884 140.136281 
L 267.781352 139.358882 
L 277.30182 139.265492 
L 286.848371 140.019108 
L 296.368839 139.642266 
L 305.889307 139.237949 
L 315.409775 138.501099 
L 324.956326 139.239314 
L 334.476794 139.843072 
L 343.997262 139.946276 
L 353.51773 139.685414 
L 363.064281 140.996053 
L 372.584749 140.797946 
L 382.105217 141.050137 
L 391.625685 141.419798 
L 401.172236 140.773349 
L 410.692704 139.16742 
L 420.213172 140.942605 
L 429.73364 139.726332 
L 439.280191 140.589056 
L 448.800659 140.34325 
" clip-path="url(#pd32d1f9b6f)" style="fill: none; stroke-dasharray: 7.4,3.2; stroke-dashoffset: 0; stroke: #00ffff; stroke-width: 2"/>
   </g>
   <g id="line2d_31">
    <path d="M 67.721109 148.823064 
L 77.241577 148.402605 
L 86.762045 144.662971 
L 96.308596 143.557004 
L 105.829064 143.427394 
L 115.349532 143.648523 
L 124.87 142.391592 
L 134.416551 141.069374 
L 143.937019 142.064295 
L 153.457487 141.583341 
L 162.977955 141.389384 
L 172.524506 141.704243 
L 182.044974 141.509211 
L 191.565442 143.243293 
L 201.08591 143.855807 
L 210.632461 141.611309 
L 220.152929 141.517857 
L 229.673397 141.930189 
L 239.193865 142.062726 
L 248.740416 140.574229 
L 258.260884 142.014583 
L 267.781352 140.940246 
L 277.30182 141.568576 
L 286.848371 142.771281 
L 296.368839 141.430592 
L 305.889307 139.974911 
L 315.409775 140.384112 
L 324.956326 140.628301 
L 334.476794 142.046849 
L 343.997262 141.163895 
L 353.51773 140.895035 
L 363.064281 142.158519 
L 372.584749 142.200111 
L 382.105217 142.515495 
L 391.625685 142.395211 
L 401.172236 142.40146 
L 410.692704 140.998924 
L 420.213172 142.129384 
L 429.73364 141.167427 
L 439.280191 142.654491 
L 448.800659 141.756673 
" clip-path="url(#pd32d1f9b6f)" style="fill: none; stroke: #0165fc; stroke-width: 2; stroke-linecap: square"/>
   </g>
  </g>
 </g>
 <defs>
  <clipPath id="pd32d1f9b6f">
   <rect x="63" y="31.536" width="390.6" height="202.356"/>
  </clipPath>
 </defs>
</svg>
